<svg width="23" height="24" viewBox="0 0 23 24" fill="none" xmlns="http://www.w3.org/2000/svg">
<g id="CITAS RESERVADAS">
<path id="Shape" fill-rule="evenodd" clip-rule="evenodd" d="M20.5447 2.58705C20.5112 2.57583 20.4926 2.5696 20.4801 2.55724C20.4645 2.54184 20.4583 2.51692 20.4445 2.46096L20.4444 2.46095C20.3192 1.72953 20.0185 1.09899 19.5425 0.645009C18.7407 -0.136854 17.5882 -0.212518 16.6863 0.443238C16.1601 0.821558 15.8094 1.35121 15.6089 2.08263C15.5839 2.18349 15.5588 2.30957 15.5338 2.43565L15.5338 2.43573V2.46095H15.2832H14.1057H14.0054C13.8551 1.77997 13.6296 1.25032 13.2538 0.84678C12.7277 0.266688 12.1514 -0.0107468 11.5 0.039696C9.87146 0.140581 9.34532 1.30076 9.04466 2.46095H8.79412H7.44118C7.41612 2.43573 7.41612 2.41051 7.41612 2.41051C7.2658 1.65386 6.96514 1.07377 6.48911 0.645009C5.81264 0.0396959 5.061 -0.136854 4.25926 0.165803C3.30719 0.518902 2.73094 1.27554 2.50545 2.43573C2.48039 2.58705 2.45534 2.6375 2.30501 2.68794C0.927015 3.16715 0.0250545 4.42822 0 5.89105V20.5699C0 22.5372 1.47821 24 3.45752 24H11.4749H19.5926C21.4967 24 23 22.4867 23 20.5447V5.99194C23 4.35255 22.098 3.09148 20.5447 2.58705ZM3.68301 2.43573C3.70806 2.20873 3.80828 1.95652 3.98366 1.72953C4.2342 1.42687 4.55991 1.19988 4.83551 1.17466C5.13617 1.14944 5.43682 1.25032 5.68736 1.47731C5.96296 1.72953 6.1634 2.05741 6.21351 2.43573H3.68301ZM11.5251 1.17466C10.9488 1.17466 10.3976 1.72953 10.2473 2.43573H12.7778C12.6525 1.72953 12.1013 1.17466 11.5251 1.17466ZM17.9891 1.17466C18.5654 1.17466 19.1416 1.75475 19.2669 2.43573H16.7113C16.8115 1.75475 17.3878 1.17466 17.9891 1.17466ZM5.86274 4.93264C6.1634 5.38663 6.03813 5.99194 5.58715 6.2946C5.13617 6.59725 4.53486 6.47115 4.25926 6.0676C4.1841 5.96672 4.13399 5.91628 4.10893 5.91628C3.3573 5.53796 2.85621 4.93264 2.60566 4.02467L2.55556 3.87334C1.80392 4.20122 1.378 4.73087 1.27778 5.38663C1.20261 5.86583 1.17756 6.37026 1.17756 6.87469V7.35389H21.8725V7.02602V5.9415C21.8475 4.65521 20.8704 3.67157 19.5926 3.67157H17.4379H16.7614H16.7113C16.8115 4.15078 17.037 4.50388 17.3878 4.75609C17.4003 4.75609 17.4066 4.74979 17.4129 4.74348C17.4191 4.73718 17.4254 4.73087 17.4379 4.73087C17.6885 4.57954 17.9641 4.5291 18.2397 4.57954C18.4902 4.62999 18.7157 4.78131 18.841 5.00831C19.1416 5.48751 18.9913 6.09283 18.5403 6.37026C18.3148 6.49637 18.0643 6.54681 17.8137 6.49637C17.5381 6.44592 17.3126 6.26937 17.1623 6.01716C17.1514 6.00064 17.1416 5.98532 17.1328 5.97146L17.1327 5.9713C17.1012 5.92181 17.0817 5.89105 17.0621 5.89105C16.2854 5.46229 15.7843 4.78131 15.5839 3.77246C15.5588 3.74724 15.5588 3.72202 15.5588 3.69679H10.2723C10.3725 4.10034 10.5479 4.42822 10.8486 4.68043C10.9237 4.75609 10.9488 4.75609 11.024 4.70565C11.2244 4.55432 11.5 4.50388 11.7505 4.55432C12.0011 4.60476 12.2266 4.78131 12.3769 5.00831C12.6525 5.46229 12.4771 6.0676 12.0261 6.34504C11.5501 6.6477 10.9739 6.49637 10.6732 5.99194C10.6231 5.89105 10.573 5.84061 10.5479 5.84061C9.84641 5.46229 9.39542 4.85698 9.14488 4.02467C9.09477 3.92379 9.06972 3.79769 9.04467 3.67159L9.04466 3.67157V3.64635H3.68301C3.78322 4.07512 3.98366 4.40299 4.33442 4.68043C4.40959 4.73087 4.43464 4.73087 4.5098 4.68043C4.71024 4.50388 4.98584 4.45344 5.23638 4.50388C5.48693 4.55432 5.71242 4.70565 5.86274 4.93264ZM2.95643 22.3102C3.13181 22.3354 3.33224 22.3354 3.53268 22.3354H9.64597H19.5174C20.2691 22.3354 20.9205 22.1336 21.4967 21.7553C21.0708 22.4615 20.4444 22.8146 19.6176 22.8146C15.9161 22.8315 12.2145 22.8257 8.61909 22.8201C6.86066 22.8173 5.12764 22.8146 3.43246 22.8146C2.63072 22.8146 1.90414 22.3858 1.52832 21.7553C1.9793 22.058 2.45534 22.2345 2.95643 22.3102ZM3.53268 21.1752H19.4172C20.9205 21.1752 21.8475 20.242 21.8725 18.7287V11.4398V8.51408H1.20261V10.4561V18.8548C1.20261 19.0566 1.20261 19.2079 1.22767 19.334C1.4281 20.4438 2.35512 21.1752 3.53268 21.1752Z" fill="#01387B"/>
</g>
</svg>
