<svg width="14" height="14" viewBox="0 0 14 14" fill="none" xmlns="http://www.w3.org/2000/svg">
<path fill-rule="evenodd" clip-rule="evenodd" d="M7.03201 7.22491e-05C3.14345 -0.0173836 0 3.13048 0 6.99986C0 10.8634 3.11434 13.9647 6.93305 13.9996C10.8449 14.0346 13.9942 10.8692 14 7.01731C14.0058 3.15376 10.8856 0.0175281 7.03201 7.22491e-05ZM0.675259 6.8893C0.733471 3.43887 3.58586 0.634301 7.07276 0.680849C10.5422 0.715761 13.3946 3.59015 13.3247 7.1395C13.2549 10.5783 10.3967 13.3887 6.87484 13.3247C3.42869 13.2549 0.617047 10.3979 0.675259 6.8893Z" fill="#D5041E"/>
<path d="M8.59796 10.2583C8.64453 10.4329 8.6911 10.6016 8.73184 10.7704C8.73767 10.782 8.7202 10.8111 8.70856 10.8227C8.05076 11.2068 7.38715 11.5908 6.66532 11.841C6.51397 11.8934 6.3568 11.9283 6.19962 11.9516C5.90856 11.9981 5.72228 11.8177 5.62332 11.6374C5.52436 11.457 5.5069 11.2591 5.51272 11.0613C5.53019 10.6307 5.60586 10.2002 5.68154 9.7754C5.78632 9.17026 5.90856 8.57095 6.00752 7.96581C6.06574 7.61088 6.11231 7.25012 6.14723 6.88937C6.15887 6.77882 6.14141 6.66244 6.11813 6.55189C6.09484 6.4297 6.02499 6.37733 5.89692 6.38315C5.78632 6.38897 5.68154 6.41224 5.57093 6.43552C5.45451 6.46461 5.33809 6.50534 5.22166 6.54607C5.18091 6.39479 5.14599 6.2435 5.11106 6.09222C5.08777 6.00494 5.08777 6.00494 5.17509 5.96421C5.78632 5.69074 6.40337 5.44054 7.03205 5.22525C7.22998 5.15543 7.43954 5.10306 7.64328 5.05651C7.80045 5.0216 7.9518 5.03323 8.07405 5.15543C8.17301 5.25434 8.19629 5.38817 8.20794 5.51618C8.2254 5.77802 8.19047 6.03985 8.14972 6.29587C8.01002 7.11048 7.86449 7.91926 7.72478 8.73387C7.6491 9.16445 7.56761 9.5892 7.55014 10.0256C7.54432 10.1303 7.55596 10.2409 7.57925 10.3456C7.59671 10.4504 7.66074 10.4911 7.76553 10.4911C7.94598 10.4911 8.1148 10.4562 8.27779 10.3922C8.38257 10.3514 8.48735 10.3049 8.59796 10.2583Z" fill="#D5041E"/>
<path d="M8.06823 2.07739C8.30689 2.07739 8.5281 2.12394 8.71438 2.28686C8.88901 2.44396 8.92394 2.64762 8.88901 2.86872C8.79588 3.4564 8.27779 3.92771 7.67821 3.96844C7.48028 3.98008 7.28819 3.97426 7.10773 3.89862C6.82249 3.78224 6.67696 3.52041 6.72353 3.21784C6.82249 2.56616 7.39879 2.07739 8.06823 2.07739Z" fill="#D5041E"/>
</svg>
