<svg xmlns:mydata="http://www.w3.org/2000/svg" mydata:contrastcolor="151f42" mydata:template="Contrast" mydata:presentation="2.5" mydata:layouttype="undefined" mydata:specialfontid="undefined" mydata:id1="087" mydata:id2="121" mydata:companyname="Metele Play" mydata:companytagline="" version="1.1" xmlns="http://www.w3.org/2000/svg" xmlns:xlink="http://www.w3.org/1999/xlink" viewBox="65 215.31012022584756 420 39.37975954830492"><defs><linearGradient x1="65" y1="235" x2="485" y2="235" gradientUnits="userSpaceOnUse" id="color-1512948509531479"><stop offset="0" stop-color="#4568dc"></stop><stop offset="1" stop-color="#b06ab3"></stop></linearGradient></defs><g fill="url(#color-1512948509531479)" fill-rule="nonzero" stroke="none" stroke-width="1" stroke-linecap="butt" stroke-linejoin="miter" stroke-miterlimit="10" stroke-dasharray="" stroke-dashoffset="0" font-family="none" font-weight="none" font-size="none" text-anchor="none" style="mix-blend-mode: normal"><g data-paper-data="{&quot;isGlobalGroup&quot;:true,&quot;bounds&quot;:{&quot;x&quot;:65,&quot;y&quot;:215.31012022584756,&quot;width&quot;:420,&quot;height&quot;:39.37975954830492}}"><g data-paper-data="{&quot;isPrimaryText&quot;:true}"><path d="M69.86151,215.52414c1.65101,0.04077 2.86889,0.45862 3.65363,1.25355c0.78474,0.79493 4.47914,4.48424 11.0832,11.06791c6.52253,-6.52253 10.19145,-10.20674 11.00677,-11.05263c0.81532,-0.84589 2.0281,-1.26884 3.63835,-1.26884c3.24088,0.02038 4.87151,1.64082 4.8919,4.86132l0.03057,29.35137c0,3.26126 -1.65101,4.91228 -4.95304,4.95304c-3.2205,-0.02038 -4.86132,-1.6714 -4.92247,-4.95304v-17.27451c-3.28165,3.36318 -5.32503,5.45752 -6.13016,6.28303c-0.80512,0.82551 -2.01281,1.23826 -3.62306,1.23826c-1.56948,0 -2.77207,-0.42295 -3.60777,-1.26884c-0.8357,-0.84589 -2.88418,-2.89947 -6.14544,-6.16073v17.18278c-0.02038,3.24088 -1.65101,4.87151 -4.8919,4.8919c-3.28165,0.02038 -4.91228,-1.61025 -4.8919,-4.8919v-29.35137c0,-3.24088 1.62044,-4.86132 4.86132,-4.86132z" data-paper-data="{&quot;glyphName&quot;:&quot;M&quot;,&quot;glyphIndex&quot;:0,&quot;firstGlyphOfWord&quot;:true,&quot;word&quot;:1}" style="fill: rgb(255, 255, 255);"></path><path d="M113.42996,215.46299l24.76522,0.06115c3.03705,0.04077 4.56577,1.62044 4.58615,4.73902c0,3.32241 -1.65101,5.01419 -4.95304,5.07534h-19.47586v19.47586h19.44528c3.28165,0.02038 4.92247,1.6714 4.92247,4.95304c0,3.20012 -1.61025,4.82056 -4.83075,4.86132h-24.45948c-3.24088,0 -4.87151,-1.57967 -4.8919,-4.73902v-29.47367c0.02038,-3.24088 1.65101,-4.8919 4.8919,-4.95304zM120.70665,235.18345c0.02038,-3.26126 1.63063,-4.91228 4.83075,-4.95304h9.84494c3.26126,0.02038 4.91228,1.65101 4.95304,4.8919c-0.06115,3.26126 -1.71216,4.8919 -4.95304,4.8919h-9.81437c-3.24088,0.02038 -4.86132,-1.58987 -4.86132,-4.83075z" data-paper-data="{&quot;glyphName&quot;:&quot;E&quot;,&quot;glyphIndex&quot;:1,&quot;word&quot;:1}" style="fill: rgb(255, 255, 255);"></path><path d="M151.61732,215.46299l24.76522,0.06115c3.03705,0.04077 4.56577,1.62044 4.58615,4.73902c0,3.32241 -1.65101,5.01419 -4.95304,5.07534h-7.30727l0.03057,24.4289c-0.04077,3.20012 -1.68159,4.82056 -4.92247,4.86132c-3.26126,0 -4.8919,-1.57967 -4.8919,-4.73902l0.03057,-24.5512h-7.33784c-3.26126,0 -4.8919,-1.64082 -4.8919,-4.92247c0.02038,-3.24088 1.65101,-4.8919 4.8919,-4.95304z" data-paper-data="{&quot;glyphName&quot;:&quot;T&quot;,&quot;glyphIndex&quot;:2,&quot;word&quot;:1}" style="fill: rgb(255, 255, 255);"></path><path d="M189.83525,215.46299l24.76522,0.06115c3.03705,0.04077 4.56577,1.62044 4.58615,4.73902c0,3.32241 -1.65101,5.01419 -4.95304,5.07534h-19.47586v19.47586h19.44528c3.28165,0.02038 4.92247,1.6714 4.92247,4.95304c0,3.20012 -1.61025,4.82056 -4.83075,4.86132h-24.45948c-3.24088,0 -4.87151,-1.57967 -4.8919,-4.73902v-29.47367c0.02038,-3.24088 1.65101,-4.8919 4.8919,-4.95304zM197.11194,235.18345c0.02038,-3.26126 1.63063,-4.91228 4.83075,-4.95304h9.84494c3.26126,0.02038 4.91228,1.65101 4.95304,4.8919c-0.06115,3.26126 -1.71216,4.8919 -4.95304,4.8919h-9.81437c-3.24088,0.02038 -4.86132,-1.58987 -4.86132,-4.83075z" data-paper-data="{&quot;glyphName&quot;:&quot;E&quot;,&quot;glyphIndex&quot;:3,&quot;word&quot;:1}" style="fill: rgb(255, 255, 255);"></path><path d="M228.42008,215.46299c3.28165,0.08153 4.93266,1.68159 4.95304,4.80017l-0.03057,24.5512h19.44528c3.28165,0.02038 4.92247,1.6714 4.92247,4.95304c0,3.20012 -1.61025,4.82056 -4.83075,4.86132h-24.45948c-3.24088,0 -4.87151,-1.57967 -4.8919,-4.73902v-29.47367c0.02038,-3.24088 1.65101,-4.8919 4.8919,-4.95304z" data-paper-data="{&quot;glyphName&quot;:&quot;L&quot;,&quot;glyphIndex&quot;:4,&quot;word&quot;:1}" style="fill: rgb(255, 255, 255);"></path><path d="M266.36284,215.46299l24.76522,0.06115c3.03705,0.04077 4.56577,1.62044 4.58615,4.73902c0,3.32241 -1.65101,5.01419 -4.95304,5.07534h-19.47586v19.47586h19.44528c3.28165,0.02038 4.92247,1.6714 4.92247,4.95304c0,3.20012 -1.61025,4.82056 -4.83075,4.86132h-24.45948c-3.24088,0 -4.87151,-1.57967 -4.8919,-4.73902v-29.47367c0.02038,-3.24088 1.65101,-4.8919 4.8919,-4.95304zM273.63954,235.18345c0.02038,-3.26126 1.63063,-4.91228 4.83075,-4.95304h9.84494c3.26126,0.02038 4.91228,1.65101 4.95304,4.8919c-0.06115,3.26126 -1.71216,4.8919 -4.95304,4.8919h-9.81437c-3.24088,0.02038 -4.86132,-1.58987 -4.86132,-4.83075z" data-paper-data="{&quot;glyphName&quot;:&quot;E&quot;,&quot;glyphIndex&quot;:5,&quot;lastGlyphOfWord&quot;:true,&quot;word&quot;:1}" style="fill: rgb(255, 255, 255);"></path><path d="M335.49144,215.52414h17.18278c3.13897,0 5.95181,1.20259 8.43852,3.60777c2.46633,2.40518 3.6995,5.22821 3.6995,8.46909v0.09172c0,3.38356 -1.21788,6.27284 -3.65363,8.66783c-2.43576,2.39499 -5.32503,3.59249 -8.66783,3.59249l-4.83075,0.06115c-3.2205,0 -4.84094,-1.65101 -4.86132,-4.95304c0,-3.30203 1.65101,-4.94285 4.95304,-4.92247l3.4549,-0.03057c2.58863,0.04077 3.86256,-0.74398 3.82179,-2.35422c0,-1.61025 -1.27393,-2.41537 -3.82179,-2.41537h-10.79274v24.39833c0.02038,3.26126 -1.62044,4.8919 -4.92247,4.8919c-3.26126,0 -4.8919,-1.61025 -4.8919,-4.83075v-29.4431c0.02038,-3.20012 1.65101,-4.81036 4.8919,-4.83075z" data-paper-data="{&quot;glyphName&quot;:&quot;P&quot;,&quot;glyphIndex&quot;:6,&quot;firstGlyphOfWord&quot;:true,&quot;word&quot;:2}" style="fill: rgb(255, 255, 255);"></path><path d="M374.07627,215.46299c3.28165,0.08153 4.93266,1.68159 4.95304,4.80017l-0.03057,24.5512h19.44528c3.28165,0.02038 4.92247,1.6714 4.92247,4.95304c0,3.20012 -1.61025,4.82056 -4.83075,4.86132h-24.45948c-3.24088,0 -4.87151,-1.57967 -4.8919,-4.73902v-29.47367c0.02038,-3.24088 1.65101,-4.8919 4.8919,-4.95304z" data-paper-data="{&quot;glyphName&quot;:&quot;L&quot;,&quot;glyphIndex&quot;:7,&quot;word&quot;:2}" style="fill: rgb(255, 255, 255);"></path><path d="M412.04961,254.65931c-0.8357,0 -1.64082,-0.20892 -2.41537,-0.62677c-0.77455,-0.41785 -1.38094,-1.01914 -1.81917,-1.80389c-0.43823,-0.78474 -0.65735,-1.60515 -0.65735,-2.46123c0,-0.85608 2.43576,-6.18111 7.30727,-15.9751c4.87151,-9.79398 7.52129,-15.07825 7.94933,-15.8528c0.42804,-0.77455 1.03443,-1.38094 1.81917,-1.81917c0.78474,-0.43823 1.59496,-0.65735 2.43066,-0.65735c0.85608,0 1.6714,0.21912 2.44595,0.65735c0.77455,0.43823 1.37585,1.04462 1.80389,1.81917c0.42804,0.77455 3.0931,6.05882 7.99519,15.8528c4.90209,9.79398 7.35313,15.11901 7.35313,15.9751c0,0.85608 -0.21912,1.67649 -0.65735,2.46123c-0.43823,0.78474 -1.04972,1.38604 -1.83446,1.80389c-0.78474,0.41785 -1.58477,0.62677 -2.40009,0.62677zM433.3905,244.81437l-6.72636,-13.78903l-6.72636,13.78903z" data-paper-data="{&quot;glyphName&quot;:&quot;A&quot;,&quot;glyphIndex&quot;:8,&quot;word&quot;:2}" style="fill: rgb(255, 255, 255);"></path><path d="M455.22059,215.43242c1.63063,0 2.8587,0.39747 3.68421,1.1924c0.82551,0.79493 3.72497,4.19888 8.6984,10.21183c5.05496,-6.11487 7.99519,-9.56468 8.8207,-10.34942c0.82551,-0.78474 2.05358,-1.17711 3.68421,-1.17711c1.58987,0 2.81284,0.40766 3.66892,1.22297c0.81532,0.77455 1.22297,1.91599 1.22297,3.42433v0.27517c0,1.73255 -0.86627,3.35299 -2.59882,4.86132l-9.99781,11.6794l-0.03057,12.9941c-0.06115,3.20012 -1.70197,4.82056 -4.92247,4.86132h-0.21402c-3.07782,0 -4.61673,-1.6714 -4.61673,-5.01419l-0.06115,-12.90237l-9.63092,-11.49595c-1.73255,-1.50833 -2.59882,-3.12877 -2.59882,-4.86132v-0.27517c0,-1.50833 0.40766,-2.64978 1.22297,-3.42433c0.85608,-0.81532 2.07906,-1.22297 3.66892,-1.22297z" data-paper-data="{&quot;glyphName&quot;:&quot;Y&quot;,&quot;glyphIndex&quot;:9,&quot;lastGlyphOfWord&quot;:true,&quot;word&quot;:2}" style="fill: rgb(255, 255, 255);"></path></g></g></g></svg>
