<svg width="105" height="105" viewBox="0 0 105 105" fill="none" xmlns="http://www.w3.org/2000/svg">
<g id="editar lapiz">
<path id="Path" d="M105 39.0245C103.849 40.2474 102.735 41.5083 101.546 42.6891C85.9769 58.1698 70.3992 73.6379 54.8173 89.106C54.1974 89.7217 53.6028 90.3753 52.9238 90.9193C52.4178 91.3242 51.8274 91.7163 51.2117 91.885C43.8234 93.8881 36.4225 95.849 29.0301 97.8226C20.4526 100.112 11.8752 102.402 3.29772 104.696C3.06157 104.76 2.8465 104.899 2.623 105C1.75007 105 0.872927 105 0 105C0 104.182 0 103.368 0 102.55C0.759067 99.813 1.535 97.0846 2.2772 94.3435C5.90807 80.9334 9.52629 67.519 13.1782 54.113C13.3469 53.4973 13.7222 52.8648 14.1735 52.4136C31.2356 35.4231 48.323 18.4495 65.3852 1.45066C66.2159 0.624121 67.1479 0.189767 68.2485 0C68.7166 0 69.1805 0 69.6486 0C69.7793 0.0506044 69.91 0.118077 70.045 0.15603C72.6891 0.860276 75.3374 1.54344 77.9772 2.27298C79.4701 2.68625 79.7189 3.65195 78.6857 4.78634C78.5676 4.91706 78.4411 5.03514 78.3188 5.16165C61.9314 21.4394 45.544 37.713 29.1608 53.9949C27.6638 55.4836 25.9221 55.9812 23.8811 55.4329C22.3081 55.0112 20.731 54.5895 19.158 54.1678C17.7495 53.7883 16.9356 54.2522 16.5477 55.686C14.65 62.682 12.765 69.6823 10.8589 76.6742C10.7239 77.176 10.7956 77.5091 11.1836 77.8929C16.5561 83.2021 21.9117 88.524 27.2589 93.8628C27.6342 94.2339 27.9463 94.3393 28.4734 94.196C32.5471 93.0827 36.6292 92.0157 40.7071 90.932C43.6885 90.1392 46.6699 89.3464 49.6514 88.5536C51.0557 88.1782 51.528 87.3812 51.1527 86.0402C50.731 84.5263 50.3219 83.0082 49.8875 81.4985C49.2719 79.3646 49.7695 77.5766 51.3551 76.0037C67.4642 60.0253 83.5564 44.0343 99.6528 28.0475C99.8594 27.8409 100.066 27.63 100.298 27.4571C101.188 26.7866 102.04 27.0228 102.466 28.0602C102.575 28.3258 102.647 28.6126 102.719 28.8951C103.478 31.9272 104.233 34.9592 104.987 37.9913C105 38.3286 105 38.6744 105 39.0245Z" fill="white"/>
<path id="Path_2" d="M99 22.3176C98.7518 22.903 98.6011 23.408 98.3352 23.8414C98.0826 24.257 97.7281 24.6145 97.3824 24.9631C80.2538 42.1274 63.1252 59.2828 45.9877 76.4382C45.6198 76.8047 45.2299 77.1666 44.8088 77.466C43.6832 78.2659 42.6639 78.1631 41.6845 77.1845C37.0755 72.5683 32.4665 67.9521 27.8619 63.3315C26.8027 62.2724 26.723 61.258 27.6049 60.0425C27.8575 59.694 28.15 59.3722 28.4513 59.0683C45.6243 41.8638 62.7972 24.6592 79.9879 7.47255C80.5153 6.94524 81.1756 6.4939 81.8492 6.18109C82.6248 5.81912 83.387 6.01128 84.0296 6.65477C88.7627 11.4095 93.5135 16.1419 98.2333 20.91C98.5834 21.2809 98.743 21.8395 99 22.3176Z" fill="white"/>
</g>
</svg>
