<svg
    xmlns="http://www.w3.org/2000/svg"
    width="27"
    height="28"
    viewBox="0 0 27 28"
    fill="none"
    >
    <path d="M11.0401 8.23456C11.0401 9.0783 11.0401 9.89609 11.3063 10.6619C8.50889 13.9461 1.12284 22.6237 0.434856 23.2857C0.298121 23.4084 0.188738 23.5585 0.113818 23.7262C0.0388976 23.8939 0.000117777 24.0755 0 24.2592C0 24.8109 0.3375 25.3431 0.623077 25.6417C1.05144 26.0895 2.88173 27.7835 3.21923 27.459C4.21875 26.4854 4.41995 26.2258 4.82885 25.8234C5.44543 25.2198 4.76394 23.9866 4.97812 23.4869C5.19231 22.9871 5.41947 22.8898 5.78942 22.8119C6.15937 22.734 6.8149 23.0001 7.32764 23.0066C7.86635 23.0131 8.15841 22.7859 8.56082 22.4095C8.88534 22.1109 9.11899 21.8318 9.12548 21.397C9.13846 20.8129 8.29471 20.0405 8.92428 19.4239C9.55385 18.8073 10.4625 19.8263 11.131 19.7484C11.7995 19.6706 12.6108 18.7424 12.6952 18.3465C12.7796 17.9506 11.9358 16.9316 12.0656 16.354C12.1111 16.1593 12.507 15.705 12.8055 15.64C13.1041 15.5751 14.4281 16.0879 14.7267 16.023C15.0901 15.9451 15.512 15.5622 15.856 15.348C16.862 15.7828 17.7772 15.9581 18.9519 15.9581C23.3978 15.9581 27 12.4922 27 8.22157C27 3.95092 23.3978 0.5 18.9519 0.5C14.506 0.5 11.0401 3.9639 11.0401 8.23456V8.23456ZM22.8462 6.73074C22.8462 7.14151 22.7243 7.54306 22.4961 7.88461C22.2679 8.22616 21.9435 8.49236 21.564 8.64956C21.1845 8.80675 20.7669 8.84788 20.364 8.76775C19.9612 8.68761 19.5911 8.4898 19.3006 8.19934C19.0102 7.90888 18.8124 7.53881 18.7322 7.13593C18.6521 6.73304 18.6932 6.31545 18.8504 5.93594C19.0076 5.55643 19.2738 5.23206 19.6154 5.00385C19.9569 4.77564 20.3585 4.65383 20.7692 4.65383C21.3201 4.65383 21.8483 4.87264 22.2378 5.26214C22.6273 5.65164 22.8462 6.17991 22.8462 6.73074Z" fill="#9597C7"/>
</svg>