


<svg width="21" height="22" viewBox="0 0 21 22" fill="none" xmlns="http://www.w3.org/2000/svg">
<path fill-rule="evenodd" clip-rule="evenodd" d="M20.9698 14.8945C20.9245 14.7012 20.849 14.5229 20.7432 14.3742C20.2447 13.6161 19.2929 13.3039 18.4166 13.6012C18.1673 13.6904 17.918 13.7759 17.6688 13.8614L17.6686 13.8614C17.4194 13.9469 17.1701 14.0323 16.9209 14.1215L15.1382 14.7458C14.7454 13.7945 13.9144 13.2445 12.872 13.2445H12.449H12.4036C12.0108 13.2445 11.6029 13.2445 11.2101 13.2594C10.8475 13.2742 10.5001 13.2148 10.1828 13.1107C9.45761 12.858 8.67199 12.8134 7.88638 12.9918C7.46336 13.081 7.01012 13.2296 6.64753 13.5418C6.14897 13.9877 5.78638 14.4634 5.52955 15.0134L5.51444 15.0283C5.18207 15.0729 4.84969 15.1026 4.50221 15.1323L4.32091 15.1472L4.30581 15.058C4.27559 14.8945 4.24537 14.7458 4.21516 14.5972C4.13962 14.2404 3.913 14.0918 3.5353 14.1512L2.7648 14.285C2.3871 14.3445 2.0094 14.4039 1.63171 14.4783C1.47925 14.5071 1.33134 14.5337 1.18622 14.5598C0.957437 14.601 0.735579 14.6409 0.51372 14.6864C0.241777 14.7458 0.120914 14.9242 0.136022 15.2067C0.143576 15.2661 0.15113 15.3219 0.158684 15.3776C0.166238 15.4333 0.173792 15.4891 0.181346 15.5485C0.51372 17.4958 0.861202 19.458 1.20868 21.4053C1.26912 21.7323 1.45041 21.8958 1.73746 21.8958C1.78278 21.8958 1.84322 21.8958 1.88854 21.881C2.87055 21.7175 3.85257 21.5539 4.83458 21.3756C5.16696 21.3161 5.33314 21.0634 5.28782 20.7364L5.2576 20.6026C5.24117 20.5298 5.2292 20.457 5.21684 20.3819C5.20648 20.3189 5.19584 20.2542 5.18207 20.1864V20.1715H5.19717L5.1973 20.1715C5.42388 20.0972 5.65046 20.0229 5.89214 19.9485C5.92876 19.9365 5.96477 19.9245 6.00041 19.9126C6.14119 19.8657 6.27624 19.8206 6.42091 19.785C6.47923 19.7736 6.52854 19.7532 6.58275 19.7309C6.59876 19.7243 6.6152 19.7175 6.63242 19.7107C6.79861 19.6512 6.97991 19.5918 7.14609 19.5769C9.04969 19.4283 10.7871 19.3094 12.5547 19.2053C13.3101 19.1607 14.0957 19.0715 14.8662 18.6999L15.4554 18.4026C17.1475 17.5702 18.8245 16.7377 20.5166 15.8904C20.8943 15.7121 21.0756 15.3107 20.9698 14.8945ZM4.18494 20.4391L2.16048 20.781L1.25401 15.5783L3.27847 15.2364L4.18494 20.4391ZM11.059 14.285C10.6511 14.285 10.3188 14.2404 10.0015 14.1215C9.4425 13.9134 8.92883 13.8539 8.46048 13.8985C8.09789 13.958 7.67487 14.0323 7.3576 14.2999C7.01012 14.5823 6.73818 14.9242 6.55689 15.3256L6.54178 15.3404C6.51156 15.3999 6.48512 15.4594 6.45868 15.5188C6.43225 15.5783 6.40581 15.6377 6.37559 15.6972C6.28494 15.8904 6.11876 15.9945 5.89214 16.0094C5.76895 16.0094 5.63878 16.0231 5.51112 16.0365C5.45091 16.0429 5.39125 16.0492 5.33314 16.0539L5.19717 16.0688C5.10653 16.0762 5.01588 16.0874 4.92523 16.0985C4.83458 16.1097 4.74394 16.1208 4.65329 16.1283L4.51732 16.1431L5.03099 19.1161L5.12163 19.0864C5.31804 19.0121 5.48422 18.9526 5.66552 18.908C5.74106 18.8857 5.81282 18.8597 5.88459 18.8337C5.95635 18.8077 6.02811 18.7817 6.10365 18.7594C6.11324 18.756 6.12286 18.7525 6.1325 18.7491C6.50209 18.6181 6.90039 18.4769 7.32739 18.4769C7.50868 18.4769 7.68998 18.4621 7.85617 18.4472C7.90149 18.4472 7.94681 18.4435 7.99214 18.4398C8.03746 18.436 8.08278 18.4323 8.12811 18.4323C8.33961 18.4175 8.55489 18.4026 8.77017 18.3877C8.98547 18.3729 9.20076 18.358 9.41228 18.3431H9.4425C9.66925 18.3272 9.8981 18.3106 10.1283 18.2939C10.9716 18.2326 11.8329 18.1701 12.6756 18.135C13.3857 18.1053 14.0202 17.9418 14.6396 17.6445C15.9992 16.9756 17.3438 16.3067 18.6883 15.6379L18.6885 15.6377L19.867 15.0431C19.9123 15.0283 19.9425 15.0134 19.9576 14.9985C19.9425 14.9688 19.9274 14.9391 19.8972 14.8945C19.6554 14.5377 19.1871 14.3891 18.7792 14.5229C18.2075 14.7189 17.6111 14.9295 16.9414 15.1661C16.4429 15.3421 15.9039 15.5325 15.3044 15.7418L15.2742 15.7715C15.108 16.2621 14.7605 16.5148 14.2468 16.5148H13.6425H13.6123H13.1439H12.8267H12.7662C12.0108 16.5148 11.2252 16.5148 10.4849 16.6485C10.2471 16.6836 9.99998 16.7464 9.75819 16.8077C9.69276 16.8243 9.62772 16.8408 9.56336 16.8567L9.29142 16.931C8.97415 17.0053 8.73242 16.9012 8.62667 16.6337C8.56624 16.4999 8.56624 16.3512 8.62667 16.2323C8.70221 16.0985 8.82307 16.0094 8.98926 15.9499C9.82019 15.6823 10.6813 15.5337 11.5123 15.5188C11.822 15.5188 12.1355 15.5151 12.449 15.5114C12.7625 15.5077 13.0759 15.5039 13.3857 15.5039H14.1713H14.277C14.2861 15.495 14.2843 15.4808 14.2814 15.4579C14.2794 15.4427 14.277 15.4237 14.277 15.3999C14.1864 14.7756 13.6123 14.2702 12.9475 14.2702C12.2979 14.2702 11.6483 14.2702 11.059 14.285Z" fill="#696A8F"/>
<path fill-rule="evenodd" clip-rule="evenodd" d="M5.63528 10.4499C5.72593 9.36476 6.45111 8.57692 7.61442 8.29449C7.94679 8.22016 8.27916 8.13097 8.62665 8.01205L8.86837 7.95259C8.77772 7.83368 8.70219 7.71476 8.62665 7.59584C7.90147 6.40665 7.73528 5.24719 8.11298 4.058C8.49067 2.82422 9.56334 1.99178 10.8928 1.87286C11.6784 1.79854 12.3432 1.91746 12.9324 2.21476C13.8842 2.7053 14.4583 3.52287 14.6245 4.63773C14.8058 5.79719 14.5036 6.91205 13.7331 7.96746L13.718 7.98232L14.5943 8.2053C14.6698 8.22759 14.7491 8.24617 14.8284 8.26475L14.8284 8.26476L14.8285 8.26476L14.8285 8.26476C14.9078 8.28334 14.9871 8.30192 15.0626 8.32422C16.1655 8.60665 16.8907 9.51341 16.9058 10.6431V11.5945C16.8907 11.9512 16.6943 12.1594 16.3317 12.1594H10.6964H6.19427C6.01298 12.1594 5.87701 12.1148 5.77125 12.0107C5.66549 11.9215 5.62017 11.7729 5.62017 11.5945V11.2675C5.62017 11.2008 5.61923 11.1341 5.61829 11.0672L5.61829 11.0672C5.61546 10.8656 5.61259 10.662 5.63528 10.4499ZM10.213 7.96746C10.9079 8.51746 11.6784 8.51746 12.3583 7.95259C12.9928 7.41746 13.3705 6.73368 13.5518 5.76746C13.0382 5.66341 12.5849 5.44043 12.177 5.08368C11.2705 5.91611 10.1223 6.12422 9.09499 6.21341C9.32161 6.97151 9.69931 7.53638 10.213 7.96746ZM12.6756 4.07287C12.6756 4.06671 12.673 4.058 12.6699 4.0478C12.6656 4.03337 12.6605 4.01596 12.6605 3.99854C12.6605 3.98368 12.6605 3.95395 12.6454 3.93908C12.6 3.70124 12.3734 3.53773 12.1166 3.53773C11.8446 3.55259 11.6331 3.73097 11.618 3.96881C11.6029 4.19178 11.482 4.34043 11.3007 4.48908C11.059 4.68232 10.7418 4.83097 10.3338 4.96476C9.91082 5.09854 9.44247 5.17286 8.94391 5.18773C8.94391 4.41476 9.20075 3.83503 9.72952 3.43368C10.1979 3.06205 10.7115 2.88368 11.2403 2.88368C11.6029 2.88368 11.9957 2.97286 12.3885 3.13638C13.023 3.40395 13.4763 4.01341 13.582 4.71205C13.1741 4.56341 12.8871 4.37016 12.6756 4.07287ZM12.8115 8.90395C11.8144 9.58773 10.7115 9.57287 9.72952 8.87422C9.6842 8.84449 9.66909 8.84449 9.59355 8.87422C9.43492 8.91138 9.27629 8.95226 9.11765 8.99314C8.95902 9.03401 8.80039 9.07489 8.64175 9.11205C8.5138 9.14353 8.38315 9.17767 8.25093 9.21221C8.0709 9.25925 7.88798 9.30704 7.70506 9.34989C7.23672 9.46881 6.91945 9.75124 6.73816 10.1972C6.64423 10.4216 6.64564 10.6695 6.64713 10.9305C6.64732 10.9633 6.64751 10.9964 6.64751 11.0296V11.1634H15.8482V11.1039V10.7026C15.8482 10.0188 15.4403 9.49854 14.7605 9.33503C14.6396 9.3053 14.515 9.27557 14.3903 9.24584C14.2657 9.21611 14.141 9.18638 14.0202 9.15665L13.9748 9.14178C13.6274 9.06746 13.2799 8.97827 12.9324 8.88908C12.872 8.87422 12.8569 8.87422 12.8115 8.90395Z" fill="#696A8F"/>
<path d="M5.58995 13.5715C5.74103 13.7053 5.92232 13.7647 6.10362 13.7201C6.28491 13.6756 6.42088 13.5418 6.46621 13.3485C6.54175 13.1107 6.40578 12.9323 6.28491 12.8134C4.51729 11.0296 3.88275 8.93366 4.38132 6.57015C4.87988 4.23636 6.2547 2.54177 8.3547 1.66474C11.1648 0.490416 13.7331 0.936362 15.9993 2.95798C18.613 5.29177 18.9302 9.43906 16.6943 12.1742C16.3166 12.635 15.8935 13.0364 15.4403 13.3783C15.3648 13.4377 15.1533 13.6012 15.1986 13.8837C15.2288 14.0769 15.3497 14.2256 15.5158 14.285C15.5763 14.2999 15.6367 14.3147 15.6971 14.3147C15.8331 14.3147 15.9691 14.2701 16.0899 14.1661C18.0993 12.6053 19.1569 10.5391 19.2324 8.04177C19.2022 5.93096 18.5374 4.1769 17.2079 2.67555C14.8813 0.0444698 10.8626 -0.758233 7.67484 0.787713C5.74103 1.7242 4.29067 3.35933 3.5957 5.39582C2.90074 7.43231 3.05182 9.60258 4.03383 11.4904C4.42664 12.2783 4.94031 12.962 5.58995 13.5715Z" fill="#696A8F"/>
</svg>
