
<svg width="20" height="15" viewBox="0 0 20 15" fill="none" xmlns="http://www.w3.org/2000/svg">
<path d="M18.605 4.89579L18.045 3.85413C17.8818 3.54049 17.6407 3.27832 17.3469 3.09506C17.0531 2.9118 16.7174 2.8142 16.375 2.81246H12C12 2.25992 11.7893 1.73002 11.4142 1.33932C11.0391 0.948619 10.5304 0.729126 10 0.729126H2C1.46957 0.729126 0.960859 0.948619 0.585786 1.33932C0.210714 1.73002 0 2.25992 0 2.81246V10.625C0 11.1775 0.210714 11.7074 0.585786 12.0981C0.960859 12.4888 1.46957 12.7083 2 12.7083H2.05C2.16476 13.297 2.47136 13.8262 2.91787 14.2064C3.36438 14.5866 3.92332 14.7942 4.5 14.7942C5.07668 14.7942 5.63562 14.5866 6.08213 14.2064C6.52864 13.8262 6.83524 13.297 6.95 12.7083H13.05C13.1648 13.297 13.4714 13.8262 13.9179 14.2064C14.3644 14.5866 14.9233 14.7942 15.5 14.7942C16.0767 14.7942 16.6356 14.5866 17.0821 14.2064C17.5286 13.8262 17.8352 13.297 17.95 12.7083H18.09C18.5966 12.7083 19.0824 12.4987 19.4406 12.1256C19.7988 11.7524 20 11.2464 20 10.7187V8.02079C20.0017 7.68335 19.919 7.35127 19.76 7.05725L18.605 4.89579ZM18 5.93746L18.55 6.97913L18.83 7.49996H15.5C15.3674 7.49996 15.2402 7.44509 15.1464 7.34741C15.0527 7.24974 15 7.11726 15 6.97913V6.45829C15 6.32016 15.0527 6.18768 15.1464 6.09001C15.2402 5.99233 15.3674 5.93746 15.5 5.93746H18ZM4.5 13.75C4.15067 13.7488 3.81267 13.6208 3.5443 13.3878C3.27594 13.1549 3.09404 12.8316 3.03 12.4739C3.0099 12.3799 2.99984 12.2838 3 12.1875C3 11.7731 3.15804 11.3756 3.43934 11.0826C3.72064 10.7896 4.10218 10.625 4.5 10.625C4.89782 10.625 5.27936 10.7896 5.56066 11.0826C5.84196 11.3756 6 11.7731 6 12.1875C6.00016 12.2838 5.9901 12.3799 5.97 12.4739C5.90596 12.8316 5.72406 13.1549 5.4557 13.3878C5.18733 13.6208 4.84933 13.7488 4.5 13.75ZM6.95 11.6666V11.6198C6.92061 11.4795 6.88049 11.3419 6.83 11.2083L6.75 11.0416C6.71268 10.955 6.66923 10.8715 6.62 10.7916L6.5 10.625C6.45088 10.5554 6.39743 10.4893 6.34 10.427C6.29549 10.3729 6.24701 10.3224 6.195 10.276L6 10.1041C5.94534 10.0612 5.8886 10.0212 5.83 9.98433L5.6 9.85413L5.425 9.77079C5.33198 9.73334 5.23679 9.70203 5.14 9.67704L5 9.63538C4.68685 9.56589 4.36315 9.56589 4.05 9.63538L3.895 9.67704C3.7982 9.70203 3.70302 9.73334 3.61 9.77079L3.435 9.85413L3.205 9.98433C3.13447 10.02 3.06602 10.06 3 10.1041L2.81 10.2708C2.75799 10.3172 2.70952 10.3677 2.665 10.4218C2.60568 10.4856 2.55055 10.5535 2.5 10.625C2.46 10.6823 2.42 10.7343 2.38 10.7968C2.33077 10.8767 2.28732 10.9603 2.25 11.0468C2.25 11.1041 2.195 11.1562 2.17 11.2135C2.11951 11.3471 2.07939 11.4847 2.05 11.625V11.6718H2C1.73478 11.6718 1.48043 11.5621 1.29289 11.3667C1.10536 11.1714 1 10.9064 1 10.6302V2.81246C1 2.53619 1.10536 2.27124 1.29289 2.07589C1.48043 1.88054 1.73478 1.77079 2 1.77079H10C10.2652 1.77079 10.5196 1.88054 10.7071 2.07589C10.8946 2.27124 11 2.53619 11 2.81246V7.49996H3.5C3.36739 7.49996 3.24021 7.55483 3.14645 7.65251C3.05268 7.75018 3 7.88266 3 8.02079C3 8.15893 3.05268 8.2914 3.14645 8.38908C3.24021 8.48675 3.36739 8.54163 3.5 8.54163H11V11.6666H6.95ZM15.5 13.75C15.1507 13.7488 14.8127 13.6208 14.5443 13.3878C14.2759 13.1549 14.094 12.8316 14.03 12.4739C14.0099 12.3799 13.9998 12.2838 14 12.1875C14 11.7731 14.158 11.3756 14.4393 11.0826C14.7206 10.7896 15.1022 10.625 15.5 10.625C15.8978 10.625 16.2794 10.7896 16.5607 11.0826C16.842 11.3756 17 11.7731 17 12.1875C17.0002 12.2838 16.9901 12.3799 16.97 12.4739C16.906 12.8316 16.7241 13.1549 16.4557 13.3878C16.1873 13.6208 15.8493 13.7488 15.5 13.75ZM19 10.7187C18.9987 10.9697 18.9024 11.21 18.732 11.3875C18.5616 11.5649 18.3309 11.6653 18.09 11.6666H17.95V11.6198C17.9206 11.4795 17.8805 11.3419 17.83 11.2083L17.75 11.0416C17.7127 10.955 17.6692 10.8715 17.62 10.7916C17.58 10.7291 17.54 10.677 17.5 10.6198C17.4509 10.5502 17.3974 10.4841 17.34 10.4218C17.2955 10.3677 17.247 10.3172 17.195 10.2708L17 10.1041C16.9453 10.0612 16.8886 10.0212 16.83 9.98433L16.6 9.85413L16.425 9.77079C16.332 9.73334 16.2368 9.70203 16.14 9.67704L16 9.63538C15.6868 9.56589 15.3632 9.56589 15.05 9.63538L14.895 9.67704C14.7982 9.70203 14.703 9.73334 14.61 9.77079L14.435 9.85413L14.205 9.98433C14.1345 10.02 14.066 10.06 14 10.1041L13.81 10.2708C13.758 10.3172 13.7095 10.3677 13.665 10.4218C13.6057 10.4856 13.5506 10.5535 13.5 10.625L13.38 10.7968C13.3308 10.8767 13.2873 10.9603 13.25 11.0468L13.17 11.2135C13.1195 11.3471 13.0794 11.4847 13.05 11.625V11.6718H12V3.85413H16.375C16.5374 3.85442 16.6968 3.89997 16.8366 3.98606C16.9763 4.07215 17.0915 4.19563 17.17 4.34371L17.465 4.89579H15.5C15.1022 4.89579 14.7206 5.06041 14.4393 5.35344C14.158 5.64646 14 6.04389 14 6.45829V6.97913C14 7.39353 14.158 7.79095 14.4393 8.08398C14.7206 8.37701 15.1022 8.54163 15.5 8.54163H19V10.7187Z" fill="#01387b"/>
</svg>
