<svg width="23" height="20" viewBox="0 0 23 20" fill="none" xmlns="http://www.w3.org/2000/svg">
<path d="M14.6278 0.838303C15.86 0.550189 16.9996 0.283074 18.2115 0C17.8923 1.04242 17.5867 2.04032 17.2657 3.0903C16.989 2.85426 16.7344 2.65435 16.505 2.43427C16.3661 2.30071 16.2909 2.31079 16.1492 2.43511C14.273 4.07308 12.3901 5.70433 10.509 7.33725C10.3644 7.46325 10.2179 7.58757 10.0761 7.71525C9.80716 7.958 9.49189 8.0126 9.1207 7.92524C8.31083 7.73625 7.49228 7.57413 6.68723 7.37085C6.42306 7.30449 6.3064 7.37589 6.16082 7.54473C4.5459 9.41789 2.92231 11.286 1.30064 13.155C1.19941 13.2717 1.10589 13.3969 0.985372 13.4969C0.766515 13.6783 0.388576 13.6665 0.163934 13.4868C-0.0896319 13.2843 -0.0163581 13.0853 0.16297 12.8786C2.0006 10.7585 3.8363 8.63671 5.67104 6.51491C5.86001 6.29651 6.0914 6.23016 6.39607 6.30323C7.28596 6.51575 8.17971 6.71399 9.0696 6.9265C9.27206 6.97522 9.4109 6.95842 9.57191 6.81646C11.4741 5.14238 13.3841 3.47501 15.3008 1.81436C15.4965 1.64469 15.5302 1.54053 15.3027 1.38261C15.0809 1.22974 14.8852 1.04914 14.6278 0.838303Z" fill="#01387b"/>
<path d="M22.2203 11.2221C22.2203 13.9244 22.2203 16.6266 22.2203 19.3297C22.2203 19.8723 22.0795 19.9966 21.4625 19.9966C20.6449 19.9974 19.8273 19.9991 19.0098 19.9958C18.4612 19.9932 18.2674 19.8278 18.2674 19.3523C18.2654 13.9059 18.2654 8.4586 18.2674 3.01215C18.2674 2.55184 18.4554 2.3956 18.9914 2.39392C19.8331 2.3914 20.6748 2.3914 21.5165 2.39392C22.0468 2.3956 22.2203 2.54932 22.2203 3.01971C22.2213 5.75469 22.2203 8.488 22.2203 11.2221ZM19.3838 15.6741C19.3838 16.7106 19.3906 17.7463 19.378 18.7828C19.3761 18.9802 19.4378 19.0331 19.6586 19.0231C20.0182 19.0063 20.3807 19.0004 20.7394 19.0239C21.0547 19.0441 21.1549 18.9735 21.154 18.6762C21.1414 13.6841 21.1453 8.69127 21.1453 3.69925C21.1453 3.64717 21.1385 3.59341 21.1463 3.54218C21.1723 3.38678 21.0923 3.34814 20.9235 3.35234C20.5398 3.36158 20.1532 3.3725 19.7704 3.34982C19.4687 3.33134 19.3723 3.39098 19.3742 3.67993C19.3906 6.1814 19.3838 8.68287 19.3838 11.1843C19.3838 12.6812 19.3838 14.1772 19.3838 15.6741Z" fill="#01387b"/>
<path d="M12.4662 13.979C12.4662 12.1882 12.4653 10.3965 12.4662 8.60567C12.4662 8.10924 12.6485 7.95216 13.2221 7.95048C14.0397 7.9488 14.8573 7.9488 15.6749 7.95048C16.2514 7.95132 16.4384 8.10924 16.4384 8.59979C16.4394 12.1924 16.4394 15.785 16.4384 19.3776C16.4384 19.8446 16.2688 19.9933 15.726 19.9958C14.8843 19.9992 14.0426 19.9992 13.2009 19.9958C12.6523 19.9933 12.4662 19.8287 12.4653 19.3524C12.4653 17.5616 12.4662 15.7707 12.4662 13.979ZM13.5576 18.7191C13.5547 18.9744 13.6434 19.0383 13.9182 19.0231C14.2769 19.003 14.6394 19.003 14.998 19.0231C15.2747 19.0391 15.3567 18.9719 15.3557 18.7199C15.3422 16.7426 15.348 14.7653 15.348 12.7879C15.348 11.5851 15.3422 10.3814 15.3538 9.17853C15.3557 8.97106 15.2911 8.90722 15.054 8.91814C14.6828 8.93494 14.3087 8.93914 13.9375 8.9173C13.6444 8.9005 13.5547 8.97442 13.5567 9.23985C13.5711 10.819 13.5644 12.399 13.5644 13.979C13.5653 15.5599 13.5731 17.1399 13.5576 18.7191Z" fill="#01387b"/>
<path d="M10.6075 15.5985C10.6075 16.8551 10.6084 18.1126 10.6075 19.3692C10.6075 19.864 10.4532 19.995 9.87666 19.9967C9.05908 19.9983 8.24149 19.9983 7.42391 19.9967C6.8435 19.995 6.65646 19.8379 6.6555 19.344C6.65357 16.8409 6.65357 14.3377 6.6555 11.8337C6.6555 11.3331 6.84158 11.1693 7.40752 11.1668C8.23667 11.1642 9.06679 11.1634 9.89594 11.1668C10.4214 11.1693 10.6065 11.3331 10.6075 11.7959C10.6084 13.0643 10.6075 14.331 10.6075 15.5985ZM7.76425 18.7535C7.76136 18.9794 7.83656 19.0349 8.08338 19.024C8.4912 19.0055 8.89999 19.013 9.30879 19.0214C9.47558 19.0248 9.53632 18.9878 9.53632 18.8316C9.53054 16.6653 9.53054 14.4981 9.53632 12.3318C9.53632 12.1756 9.47462 12.1386 9.30879 12.1428C8.90096 12.1512 8.4912 12.1596 8.08338 12.1403C7.83559 12.1285 7.76136 12.1857 7.76425 12.4108C7.77871 13.4675 7.771 14.525 7.771 15.5826C7.771 16.6393 7.77871 17.696 7.76425 18.7535Z" fill="#01387b"/>
<path d="M4.81976 17.6606C4.81976 18.257 4.82361 18.8534 4.81879 19.4498C4.8159 19.8236 4.63657 19.9907 4.20753 19.9941C3.30704 20.0016 2.40654 20.0025 1.50604 19.9941C1.07508 19.9899 0.862969 19.7992 0.861041 19.4279C0.85622 18.2352 0.855256 17.0424 0.861041 15.8505C0.862969 15.4943 1.0799 15.3061 1.48387 15.3028C2.38437 15.2969 3.28486 15.2977 4.18536 15.3019C4.60861 15.3045 4.81494 15.4918 4.81783 15.8715C4.82361 16.4687 4.81976 17.0642 4.81976 17.6606ZM3.738 16.483C3.74186 16.3326 3.71294 16.2528 3.50661 16.2587C3.06215 16.2713 2.61672 16.2679 2.17226 16.2595C1.99679 16.2562 1.94665 16.3141 1.94858 16.462C1.95533 17.2473 1.95726 18.0327 1.94665 18.8181C1.94472 18.9962 2.0286 19.0239 2.20215 19.0214C2.63504 19.0138 3.06793 19.0105 3.49986 19.0222C3.69462 19.0281 3.74282 18.9693 3.738 18.808C3.72547 18.4208 3.73415 18.0336 3.73415 17.6455C3.73511 17.2583 3.72933 16.8702 3.738 16.483Z" fill="#01387b"/>
</svg>
