<?xml version="1.0" encoding="utf-8"?>
<!-- Generator: Adobe Illustrator 24.1.1, SVG Export Plug-In . SVG Version: 6.00 Build 0)  -->
<svg version="1.1" id="Capa_1" xmlns="http://www.w3.org/2000/svg" xmlns:xlink="http://www.w3.org/1999/xlink" x="0px" y="0px"
	 viewBox="0 0 319 324" style="enable-background:new 0 0 319 324;" xml:space="preserve">
<style type="text/css">
	.st0{clip-path:url(#SVGID_2_);}
	.st1{fill:#DCFDFF;}
	.st2{fill:#BDE660;}
	.st3{fill:#5F7884;}
	.st4{fill:#EEF6FE;}
	.st5{fill:#D6E8FB;}
	.st6{fill:#FE5F7B;}
	.st7{fill:#E9344A;}
	.st8{fill:#01D77F;}
	.st9{fill:#5F7882;}
	.st10{fill:#4B5055;}
	.st11{fill:#01B3FE;}
	.st12{fill:#01B3FD;}
	.st13{fill:#3F83E8;}
	.st14{fill:#5FD5FD;}
	.st15{fill:#09B5FE;}
	.st16{fill:#E6F4FE;}
</style>
<g>
	<defs>
		<circle id="SVGID_1_" cx="160" cy="158" r="144"/>
	</defs>
	<clipPath id="SVGID_2_">
		<use xlink:href="#SVGID_1_"  style="overflow:visible;"/>
	</clipPath>
	<g class="st0">
		<circle class="st1" cx="160" cy="158" r="144"/>
		<g>
			<path class="st2" d="M151.5,309.1c-1.1,0.06-2.21,0.18-3.31,0.18c-39.4,0.04-78.79,0.07-118.19,0.1c0-13.08,0-26.16,0-39.24
				c2.13-0.13,4.26-0.26,6.39-0.39c14.26,0.09,28.53,0.22,42.79,0.26c6.3,0.01,12.61-0.17,18.91-0.26c1.1,0.1,2.2,0.29,3.3,0.29
				c16.69,0.07,33.39,0.12,50.08,0.18C151.49,283.18,151.49,296.14,151.5,309.1z"/>
			<path class="st3" d="M30.46,146.36c9.61,0.03,19.23,0.08,28.84,0.08c12.85,0.01,25.7-0.02,38.54-0.03
				c0.55,4.75,0.38,9.51,0.09,14.27c-20.52,0.02-41.04,0.05-61.56,0.07c-2.13-0.01-4.25-0.02-6.38-0.04c0-4.74,0-9.49,0-14.23
				C30.15,146.44,30.31,146.4,30.46,146.36z"/>
			<path class="st4" d="M30.46,146.36c-0.15,0.04-0.31,0.09-0.46,0.13c0-0.16,0-0.32,0-0.47C30.15,146.13,30.31,146.24,30.46,146.36
				z"/>
			<path class="st5" d="M266.77,126.63c0,46.77,0,93.54-0.06,140.31c0,2.05,0.68,2.57,2.58,2.47c1.18-0.06,2.52-0.53,3.61,0.46
				c-14.65-0.03-29.3-0.06-43.96-0.1c-5.59-0.02-11.18-0.07-16.77-0.1c0.67-0.64,0.46-1.47,0.46-2.24
				c0.01-8.76-0.04-17.52,0.05-26.28c0.02-1.76-0.44-2.27-2.23-2.26c-9.39,0.08-18.79,0.02-28.18,0.02
				c0.02-26.04,0.03-52.07,0.05-78.11c0,0-0.02-0.21-0.02-0.21c14.05,0.04,28.1,0.03,42.14,0.15c1.97,0.02,2.49-0.5,2.48-2.48
				c-0.07-10.57,0.01-21.15,0.04-31.73C240.23,126.58,253.5,126.61,266.77,126.63z M198.08,177.28c-2.2,0-4.02,0.07-5.84-0.02
				c-1.37-0.07-1.78,0.47-1.76,1.79c0.06,3.56,0.06,7.12,0,10.67c-0.02,1.26,0.28,1.87,1.7,1.84c3.71-0.08,7.43-0.07,11.15-0.01
				c1.25,0.02,1.68-0.44,1.63-1.66c-0.07-1.82,0.04-3.64-0.03-5.45c-0.08-2.27,0.98-5.22-0.41-6.65
				C203.02,176.24,200.02,177.56,198.08,177.28z M228.16,191.53c2.29,0,4.19-0.04,6.09,0.02c1.11,0.03,1.56-0.35,1.55-1.5
				c-0.04-3.72-0.05-7.43,0-11.15c0.02-1.24-0.43-1.66-1.66-1.64c-3.72,0.06-7.43,0.05-11.15,0c-1.21-0.02-1.72,0.37-1.67,1.62
				c0.07,1.82-0.03,3.64,0.03,5.45c0.08,2.28-0.97,5.21,0.39,6.66C223.23,192.6,226.24,191.23,228.16,191.53z M197.3,222.37
				c2.28,0,4.17-0.03,6.06,0.01c1.04,0.03,1.62-0.23,1.6-1.43c-0.04-3.78-0.04-7.56,0-11.34c0.01-1.12-0.41-1.52-1.53-1.51
				c-3.78,0.04-7.56,0.05-11.34-0.01c-1.27-0.02-1.65,0.49-1.61,1.68c0.06,1.81-0.03,3.62,0.03,5.43c0.08,2.27-0.96,5.19,0.39,6.63
				C192.39,223.43,195.38,222.07,197.3,222.37z M229.18,208.12c-2.37,0-4.34,0.04-6.32-0.02c-1.13-0.03-1.54,0.41-1.53,1.52
				c0.04,3.72,0.05,7.43-0.01,11.15c-0.02,1.27,0.49,1.63,1.68,1.61c3.72-0.05,7.43-0.06,11.15,0c1.23,0.02,1.7-0.41,1.65-1.64
				c-0.07-1.9,0.03-3.8-0.03-5.69c-0.07-2.2,0.94-5.03-0.39-6.43C233.93,207.1,231.04,208.39,229.18,208.12z"/>
			<path class="st4" d="M182.32,160.81c-0.02,26.04-0.03,52.07-0.05,78.11c0,0,0.05,0.11,0.05,0.11
				c-9.32-0.01-18.63,0.03-27.95-0.09c-2.08-0.03-2.44,0.71-2.43,2.58c0.08,9.39,0.04,18.79,0.03,28.18
				c-0.17,0.06-0.33,0.12-0.5,0.18c-16.69-0.02-33.39-0.04-50.08-0.06c-1.1,0-2.2-0.07-3.3-0.11c0.01-35.87,0.02-71.74,0.03-107.61
				c0-0.47-0.12-0.93-0.19-1.4c0.29-4.76,0.46-9.52-0.09-14.27c0-6.59,0-13.19,0-19.78c13.28-0.02,26.57-0.05,39.85-0.07
				c0.03,10.67,0.09,21.34,0.05,32.02c-0.01,1.65,0.44,2.18,2.12,2.14c4.74-0.11,9.49-0.05,14.23-0.03
				C163.51,160.72,172.92,160.77,182.32,160.81z M136.12,191.53c1.82,0,3.64-0.06,5.45,0.02c1.2,0.05,1.69-0.33,1.67-1.6
				c-0.06-3.71-0.06-7.43,0-11.14c0.02-1.31-0.55-1.58-1.71-1.56c-3.63,0.05-7.27,0.09-10.9-0.01c-1.57-0.05-1.82,0.62-1.79,1.97
				c0.07,3.47,0.1,6.95-0.01,10.42c-0.05,1.65,0.61,2.01,2.08,1.92C132.64,191.44,134.38,191.53,136.12,191.53z M167.49,177.27
				c-2.27,0-4.17,0.08-6.06-0.03c-1.38-0.07-1.76,0.46-1.74,1.77c0.07,3.63,0.06,7.27,0,10.9c-0.02,1.24,0.41,1.65,1.64,1.63
				c3.71-0.06,7.43-0.07,11.14,0c1.27,0.02,1.66-0.45,1.61-1.65c-0.07-1.89,0.03-3.79-0.03-5.69c-0.06-2.2,0.92-5.03-0.37-6.43
				C172.26,176.25,169.35,177.55,167.49,177.27z M135.68,222.36c2.22,0,4.04-0.05,5.85,0.02c1.16,0.04,1.74-0.24,1.71-1.55
				c-0.06-3.71-0.06-7.42,0-11.14c0.02-1.26-0.46-1.62-1.67-1.6c-3.71,0.06-7.43,0.07-11.14,0c-1.29-0.02-1.63,0.49-1.59,1.68
				c0.07,1.81-0.03,3.63,0.03,5.45c0.08,2.28-0.97,5.22,0.39,6.65C130.75,223.42,133.76,222.09,135.68,222.36z M167.29,208.11
				c-2.29,0-4.19,0.05-6.08-0.02c-1.14-0.04-1.53,0.39-1.51,1.51c0.04,3.79,0.03,7.58,0.01,11.37c-0.01,0.99,0.34,1.41,1.38,1.4
				c3.87-0.04,7.74-0.04,11.61,0c1.02,0.01,1.41-0.38,1.39-1.39c-0.04-1.89,0.03-3.79-0.02-5.69c-0.07-2.28,0.95-5.21-0.37-6.66
				C172.22,207.04,169.21,208.41,167.29,208.11z"/>
			<path class="st6" d="M182.32,160.81c-9.41-0.04-18.81-0.09-28.22-0.12c-4.74-0.02-9.49-0.07-14.23,0.03
				c-1.68,0.04-2.13-0.49-2.12-2.14c0.04-10.67-0.02-21.34-0.05-32.02c0-4.75,0-9.49,0-14.24c0.03-10.48,0.13-20.97,0.03-31.45
				c-0.02-2.19,0.59-2.74,2.75-2.72c13.95,0.12,27.91,0.1,41.86,0.12c0,6.73,0,13.46,0,20.19c-1.81,0.03-3.63,0.14-5.44,0.06
				c-1.36-0.06-1.77,0.42-1.73,1.76c0.08,3.39-0.04,6.79,0.06,10.19c0.04,1.43-0.35,1.94-1.84,1.89c-3.31-0.11-6.64,0.03-9.95-0.06
				c-1.48-0.04-2.1,0.3-2.04,1.93c0.12,3.47,0.12,6.95,0,10.42c-0.06,1.64,0.57,1.97,2.05,1.93c3.32-0.09,6.64,0.05,9.95-0.06
				c1.5-0.05,1.88,0.47,1.84,1.89c-0.09,3.39,0.02,6.79-0.06,10.19c-0.03,1.33,0.38,1.82,1.74,1.75c1.81-0.08,3.63,0.03,5.44,0.07
				c-0.01,6.72-0.03,13.45-0.04,20.17L182.32,160.81z"/>
			<path class="st7" d="M182.3,160.6c0.01-6.72,0.03-13.45,0.04-20.17l-0.05-0.14c1.82,0.02,3.64-0.03,5.44,0.09
				c1.38,0.09,1.74-0.43,1.71-1.75c-0.08-3.24,0.11-6.48-0.08-9.71c-0.12-2.07,0.61-2.5,2.51-2.4c3.15,0.16,6.32-0.02,9.48,0.07
				c1.41,0.04,1.99-0.29,1.89-1.82c-0.13-1.97,0.02-3.95-0.05-5.92c-0.08-2.11,0.92-4.86-0.41-6.14c-1.32-1.26-4.06-0.26-6.17-0.39
				c-2.34-0.15-5.37,1-6.82-0.46c-1.33-1.35-0.24-4.36-0.38-6.63c-0.14-2.18,0.99-5.14-0.46-6.33c-1.5-1.24-4.38-0.36-6.66-0.3
				l0.05-0.14c0-6.73,0-13.46,0-20.19c14.69-0.01,29.39-0.01,44.08-0.02c0.13,0.13,0.26,0.27,0.38,0.4
				c0.02,10.29,0.04,20.57,0.07,30.86c0,0.94,0.06,1.88,0.08,2.82c0,4.74,0,9.48,0,14.22c-0.03,10.58-0.11,21.15-0.04,31.73
				c0.01,1.97-0.5,2.49-2.48,2.48C210.4,160.63,196.35,160.64,182.3,160.6z"/>
			<path class="st8" d="M151.48,270.21c0.17-0.16,0.33-0.33,0.5-0.49c10.13,0.46,20.26,0.54,30.38-0.04c9.94,0,19.87,0,29.81-0.01
				c5.59,0.1,11.18,0.24,16.77,0.28c14.65,0.11,29.3,0.18,43.96,0.27c0.01,10.45-0.12,20.92,0.09,31.34
				c0.12,6.13-0.41,7.93-2.77,7.91c-33.17-0.25-66.35-0.16-99.52-0.18c-6.4,0-12.79-0.13-19.19-0.2
				C151.49,296.14,151.49,283.18,151.48,270.21z"/>
			<path class="st9" d="M137.7,112.33c0,4.75,0,9.49,0,14.24c-13.28,0.02-26.57,0.05-39.85,0.07c-0.16-0.02-0.31-0.05-0.47-0.06
				c-1.8-0.06-4.24,0.58-5.24-0.35c-1.31-1.21-0.35-3.71-0.44-5.65c-0.09-1.89,0.11-3.8-0.05-5.67c-0.18-1.99,0.33-2.65,2.52-2.64
				C108.67,112.38,123.18,112.33,137.7,112.33z"/>
			<path class="st10" d="M226.96,126.55c0-4.74,0-9.48,0-14.22c14.6,0,29.19,0.03,43.79-0.05c1.72-0.01,2.32,0.33,2.23,2.17
				c-0.17,3.46-0.11,6.94-0.02,10.41c0.03,1.33-0.33,1.82-1.7,1.72c-1.49-0.1-2.99,0.02-4.49,0.04
				C253.5,126.61,240.23,126.58,226.96,126.55z"/>
			<path class="st6" d="M226.81,78.66c-0.13-0.13-0.26-0.27-0.38-0.4C226.73,78.21,226.87,78.34,226.81,78.66z"/>
			<path class="st11" d="M97.94,160.69c0.06,0.47,0.19,0.93,0.19,1.4c0,35.87-0.01,71.74-0.03,107.61
				c-6.3,0.03-12.61,0.1-18.91,0.09c-14.26-0.01-28.53-0.06-42.79-0.09c0-36.31-0.01-72.63-0.01-108.94
				C56.9,160.73,77.42,160.71,97.94,160.69z M74.35,191.35c0,0.06,0,0.11,0,0.17c1.9,0,3.79-0.05,5.69,0.02
				c1.13,0.04,1.53-0.38,1.52-1.5c-0.04-3.79-0.03-7.58-0.01-11.37c0.01-0.99-0.33-1.42-1.37-1.41c-3.87,0.04-7.74,0.04-11.61,0
				c-1.01-0.01-1.42,0.36-1.4,1.38c0.04,1.89-0.06,3.79,0.03,5.69c0.11,2.34-1.04,5.47,0.51,6.79
				C69.03,192.25,72.07,191.35,74.35,191.35z M81.54,215.33c0-1.9-0.04-3.79,0.01-5.69c0.03-1.08-0.3-1.56-1.48-1.55
				c-3.79,0.06-7.58,0.05-11.37,0c-1.11-0.01-1.55,0.34-1.54,1.49c0.05,3.79,0.05,7.58,0,11.37c-0.02,1.21,0.55,1.43,1.6,1.42
				c3.71-0.04,7.43-0.05,11.14,0.01c1.22,0.02,1.71-0.36,1.66-1.61C81.48,218.96,81.54,217.14,81.54,215.33z M74.76,238.95
				c-2.31,0-4.2,0.05-6.1-0.02c-1.16-0.04-1.51,0.42-1.5,1.53c0.04,3.71,0.05,7.42-0.01,11.14c-0.02,1.23,0.4,1.65,1.64,1.63
				c3.71-0.06,7.42-0.07,11.14,0c1.26,0.02,1.66-0.44,1.62-1.65c-0.07-1.81,0.03-3.63-0.03-5.45c-0.07-2.28,0.96-5.22-0.38-6.66
				C79.69,237.89,76.67,239.24,74.76,238.95z"/>
			<path class="st12" d="M212.17,269.67c-9.94,0-19.87,0-29.81,0c-0.02-10.22-0.03-20.44-0.04-30.66c0,0-0.05-0.11-0.05-0.11
				c9.39,0.01,18.79,0.07,28.18-0.02c1.79-0.02,2.25,0.5,2.23,2.26c-0.09,8.76-0.04,17.52-0.05,26.28
				C212.63,268.21,212.84,269.04,212.17,269.67z"/>
			<path class="st13" d="M198.08,177.28c1.95,0.27,4.94-1.05,6.45,0.5c1.39,1.43,0.32,4.37,0.41,6.65c0.07,1.82-0.04,3.64,0.03,5.45
				c0.05,1.22-0.38,1.68-1.63,1.66c-3.72-0.06-7.43-0.07-11.15,0.01c-1.43,0.03-1.72-0.58-1.7-1.84c0.06-3.56,0.06-7.12,0-10.67
				c-0.02-1.32,0.38-1.86,1.76-1.79C194.05,177.35,195.88,177.28,198.08,177.28z"/>
			<path class="st13" d="M228.16,191.53c-1.93-0.3-4.93,1.07-6.42-0.53c-1.35-1.45-0.31-4.38-0.39-6.66
				c-0.06-1.82,0.04-3.64-0.03-5.45c-0.05-1.25,0.47-1.64,1.67-1.62c3.72,0.05,7.43,0.06,11.15,0c1.22-0.02,1.68,0.4,1.66,1.64
				c-0.05,3.72-0.05,7.43,0,11.15c0.01,1.14-0.44,1.53-1.55,1.5C232.36,191.49,230.46,191.53,228.16,191.53z"/>
			<path class="st13" d="M197.3,222.37c-1.92-0.3-4.91,1.06-6.4-0.52c-1.35-1.45-0.31-4.37-0.39-6.63
				c-0.06-1.81,0.04-3.62-0.03-5.43c-0.04-1.19,0.34-1.7,1.61-1.68c3.78,0.06,7.56,0.05,11.34,0.01c1.12-0.01,1.54,0.39,1.53,1.51
				c-0.04,3.78-0.04,7.56,0,11.34c0.01,1.2-0.57,1.45-1.6,1.43C201.47,222.34,199.58,222.37,197.3,222.37z"/>
			<path class="st13" d="M229.18,208.12c1.86,0.27,4.75-1.02,6.21,0.51c1.33,1.4,0.32,4.23,0.39,6.43c0.06,1.9-0.04,3.8,0.03,5.69
				c0.05,1.24-0.42,1.66-1.65,1.64c-3.72-0.06-7.43-0.05-11.15,0c-1.2,0.02-1.7-0.34-1.68-1.61c0.06-3.72,0.04-7.43,0.01-11.15
				c-0.01-1.12,0.4-1.56,1.53-1.52C224.83,208.17,226.81,208.12,229.18,208.12z"/>
			<path class="st14" d="M182.32,239.02c0.01,10.22,0.03,20.44,0.04,30.66c-10.13,0.21-20.26,0.18-30.38,0.01
				c0-9.39,0.05-18.79-0.03-28.18c-0.02-1.87,0.35-2.61,2.43-2.58C163.69,239.05,173,239.01,182.32,239.02z"/>
			<path class="st15" d="M136.12,191.53c-1.74,0-3.48-0.08-5.21,0.03c-1.47,0.09-2.13-0.27-2.08-1.92
				c0.11-3.47,0.08-6.95,0.01-10.42c-0.03-1.34,0.22-2.01,1.79-1.97c3.63,0.11,7.27,0.07,10.9,0.01c1.16-0.02,1.73,0.25,1.71,1.56
				c-0.07,3.71-0.06,7.42,0,11.14c0.02,1.27-0.47,1.65-1.67,1.6C139.76,191.47,137.94,191.53,136.12,191.53z"/>
			<path class="st15" d="M167.49,177.27c1.87,0.27,4.77-1.03,6.2,0.51c1.29,1.39,0.31,4.23,0.37,6.43c0.05,1.89-0.04,3.79,0.03,5.69
				c0.04,1.21-0.35,1.68-1.61,1.65c-3.71-0.07-7.43-0.06-11.14,0c-1.23,0.02-1.66-0.39-1.64-1.63c0.06-3.63,0.06-7.27,0-10.9
				c-0.02-1.31,0.36-1.85,1.74-1.77C163.31,177.35,165.21,177.27,167.49,177.27z"/>
			<path class="st15" d="M135.68,222.36c-1.92-0.28-4.93,1.05-6.41-0.5c-1.36-1.43-0.31-4.37-0.39-6.65
				c-0.06-1.81,0.04-3.63-0.03-5.45c-0.04-1.18,0.3-1.7,1.59-1.68c3.71,0.07,7.43,0.06,11.14,0c1.21-0.02,1.69,0.34,1.67,1.6
				c-0.06,3.71-0.06,7.42,0,11.14c0.02,1.31-0.56,1.6-1.71,1.55C139.72,222.31,137.9,222.36,135.68,222.36z"/>
			<path class="st15" d="M167.29,208.11c1.92,0.3,4.94-1.08,6.4,0.53c1.32,1.45,0.3,4.38,0.37,6.66c0.05,1.89-0.02,3.79,0.02,5.69
				c0.02,1-0.36,1.4-1.39,1.39c-3.87-0.04-7.74-0.04-11.61,0c-1.04,0.01-1.38-0.41-1.38-1.4c0.03-3.79,0.04-7.58-0.01-11.37
				c-0.01-1.12,0.38-1.55,1.51-1.51C163.1,208.16,165,208.11,167.29,208.11z"/>
			<path class="st4" d="M182.34,140.43c-1.81-0.03-3.63-0.15-5.44-0.07c-1.36,0.06-1.77-0.42-1.74-1.75
				c0.08-3.39-0.04-6.79,0.06-10.19c0.04-1.42-0.34-1.94-1.84-1.89c-3.31,0.11-6.64-0.03-9.95,0.06c-1.48,0.04-2.1-0.29-2.05-1.93
				c0.12-3.47,0.12-6.95,0-10.42c-0.06-1.63,0.57-1.98,2.04-1.93c3.32,0.09,6.64-0.05,9.95,0.06c1.5,0.05,1.88-0.46,1.84-1.89
				c-0.09-3.39,0.02-6.79-0.06-10.19c-0.03-1.33,0.37-1.82,1.73-1.76c1.81,0.08,3.63-0.03,5.44-0.06c0,0-0.05,0.14-0.05,0.14
				c0,13.89,0,27.79,0,41.68C182.3,140.29,182.34,140.43,182.34,140.43z"/>
			<path class="st5" d="M182.3,140.29c0-13.89,0-27.79,0-41.68c2.28-0.06,5.15-0.94,6.66,0.3c1.45,1.19,0.32,4.15,0.46,6.33
				c0.14,2.27-0.95,5.28,0.38,6.63c1.45,1.47,4.49,0.32,6.82,0.46c2.11,0.13,4.85-0.87,6.17,0.39c1.33,1.28,0.34,4.03,0.41,6.14
				c0.07,1.97-0.09,3.96,0.05,5.92c0.1,1.53-0.48,1.86-1.89,1.82c-3.16-0.1-6.32,0.09-9.48-0.07c-1.91-0.1-2.64,0.33-2.51,2.4
				c0.19,3.23-0.01,6.47,0.08,9.71c0.03,1.32-0.33,1.84-1.71,1.75C185.93,140.26,184.11,140.31,182.3,140.29z"/>
			<path class="st16" d="M74.35,191.35c-2.28,0-5.32,0.89-6.64-0.23c-1.55-1.32-0.4-4.45-0.51-6.79c-0.09-1.89,0.01-3.79-0.03-5.69
				c-0.02-1.01,0.38-1.39,1.4-1.38c3.87,0.04,7.74,0.04,11.61,0c1.04-0.01,1.37,0.42,1.37,1.41c-0.03,3.79-0.04,7.58,0.01,11.37
				c0.01,1.12-0.39,1.54-1.52,1.5c-1.89-0.07-3.79-0.02-5.69-0.02C74.35,191.47,74.35,191.41,74.35,191.35z"/>
			<path class="st16" d="M81.54,215.33c0,1.82-0.06,3.64,0.02,5.45c0.05,1.26-0.44,1.63-1.66,1.61c-3.71-0.06-7.42-0.05-11.14-0.01
				c-1.04,0.01-1.61-0.22-1.6-1.42c0.05-3.79,0.05-7.58,0-11.37c-0.01-1.15,0.43-1.5,1.54-1.49c3.79,0.05,7.58,0.05,11.37,0
				c1.18-0.02,1.51,0.47,1.48,1.55C81.5,211.53,81.54,213.43,81.54,215.33z"/>
			<path class="st16" d="M74.76,238.95c1.91,0.29,4.92-1.07,6.39,0.52c1.34,1.44,0.3,4.38,0.38,6.66c0.06,1.81-0.04,3.63,0.03,5.45
				c0.05,1.21-0.36,1.67-1.62,1.65c-3.71-0.07-7.42-0.06-11.14,0c-1.24,0.02-1.66-0.4-1.64-1.63c0.06-3.71,0.05-7.42,0.01-11.14
				c-0.01-1.1,0.34-1.57,1.5-1.53C70.56,239,72.46,238.95,74.76,238.95z"/>
		</g>
	</g>
</g>
</svg>
