<svg width="17" height="20" viewBox="0 0 17 20" fill="none" xmlns="http://www.w3.org/2000/svg">
<path d="M0.372214 19.9995C0.0866247 19.8538 -0.00340346 19.6254 9.76338e-05 19.3124C0.014102 18.0369 0.00559935 16.7614 0.00609951 15.4864C0.00659967 15.0687 0.19916 14.8794 0.623292 14.8785C1.04792 14.8775 1.47206 14.8785 1.91019 14.8785C1.91019 11.4594 1.91019 8.05888 1.91019 4.62268C1.71763 4.62268 1.52107 4.62415 1.32501 4.6222C0.923386 4.61877 0.726825 4.42803 0.725824 4.03629C0.724324 3.48951 0.723824 2.94322 0.725824 2.39644C0.727325 2.01057 0.931389 1.81298 1.32951 1.80907C1.54908 1.80711 1.76965 1.79782 1.98822 1.812C2.14677 1.82227 2.2433 1.76163 2.33933 1.64621C2.72145 1.18697 3.11707 0.738497 3.49819 0.278282C3.65774 0.0855892 3.8433 -0.000486997 4.09938 2.07188e-06C6.70169 0.00538183 9.304 0.00538183 11.9068 2.07188e-06C12.1629 -0.000486997 12.3485 0.0855892 12.508 0.278772C12.8886 0.738986 13.2847 1.18746 13.6669 1.6467C13.7629 1.76212 13.8599 1.82227 14.018 1.81249C14.2435 1.79831 14.4706 1.80613 14.6967 1.80956C15.0708 1.81494 15.2784 2.01546 15.2799 2.37688C15.2824 2.94322 15.2829 3.50907 15.2794 4.07542C15.2774 4.41825 15.0733 4.61584 14.7207 4.62171C14.5161 4.62513 14.3116 4.6222 14.0945 4.6222C14.0945 8.04519 14.0945 11.4452 14.0945 14.8687C14.1635 14.8721 14.2335 14.878 14.3041 14.878C14.6837 14.879 15.0628 14.876 15.4424 14.8794C15.783 14.8824 15.9971 15.0829 15.9981 15.4091C16.0011 16.7624 15.9966 18.1161 16.0016 19.4694C16.0026 19.7374 15.834 19.8753 15.6335 20.0005C10.5454 19.9995 5.4588 19.9995 0.372214 19.9995ZM2.94902 18.9739C6.33158 18.9739 9.68762 18.9739 13.0377 18.9739C13.0377 14.184 13.0377 9.41165 13.0377 4.62122C12.9346 4.62122 12.8491 4.62122 12.7641 4.62122C9.58909 4.62122 6.4141 4.62122 3.23911 4.62122C2.94952 4.62122 2.94952 4.62122 2.94952 4.90292C2.94952 9.5036 2.94952 14.1048 2.94952 18.7054C2.94902 18.79 2.94902 18.8742 2.94902 18.9739ZM14.2455 2.82242C10.0762 2.82242 5.92495 2.82242 1.76115 2.82242C1.76115 3.08554 1.76115 3.3423 1.76115 3.60933C5.92695 3.60933 10.0807 3.60933 14.2455 3.60933C14.2455 3.34377 14.2455 3.09288 14.2455 2.82242ZM12.462 1.7988C12.2369 1.53568 12.0459 1.30288 11.8423 1.08084C11.8023 1.03683 11.7163 1.01384 11.6512 1.01335C9.21698 1.00993 6.78272 1.01042 4.34846 1.01189C4.29744 1.01189 4.22592 1.0114 4.19891 1.04123C3.98234 1.28136 3.77378 1.52883 3.5412 1.7988C6.53214 1.7988 9.47456 1.7988 12.462 1.7988ZM1.04242 15.8894C1.04242 16.9296 1.04242 17.9523 1.04242 18.9788C1.33852 18.9788 1.6206 18.9788 1.90969 18.9788C1.90969 17.944 1.90969 16.9218 1.90969 15.8894C1.6201 15.8894 1.34302 15.8894 1.04242 15.8894ZM14.0945 15.8938C14.0945 16.9301 14.0945 17.9523 14.0945 18.9793C14.3901 18.9793 14.6727 18.9793 14.9613 18.9793C14.9613 17.9449 14.9613 16.9228 14.9613 15.8938C14.6652 15.8938 14.3836 15.8938 14.0945 15.8938Z" fill="white"/>
<path d="M5.89151 11.8177C5.89151 13.4834 5.89451 15.1492 5.88651 16.815C5.88601 16.9553 5.83849 17.1099 5.76647 17.2322C5.66944 17.397 5.43387 17.463 5.25481 17.4063C5.05875 17.3442 4.9212 17.2185 4.88269 17.0126C4.86819 16.9363 4.86919 16.857 4.86919 16.7793C4.86869 13.4673 4.86919 10.1553 4.86719 6.84383C4.86719 6.61984 4.8937 6.41736 5.10826 6.28238C5.42636 6.08235 5.85 6.27749 5.88651 6.64576C5.89401 6.72303 5.89151 6.80177 5.89151 6.88002C5.89151 8.52525 5.89151 10.1715 5.89151 11.8177Z" fill="white"/>
<path d="M11.1361 11.8196C11.1361 13.479 11.1346 15.1379 11.1376 16.7973C11.1381 17.0252 11.0936 17.2223 10.8771 17.3495C10.5705 17.53 10.1643 17.3402 10.1193 16.9915C10.1108 16.9274 10.1133 16.8614 10.1133 16.7964C10.1128 13.4717 10.1138 10.1465 10.1113 6.8218C10.1113 6.60123 10.1478 6.41 10.3524 6.2804C10.6535 6.08917 11.0651 6.26181 11.1226 6.60856C11.1371 6.69757 11.1356 6.79001 11.1361 6.88098C11.1361 8.52718 11.1361 10.1734 11.1361 11.8196Z" fill="white"/>
<path d="M7.48588 12.7596C7.48588 11.4127 7.48738 10.0658 7.48438 8.71892C7.48388 8.53405 7.52089 8.36924 7.66394 8.24208C7.80898 8.11346 7.98354 8.07531 8.16559 8.13938C8.35265 8.20491 8.47019 8.3443 8.5087 8.53797C8.52021 8.5947 8.51821 8.65437 8.51821 8.71305C8.51871 11.4132 8.51771 14.1138 8.52021 16.814C8.52021 16.9989 8.4847 17.1661 8.33965 17.2903C8.1956 17.4136 8.02655 17.463 7.83949 17.3926C7.64393 17.3192 7.52639 17.1779 7.49288 16.9754C7.48138 16.9054 7.48588 16.8326 7.48588 16.7612C7.48538 15.4275 7.48588 14.0933 7.48588 12.7596Z" fill="white"/>
<path d="M7.48542 6.87266C7.48592 6.45597 7.65997 6.21094 7.95306 6.20996C8.0816 6.20948 8.23365 6.25594 8.33468 6.33174C8.60577 6.5352 8.59276 7.12012 8.32818 7.33238C8.18614 7.44633 8.02559 7.49524 7.84503 7.42824C7.64947 7.35537 7.53043 7.21598 7.49342 7.01497C7.48191 6.9514 7.48642 6.88537 7.48542 6.87266Z" fill="white"/>
</svg>
