<svg width="20" height="20" viewBox="0 0 20 20" fill="none" xmlns="http://www.w3.org/2000/svg">
<path d="M20 7.43323C19.7807 7.66617 19.5687 7.90634 19.3421 8.13125C16.3766 11.08 13.4094 14.0263 10.4414 16.9726C10.3233 17.0898 10.21 17.2143 10.0807 17.318C9.98434 17.3951 9.87188 17.4698 9.75461 17.5019C8.34732 17.8834 6.93763 18.257 5.52954 18.6329C3.89574 19.069 2.26194 19.5052 0.628138 19.9422C0.583156 19.9542 0.54219 19.9807 0.499618 20C0.333347 20 0.166272 20 0 20C0 19.8442 0 19.6891 0 19.5333C0.144584 19.012 0.292381 18.4923 0.433752 17.9702C1.12535 15.4159 1.81453 12.8608 2.51014 10.3072C2.54227 10.19 2.61376 10.0695 2.69971 9.98353C5.94964 6.74726 9.20439 3.5142 12.4543 0.276316C12.6126 0.11888 12.7901 0.036146 12.9997 0C13.0889 0 13.1772 0 13.2664 0C13.2913 0.00963894 13.3162 0.0224909 13.3419 0.0297201C13.8455 0.163862 14.35 0.293988 14.8528 0.432949C15.1372 0.511667 15.1845 0.69561 14.9878 0.911683C14.9653 0.936584 14.9412 0.959075 14.9179 0.983172C11.7965 4.0837 8.67505 7.18342 5.55444 10.2847C5.26929 10.5683 4.93755 10.6631 4.54878 10.5587C4.24917 10.4783 3.94875 10.398 3.64914 10.3177C3.38086 10.2454 3.22583 10.3337 3.15193 10.6069C2.79047 11.9394 2.43142 13.2728 2.06836 14.6046C2.04265 14.7002 2.05631 14.7636 2.13021 14.8367C3.15354 15.848 4.17366 16.8617 5.19218 17.8786C5.26366 17.9493 5.32311 17.9694 5.42351 17.9421C6.19945 17.73 6.97699 17.5268 7.75372 17.3204C8.32162 17.1694 8.88951 17.0184 9.45741 16.8673C9.72489 16.7959 9.81485 16.644 9.74336 16.3886C9.66304 16.1002 9.58512 15.8111 9.50239 15.5235C9.38512 15.1171 9.4799 14.7765 9.78192 14.4769C12.8503 11.4334 15.9155 8.38749 18.9815 5.34238C19.0208 5.30302 19.0602 5.26286 19.1044 5.22993C19.2739 5.10221 19.4361 5.14719 19.5172 5.34479C19.5381 5.3954 19.5518 5.45002 19.5654 5.50384C19.71 6.08137 19.8538 6.6589 19.9976 7.23644C20 7.30069 20 7.36656 20 7.43323Z" fill="white"/>
<path d="M18.5189 4.50326C18.4729 4.61167 18.445 4.70518 18.3958 4.78545C18.349 4.86241 18.2833 4.92862 18.2193 4.99317C15.0474 8.17175 11.8754 11.3487 8.70178 14.5256C8.63367 14.5935 8.56145 14.6605 8.48348 14.7159C8.27502 14.8641 8.08627 14.845 7.90489 14.6638C7.05138 13.8089 6.19786 12.9541 5.34516 12.0984C5.14902 11.9023 5.13424 11.7144 5.29756 11.4894C5.34434 11.4248 5.39851 11.3652 5.45431 11.3089C8.63449 8.12292 11.8147 4.93689 14.9981 1.75418C15.0958 1.65653 15.2181 1.57294 15.3428 1.51502C15.4864 1.44799 15.6276 1.48357 15.7466 1.60274C16.6231 2.48324 17.5029 3.3596 18.3769 4.24259C18.4417 4.31127 18.4713 4.41472 18.5189 4.50326Z" fill="white"/>
</svg>
