<svg width="57" height="56" viewBox="0 0 57 56" fill="none" xmlns="http://www.w3.org/2000/svg">
<ellipse cx="28.5" cy="28" rx="28.5" ry="28" fill="#EBF4FD"/>
<mask id="mask0_0_4403" style="mask-type:alpha" maskUnits="userSpaceOnUse" x="0" y="0" width="57" height="56">
<ellipse cx="28.5" cy="28" rx="28.5" ry="28" fill="white"/>
</mask>
<g mask="url(#mask0_0_4403)">
<path d="M31.335 56.8044C31.3365 57.1399 31.3636 57.4671 31.4112 57.7836L32.1788 79.1504L37.6446 79.6009L37.8768 64.3373C38.1109 64.3657 38.3488 64.3854 38.5916 64.3854C39.0498 64.3854 39.4913 64.3286 39.9138 64.2304L40.4698 79.6009H45.9512L46.2286 58.2251C46.1508 53.6398 46.1554 54.5127 46.1508 53.6398C46.1396 50.9329 45.0002 51.8826 43.0329 51.8902C41.6086 51.8952 40.3868 53.053 39.8274 54.7204C39.4312 54.6353 39.0185 54.5833 38.5915 54.5833C38.417 54.5833 38.2451 54.5922 38.0741 54.607C37.4854 52.9939 36.273 51.8857 34.8736 51.8904C32.9812 51.8967 31.4459 53.9382 31.3456 56.5065H31.3337L31.3409 56.6245C31.3397 56.6843 31.3348 56.7443 31.335 56.8044Z" fill="#353251"/>
<path fill-rule="evenodd" clip-rule="evenodd" d="M46.5305 32.9129C46.4184 32.6178 46.288 32.3284 46.1575 32.0388C45.963 31.6072 45.7683 31.1753 45.6339 30.7235L45.6216 30.6822C45.5261 30.362 45.3913 29.9105 45.4483 29.694C45.4908 29.5333 45.5437 29.3758 45.5965 29.2184L45.5965 29.2184C45.6495 29.0602 45.7026 28.9021 45.7451 28.7409C45.9888 27.8181 46.0781 26.8758 45.8251 25.9463C45.7237 25.5733 45.6512 25.1975 45.5784 24.8198C45.5548 24.6974 45.5311 24.5748 45.5064 24.452C45.4882 24.3613 45.4637 24.2629 45.4382 24.1604L45.4382 24.1604C45.3575 23.8364 45.2665 23.4713 45.3323 23.1777C45.386 22.9374 45.4473 22.7083 45.5077 22.4824L45.5077 22.4823C45.6325 22.0155 45.7538 21.5618 45.7987 21.0492C45.9397 19.4354 45.3379 17.8144 44.5876 16.4076C43.8434 15.0126 42.8887 13.5758 41.7385 12.4733C41.3917 12.1407 40.8248 12.5655 41.0698 12.9828C41.3045 13.3825 41.5478 13.7748 41.7909 14.1664L42.206 15.8049C41.9541 15.861 41.7116 15.9867 41.4979 16.1977C40.9311 16.7572 40.9025 17.7151 41.464 18.2881C41.4716 18.3142 41.4816 18.3468 41.492 18.3806L41.492 18.3806C41.4999 18.4062 41.508 18.4326 41.5154 18.4572C41.5185 18.4895 41.5234 18.5344 41.5286 18.581L41.5286 18.5811C41.5381 18.6673 41.5483 18.7597 41.5487 18.7902C41.5502 18.9333 41.5513 19.0765 41.5431 19.2196C41.5055 19.8967 41.3964 20.5046 41.1763 21.3446C40.9941 22.0403 40.7866 22.735 40.5144 23.4025L40.5044 23.4277C40.4953 23.4454 40.4849 23.4662 40.472 23.4924C40.381 23.6753 40.2808 23.8539 40.1769 24.0297C39.9123 24.4778 39.6329 24.9165 39.3473 25.3519C38.8922 26.0462 38.4606 26.7447 38.0907 27.4655C37.7206 26.7447 37.289 26.046 36.8338 25.3519C36.5483 24.9165 36.2689 24.4778 36.0043 24.0297C35.9003 23.8539 35.8002 23.6753 35.7094 23.4924L35.7005 23.4747C35.6914 23.4566 35.6838 23.4412 35.6768 23.4277L35.6668 23.4025C35.3946 22.735 35.1873 22.0405 35.0049 21.3446C34.7848 20.5046 34.6757 19.8967 34.6381 19.2196C34.6301 19.0765 34.631 18.9333 34.6325 18.7902C34.6329 18.7592 34.6434 18.6645 34.6531 18.5771V18.5771C34.6581 18.5319 34.6629 18.4886 34.666 18.4572C34.6736 18.4317 34.682 18.4044 34.6901 18.3779L34.6901 18.3779L34.6901 18.3779C34.7002 18.345 34.7099 18.3135 34.7172 18.2881C35.2787 17.7151 35.2503 16.7572 34.6833 16.1977C34.4696 15.9867 34.2271 15.861 33.9752 15.8049L34.3903 14.1664C34.6336 13.7749 34.8767 13.3825 35.1114 12.9828C35.3564 12.5656 34.7895 12.1407 34.4426 12.4733C33.2926 13.5758 32.3377 15.0126 31.5936 16.4076C30.8435 17.8144 30.2415 19.4354 30.3825 21.0492C30.4274 21.5618 30.5487 22.0155 30.6735 22.4824C30.7339 22.7083 30.7951 22.9374 30.8489 23.1777C30.9147 23.4717 30.8237 23.837 30.7429 24.1612C30.7174 24.2634 30.693 24.3615 30.6748 24.452C30.6501 24.5748 30.6264 24.6974 30.6028 24.8198L30.6028 24.8198L30.6028 24.8198C30.53 25.1975 30.4575 25.5733 30.3561 25.9463C30.1031 26.8757 30.1925 27.8181 30.4361 28.7409C30.4786 28.9017 30.5315 29.0594 30.5844 29.2171C30.6374 29.375 30.6903 29.5329 30.7329 29.694C30.7901 29.9103 30.6555 30.3611 30.5599 30.6811L30.5473 30.7235C30.4129 31.1752 30.2183 31.6071 30.0238 32.0387C29.8933 32.3283 29.7628 32.6177 29.6507 32.9129C29.3232 33.7756 29.2871 34.72 29.5363 35.6054C29.9642 37.1252 31.502 38.7742 32.9744 39.3983C34.3818 39.9948 35.6759 39.7814 36.8629 38.8531C37.3822 38.4467 37.7787 37.8783 38.0905 37.2661C38.4022 37.8785 38.7986 38.4467 39.3181 38.8531C40.505 39.7814 41.7991 39.9949 43.2065 39.3983C44.6789 38.7742 46.2167 37.1251 46.6446 35.6054C46.8939 34.72 46.858 33.7756 46.5305 32.9129ZM41.5005 18.326C41.5015 18.327 41.5025 18.3275 41.5035 18.3287C41.5101 18.3454 41.5178 18.3644 41.5278 18.3874C41.5174 18.3637 41.5085 18.3436 41.5005 18.326ZM41.5317 18.3963C41.5303 18.3932 41.529 18.3903 41.5278 18.3874C41.529 18.3903 41.5303 18.3932 41.5317 18.3963ZM34.6812 18.3258C34.6801 18.327 34.6792 18.3275 34.6781 18.3285C34.6707 18.3475 34.6619 18.3691 34.65 18.3961C34.662 18.3686 34.672 18.3458 34.6812 18.3258Z" fill="#913107"/>
<path d="M42.644 37.1472C42.6378 37.1346 42.9262 37.7958 42.8795 37.4487C42.9384 37.8854 43.0903 38.2185 43.2896 38.6058C43.5365 39.0856 43.8223 39.5263 44.1305 39.9688C44.8648 41.0227 45.226 41.8806 45.7245 42.957C46.0962 43.7601 46.5068 44.9926 46.7672 46.0255C46.9128 46.6023 47.0132 47.1879 47.1065 47.7746C47.2385 48.6046 47.0592 47.2947 47.1514 48.1335C47.1897 48.4819 47.2101 48.8318 47.2279 49.1815C47.2553 49.7161 47.242 50.2501 47.211 50.7842C47.1982 51.0026 47.1766 51.2203 47.1552 51.4379C47.1185 51.7448 47.1229 51.7307 47.1684 51.3952C47.1471 51.5418 47.124 51.6881 47.099 51.834C46.928 52.8732 46.644 53.8923 46.2872 54.8833C46.2106 55.0958 46.1262 55.3054 46.0424 55.5152C46.3048 54.8594 45.9259 55.7472 45.8682 55.8652C45.6441 56.3237 45.3846 56.7641 45.1091 57.1942C44.9932 57.3748 44.8677 57.549 44.7422 57.7231C44.5504 57.9775 44.572 57.9501 44.8069 57.6405C44.7182 57.7473 44.6271 57.8519 44.5338 57.9549C44.1725 58.362 43.7639 58.7242 43.3325 59.0565C42.0532 60.0418 42.2932 62.1783 43.3325 63.2043C44.539 64.3952 46.3107 64.2494 47.5342 63.2043C51.2699 60.0136 52.7435 54.4332 52.4458 49.7177C52.2602 46.7788 51.3367 44.0113 49.935 41.4265C49.2984 40.2522 48.5249 39.1683 47.573 38.22C46.7805 37.4304 45.4879 35.8675 44.4415 35.4612C43.3952 35.055 42.0153 35.8627 42.644 37.1472Z" fill="#DD980E"/>
<path d="M33.8213 35.7569C33.0581 35.0037 32.1884 35.133 31.3476 35.6731C29.8448 36.6387 28.4351 38.9175 27.8938 39.8167C26.8871 41.4901 26.1554 43.2945 25.5116 45.1291C24.8939 46.8895 24.3491 48.6829 23.8921 50.4903C23.6713 51.363 23.4991 52.2523 23.3678 53.1416C23.2736 53.7791 23.1186 54.537 23.2026 55.1933C23.2561 56.5849 24.1263 57.8181 25.5185 58.1959C27.0097 58.6007 29.1628 57.7056 29.3986 56.021C29.4385 55.7375 29.4653 55.4644 29.4867 55.1924C29.4949 55.1924 29.5031 55.1924 29.5113 55.1924C29.5091 55.1357 29.5053 55.079 29.5004 55.0229C29.5215 54.7168 29.5357 54.4113 29.5482 54.0937C29.5529 54.0265 29.5553 53.9804 29.5561 53.9537C29.5798 53.7794 29.6017 53.6046 29.6166 53.4292C29.6221 53.3661 29.6685 52.9964 29.6772 52.9072C29.7059 52.7284 29.7362 52.5497 29.7672 52.3711C30.078 50.5889 30.5044 48.8153 30.8876 47.0465C31.2329 45.4524 31.6588 43.8645 32.1494 42.3081C32.3924 41.5374 32.7115 40.796 32.9771 40.0339C33.2505 39.2501 33.3259 38.77 33.8214 38.1455C34.3958 37.4218 34.5399 36.4665 33.8213 35.7569Z" fill="#F06C6C"/>
<mask id="mask1_0_4403" style="mask-type:alpha" maskUnits="userSpaceOnUse" x="29" y="33" width="18" height="25">
<path fill-rule="evenodd" clip-rule="evenodd" d="M45.9829 38.3111C45.5131 37.0356 45.0101 36.1052 44.2251 35.5649C42.3868 34.3005 40.3845 33.8428 38.462 33.2184C38.3768 33.1911 38.2979 33.1872 38.2259 33.2016C38.1528 33.1851 38.074 33.1867 37.9883 33.212C36.0488 33.7814 34.0338 34.1825 32.1581 35.3942C31.3572 35.9119 30.8273 36.8276 30.3206 38.0895C29.9705 38.9605 29.611 39.9952 29.47 41.0952L29.87 57.8896L46.583 57.9067L46.7459 41.3395C46.6369 40.2357 46.3072 39.1919 45.9829 38.3111Z" fill="white"/>
</mask>
<g mask="url(#mask1_0_4403)">
<path d="M45.9829 38.3111C45.5131 37.0356 45.0101 36.1052 44.2251 35.5649C42.3868 34.3005 40.3845 33.8428 38.462 33.2184C38.3768 33.1911 38.2979 33.1872 38.2259 33.2016C38.1528 33.1851 38.074 33.1867 37.9883 33.212C36.0488 33.7814 34.0338 34.1825 32.1581 35.3942C31.3572 35.9119 30.8273 36.8276 30.3206 38.0895C29.9705 38.9605 29.611 39.9952 29.47 41.0952L29.87 57.8896L46.583 57.9067L46.7459 41.3395C46.6369 40.2357 46.3072 39.1919 45.9829 38.3111Z" fill="#EFB126"/>
</g>
<mask id="mask2_0_4403" style="mask-type:alpha" maskUnits="userSpaceOnUse" x="29" y="33" width="18" height="25">
<path fill-rule="evenodd" clip-rule="evenodd" d="M45.9829 38.3111C45.5131 37.0356 45.0101 36.1052 44.2251 35.5649C42.3868 34.3005 40.3845 33.8428 38.462 33.2184C38.3768 33.1911 38.2979 33.1872 38.2259 33.2016C38.1528 33.1851 38.074 33.1867 37.9883 33.212C36.0488 33.7814 34.0338 34.1825 32.1581 35.3942C31.3572 35.9119 30.8273 36.8276 30.3206 38.0895C29.9705 38.9605 29.611 39.9952 29.47 41.0952L29.87 57.8896L46.583 57.9067L46.7459 41.3395C46.6369 40.2357 46.3072 39.1919 45.9829 38.3111Z" fill="white"/>
</mask>
<g mask="url(#mask2_0_4403)">
<path d="M44.2674 30.998L38.1552 49.2532L32.043 30.998H44.2674Z" fill="#FFF1DA"/>
</g>
<mask id="mask3_0_4403" style="mask-type:alpha" maskUnits="userSpaceOnUse" x="29" y="33" width="18" height="25">
<path fill-rule="evenodd" clip-rule="evenodd" d="M45.9829 38.3111C45.5131 37.0356 45.0101 36.1052 44.2251 35.5649C42.3868 34.3005 40.3845 33.8428 38.462 33.2184C38.3768 33.1911 38.2979 33.1872 38.2259 33.2016C38.1528 33.1851 38.074 33.1867 37.9883 33.212C36.0488 33.7814 34.0338 34.1825 32.1581 35.3942C31.3572 35.9119 30.8273 36.8276 30.3206 38.0895C29.9705 38.9605 29.611 39.9952 29.47 41.0952L29.87 57.8896L46.583 57.9067L46.7459 41.3395C46.6369 40.2357 46.3072 39.1919 45.9829 38.3111Z" fill="white"/>
</mask>
<g mask="url(#mask3_0_4403)">
<path d="M41.2352 33.6779C41.2352 35.0728 39.8352 36.2035 38.108 36.2035C36.3808 36.2035 34.9807 35.0726 34.9807 33.6779C34.9807 32.283 36.3808 31.1521 38.108 31.1521C39.8352 31.1521 41.2352 32.283 41.2352 33.6779Z" fill="#F6A46E"/>
</g>
<rect x="36.3682" y="28.4963" width="3.61516" height="6.15514" fill="#F6A46E"/>
<path d="M36.3682 31.6635C36.9226 31.8331 37.5661 31.9307 38.2529 31.9307C38.877 31.9307 39.4651 31.85 39.9833 31.7083V29.4318H36.3682V31.6635H36.3682Z" fill="#F6A46E"/>
<path d="M44.2064 17.0781C43.9581 14.3992 39.8897 13.231 37.7893 13.2487C35.4704 13.2684 32.2638 14.3164 32.0072 17.0816C31.8535 18.7403 31.7621 20.4139 31.7874 22.08C31.81 23.5854 31.6958 25.306 32.1782 26.7528C32.9233 28.9875 35.7717 29.5329 37.7714 30.0883C37.8908 30.1215 38.0027 30.1308 38.1068 30.1226C38.211 30.1308 38.3231 30.1215 38.4424 30.0883C40.4359 29.5345 43.1207 29.0199 43.9813 26.8877C44.5365 25.5111 44.3839 23.7865 44.4215 22.3323C44.4665 20.5821 44.3681 18.8205 44.2064 17.0781Z" fill="#FFB381"/>
<path d="M31.7564 21.4741C30.6765 20.5084 29.0728 20.452 29.1575 22.3082C29.1854 22.9022 29.4452 23.475 29.8754 23.8914C30.442 24.44 31.2465 24.5568 31.996 24.407C32.414 24.3232 32.7068 23.8883 32.7068 23.4851C32.707 22.6703 32.2975 21.9581 31.7564 21.4741Z" fill="#FFB381"/>
<path d="M44.4592 21.4741C45.5393 20.5084 47.1428 20.452 47.0581 22.3082C47.0302 22.9022 46.7701 23.475 46.3401 23.8914C45.7734 24.44 44.9692 24.5568 44.2197 24.407C43.8015 24.3232 43.5088 23.8883 43.5088 23.4851C43.5088 22.6703 43.9181 21.9581 44.4592 21.4741Z" fill="#FFB381"/>
<path d="M45.4024 16.0681C43.9316 13.0939 39.738 10.5279 36.4072 11.3437C33.2718 12.1115 30.5204 15.4038 34.0078 17.7776C34.6202 18.1944 35.2908 18.2216 35.9951 18.1061C36.3167 18.0536 36.6801 17.9099 37.0094 17.9536C37.014 17.9542 37.0175 17.9542 37.0217 17.9546C37.0665 18.1015 37.0482 18.282 37.0681 18.4346C37.3266 20.4185 39.0842 20.6028 40.7877 20.5911C41.2487 20.5879 41.5477 20.6569 41.9394 20.895C42.2885 21.1077 42.6327 21.3539 43.0299 21.4748C43.9865 21.766 44.9349 21.3727 45.5037 20.5732C46.3984 19.3156 46.0442 17.3661 45.4024 16.0681Z" fill="#913107"/>
<path d="M32.2319 22.7825C32.6309 22.5698 32.6724 21.9588 32.7001 21.56C32.7426 20.9473 32.8002 20.3361 32.879 19.7267C33.0459 18.4344 33.172 17.1203 33.9407 16.0157C34.5814 15.0952 33.0273 14.187 32.4199 15.1381C31.5895 16.4386 31.3879 18.027 31.3015 19.5311C31.2767 19.961 31.1911 23.3369 32.2319 22.7825Z" fill="#913107"/>
<path d="M43.8104 22.7825C43.4113 22.5698 43.3698 21.9588 43.3423 21.56C43.2998 20.9473 43.242 20.3361 43.1632 19.7267C42.9963 18.4344 42.8702 17.1203 42.1017 16.0157C41.461 15.0952 43.0151 14.187 43.6225 15.1381C44.4529 16.4386 44.6545 18.027 44.7407 19.5311C44.7654 19.961 44.8512 23.3369 43.8104 22.7825Z" fill="#913107"/>
<path d="M33.5091 20.7364C33.7243 20.3641 34.0645 20.1593 34.4583 20.0013C34.807 19.8615 35.2591 19.9301 35.4991 19.6137C35.5606 19.5327 35.5222 19.4232 35.4652 19.3547C35.1512 18.9776 34.4541 19.2837 34.0915 19.4418C33.6213 19.6469 33.2715 20.1009 33.1133 20.5716C33.0349 20.8047 33.3889 20.9441 33.5091 20.7364Z" fill="#913107"/>
<path d="M36.3074 26.662L40.5718 26.2411C40.5718 26.2411 38.4395 28.7667 36.3074 26.662Z" fill="white"/>
<path d="M34.7825 22.6781C34.7825 23.2897 35.005 23.7856 35.2801 23.7856C35.5548 23.7856 35.7775 23.2897 35.7775 22.6781C35.7775 22.0665 35.5546 21.5708 35.2801 21.5708C35.005 21.5708 34.7825 22.0665 34.7825 22.6781Z" fill="#804B22"/>
<path d="M41.4334 22.6781C41.4334 23.2897 41.2107 23.7856 40.9358 23.7856C40.6609 23.7856 40.4382 23.2897 40.4382 22.6781C40.4382 22.0665 40.6609 21.5708 40.9358 21.5708C41.2107 21.5708 41.4334 22.0665 41.4334 22.6781Z" fill="#804B22"/>
<path d="M13.9928 55.477C13.9942 55.8127 14.0213 56.1399 14.0689 56.4563L14.8365 79.9254L20.3022 80.3759L20.5343 63.01C20.7686 63.0382 21.0064 63.058 21.2493 63.058C21.7074 63.058 22.149 63.0012 22.5716 62.903L23.1276 80.3757H28.6091L28.8864 56.8976C28.8088 52.3123 28.8131 53.1852 28.8088 52.3123C28.7974 49.6054 27.658 50.5551 25.6908 50.5627C24.2665 50.5677 23.0448 51.7254 22.4855 53.3929C22.089 53.3077 21.6765 53.2556 21.2495 53.2556C21.0748 53.2556 20.9031 53.2645 20.732 53.2794C20.1432 51.6663 18.9308 50.5581 17.5315 50.5627C15.6389 50.5692 14.1037 52.6105 14.0033 55.1788H13.9915L13.9986 55.297C13.9975 55.3568 13.9927 55.4171 13.9928 55.477Z" fill="#353251"/>
<path opacity="0.4" d="M14.0033 55.1792H13.9915L13.9986 55.2973C13.9974 55.357 13.9925 55.4172 13.9927 55.4772C13.994 55.8129 14.0211 56.1401 14.0687 56.4565L14.1554 58.4597H28.8612L28.8863 56.898C28.8727 56.0941 28.8615 55.4589 28.8525 54.9517H14.0163C14.0106 55.0269 14.0062 55.1027 14.0033 55.1792Z" fill="#353251"/>
<path d="M29.29 34.2536C28.8204 32.8044 28.3172 31.7472 27.5323 31.1333C25.6939 29.6965 23.6917 29.1766 21.7693 28.4671C21.6843 28.436 21.6052 28.4317 21.5332 28.448C21.46 28.4293 21.3812 28.4312 21.2956 28.4598C19.356 29.107 17.341 29.5624 15.4654 30.9393C14.6645 31.5276 14.1346 32.5683 13.6279 34.0019C13.2779 34.9917 12.9181 36.1672 12.7771 37.4171L13.1773 56.4999L29.8903 56.5194L30.0532 37.695C29.944 36.4403 29.6145 35.2543 29.29 34.2536Z" fill="#FDFFFF"/>
<mask id="mask4_0_4403" style="mask-type:alpha" maskUnits="userSpaceOnUse" x="12" y="28" width="19" height="29">
<path fill-rule="evenodd" clip-rule="evenodd" d="M29.29 34.2536C28.8204 32.8044 28.3172 31.7472 27.5323 31.1333C25.6939 29.6965 23.6917 29.1766 21.7693 28.4671C21.6843 28.436 21.6052 28.4317 21.5332 28.448C21.46 28.4293 21.3812 28.4312 21.2956 28.4598C19.356 29.107 17.341 29.5624 15.4654 30.9393C14.6645 31.5276 14.1346 32.5683 13.6279 34.0019C13.2779 34.9917 12.9181 36.1672 12.7771 37.4171L13.1773 56.4999L29.8903 56.5194L30.0532 37.695C29.944 36.4403 29.6145 35.2543 29.29 34.2536Z" fill="white"/>
</mask>
<g mask="url(#mask4_0_4403)">
<path d="M29.29 34.2536C28.8204 32.8044 28.3172 31.7472 27.5323 31.1333C25.6939 29.6965 23.6917 29.1766 21.7693 28.4671C21.6843 28.436 21.6052 28.4317 21.5332 28.448C21.46 28.4293 21.3812 28.4312 21.2956 28.4598C19.356 29.107 17.341 29.5624 15.4654 30.9393C14.6645 31.5276 14.1346 32.5683 13.6279 34.0019C13.2779 34.9917 12.9181 36.1672 12.7771 37.4171L13.1773 56.4999L29.8903 56.5194L30.0532 37.695C29.944 36.4403 29.6145 35.2543 29.29 34.2536Z" fill="#FDFFFF"/>
</g>
<mask id="mask5_0_4403" style="mask-type:alpha" maskUnits="userSpaceOnUse" x="12" y="28" width="19" height="29">
<path fill-rule="evenodd" clip-rule="evenodd" d="M29.29 34.2536C28.8204 32.8044 28.3172 31.7472 27.5323 31.1333C25.6939 29.6965 23.6917 29.1766 21.7693 28.4671C21.6843 28.436 21.6052 28.4317 21.5332 28.448C21.46 28.4293 21.3812 28.4312 21.2956 28.4598C19.356 29.107 17.341 29.5624 15.4654 30.9393C14.6645 31.5276 14.1346 32.5683 13.6279 34.0019C13.2779 34.9917 12.9181 36.1672 12.7771 37.4171L13.1773 56.4999L29.8903 56.5194L30.0532 37.695C29.944 36.4403 29.6145 35.2543 29.29 34.2536Z" fill="white"/>
</mask>
<g mask="url(#mask5_0_4403)">
<rect x="9.96753" y="45.0793" width="23.6908" height="1.68681" fill="#FDFFFF"/>
</g>
<mask id="mask6_0_4403" style="mask-type:alpha" maskUnits="userSpaceOnUse" x="12" y="28" width="19" height="29">
<path fill-rule="evenodd" clip-rule="evenodd" d="M29.29 34.2536C28.8204 32.8044 28.3172 31.7472 27.5323 31.1333C25.6939 29.6965 23.6917 29.1766 21.7693 28.4671C21.6843 28.436 21.6052 28.4317 21.5332 28.448C21.46 28.4293 21.3812 28.4312 21.2956 28.4598C19.356 29.107 17.341 29.5624 15.4654 30.9393C14.6645 31.5276 14.1346 32.5683 13.6279 34.0019C13.2779 34.9917 12.9181 36.1672 12.7771 37.4171L13.1773 56.4999L29.8903 56.5194L30.0532 37.695C29.944 36.4403 29.6145 35.2543 29.29 34.2536Z" fill="white"/>
</mask>
<g mask="url(#mask6_0_4403)">
<rect x="9.96753" y="49.2966" width="23.6908" height="2.76035" fill="#FDFFFF"/>
</g>
<path fill-rule="evenodd" clip-rule="evenodd" d="M21.0787 36.3483C21.0708 36.3472 21.063 36.3461 21.0552 36.345C21.0561 36.3454 21.0569 36.3457 21.0577 36.346C21.0588 36.3465 21.0598 36.3469 21.0608 36.3474L21.1547 36.3587C21.1566 36.3589 21.1584 36.3592 21.1603 36.3594L21.1547 36.3587C21.1292 36.3556 21.1039 36.352 21.0787 36.3483ZM34.0085 45.4995C33.977 45.4931 33.9739 45.489 34.0209 45.4934L34.0085 45.4995Z" fill="#86B8C3"/>
<path d="M15.4046 30.4543C13.1864 31.2763 11.5512 32.8435 10.3163 34.8285C9.08293 36.8111 8.20914 39.0424 7.55974 41.2738C6.80019 43.8826 6.36954 46.564 6.09192 49.2614C5.98984 50.2532 5.92808 51.2476 5.8254 52.2396C5.71466 53.3106 5.6859 54.3819 5.94816 55.4393C6.37562 57.163 8.3103 58.1736 10.0054 57.7133C11.7151 57.2491 12.6048 55.6114 12.3543 53.9632C12.3487 53.7992 12.3534 53.6345 12.3575 53.471C12.3677 53.0606 12.392 52.6494 12.4161 52.2396C12.4693 51.3355 12.4976 50.4319 12.5441 49.5276C12.5759 48.9115 12.6228 48.2961 12.6777 47.6816C12.701 47.4212 12.729 47.1612 12.757 46.9011C12.7667 46.8102 12.8303 46.3336 12.8481 46.1897C13.0045 45.1417 13.2025 44.0963 13.3944 43.0546C13.7336 41.2144 14.2888 39.4165 14.9823 37.6774C15.0246 37.5767 15.0937 37.4112 15.117 37.3598C15.2977 36.9615 15.4848 36.5743 15.6549 36.1695C15.7565 35.9277 15.8345 35.6781 15.9229 35.4313C15.9441 35.3721 16.0805 35.047 16.1198 34.9474C16.2883 34.5921 16.4885 34.249 16.6937 33.9144C16.9657 33.4712 17.0296 33.1681 17.313 32.8981C18.0169 32.2278 17.8524 31.0448 17.0783 30.5362C16.525 30.1725 15.9576 30.2493 15.4046 30.4543Z" fill="#C1E1FA"/>
<path d="M21.4151 33.6232C24.2085 33.6232 26.5416 32.2191 27.1099 30.3454C26.2827 29.8819 25.4271 29.5495 24.564 29.2714C23.7772 29.8722 22.6579 30.2482 21.4152 30.2482C20.1648 30.2482 19.0393 29.8675 18.2517 29.2603C17.3904 29.523 16.5362 29.8462 15.707 30.3033C16.2524 32.1982 18.6007 33.6232 21.4151 33.6232Z" fill="#2A8EF2"/>
<path d="M24.5637 29.2714C23.6318 28.9712 22.6913 28.7331 21.7691 28.4607C21.6841 28.4358 21.605 28.4323 21.533 28.4454C21.4599 28.4303 21.3811 28.4318 21.2954 28.4548C20.2911 28.723 19.2666 28.9508 18.2515 29.2603C19.039 29.8677 20.1645 30.2483 21.415 30.2483C22.6577 30.2484 23.777 29.8722 24.5637 29.2714Z" fill="#F6A46E"/>
<rect x="19.6074" y="23.741" width="3.61516" height="6.15514" fill="#F6A46E"/>
<path d="M19.6074 26.9083C20.1619 27.0778 20.8052 27.1755 21.4922 27.1755C22.1162 27.1755 22.7043 27.0948 23.2226 26.9529V24.6764H19.6074V26.9083Z" fill="#F6A46E"/>
<path d="M27.4457 12.3229C27.1976 9.6439 23.1288 8.47577 21.0286 8.49348C18.7095 8.51316 15.5031 9.56116 15.2466 12.3263C15.093 13.985 15.0014 15.6586 15.0266 17.3247C15.0494 18.8301 14.935 20.5507 15.4176 21.9977C16.1627 24.2324 19.0111 24.7776 21.0108 25.3331C21.1303 25.3663 21.2422 25.3756 21.3462 25.3673C21.4504 25.3756 21.5624 25.3663 21.6819 25.3331C23.6755 24.7793 26.3603 24.2646 27.2208 22.1324C27.7762 20.7557 27.6235 19.0312 27.6611 17.5769C27.7059 15.8268 27.6072 14.0652 27.4457 12.3229Z" fill="#FFB381"/>
<path d="M25.3607 36.9136C25.452 36.0688 25.5757 35.2303 25.6514 34.3813C25.7305 33.4965 26.0743 32.5594 26.0141 31.6751C25.9986 31.4467 25.7359 31.3957 25.6043 31.5656C25.1094 32.2048 25.0392 33.1178 24.9439 33.8941C24.8189 34.9122 24.8905 35.8964 24.9009 36.9136C24.9041 37.2125 25.3302 37.1985 25.3607 36.9136Z" fill="#01387B"/>
<path d="M15.7824 16.7189C14.839 15.7532 13.4379 15.6969 13.5118 17.5531C13.5362 18.147 13.7631 18.7198 14.139 19.1363C14.6342 19.6849 15.3368 19.8017 15.992 19.6518C16.3573 19.568 16.613 19.1332 16.613 18.73C16.6128 17.915 16.255 17.2029 15.7824 16.7189Z" fill="#FFB381"/>
<path d="M26.881 16.7189C27.8246 15.7532 29.2256 15.6969 29.1515 17.5531C29.1273 18.147 28.9001 18.7198 28.5243 19.1363C28.0292 19.6849 27.3265 19.8017 26.6716 19.6518C26.3064 19.568 26.0505 19.1332 26.0505 18.73C26.0505 17.915 26.4082 17.2029 26.881 16.7189Z" fill="#FFB381"/>
<path d="M27.1739 8.64079C26.38 8.10319 25.3351 8.05979 24.4048 8.03652C23.2934 8.00844 22.4006 7.94987 21.3613 7.4791C20.892 7.26647 20.4486 7.09994 19.9262 7.08582C19.1343 7.06435 18.3983 7.39291 17.6394 7.56185C15.8612 7.95768 14.4054 7.03551 13.0178 6.06589C12.7449 5.87518 12.2887 6.12656 12.3226 6.46023C12.7663 10.818 17.9404 12.558 21.5672 12.9692C22.7516 13.1034 24.0247 13.21 25.2146 13.1243C26.3978 13.039 27.4582 12.5556 27.8699 11.3957C28.2143 10.4254 28.0795 9.25376 27.1739 8.64079Z" fill="#01387B"/>
<ellipse cx="18.4778" cy="17.6352" rx="0.517061" ry="1.09065" fill="#062544"/>
<path d="M17.2363 15.8847C17.7109 15.5332 18.5781 15.4206 19.2032 15.4061C20.0565 15.3865 20.0589 14.3262 19.2032 14.346C18.2706 14.3676 17.0627 14.8198 16.6401 15.5171C16.4539 15.8245 16.9103 16.126 17.2363 15.8847Z" fill="#01387B"/>
<path d="M25.3407 15.8847C24.8661 15.5332 23.9988 15.4206 23.3738 15.4061C22.5205 15.3865 22.5181 14.3262 23.3738 14.346C24.3064 14.3676 25.5143 14.8198 25.9369 15.5171C26.123 15.8245 25.6667 16.126 25.3407 15.8847Z" fill="#01387B"/>
<path d="M24.8735 17.6352C24.8735 18.2375 24.6421 18.7259 24.3564 18.7259C24.0709 18.7259 23.8394 18.2377 23.8394 17.6352C23.8394 17.0329 24.0709 16.5446 24.3564 16.5446C24.6419 16.5447 24.8735 17.0329 24.8735 17.6352Z" fill="#062544"/>
<path d="M18.9773 21.6033L23.4081 21.7219C23.4083 21.7219 21.6591 24.8093 18.9773 21.6033Z" fill="white"/>
<path d="M27.8508 48.6892C27.479 47.3944 25.6013 47.3049 25.1029 48.5042C25.0128 48.6202 25.0136 48.6164 25.1096 48.4873C25.0008 48.6142 24.8773 48.7319 24.7591 48.8502C24.4934 49.1166 24.2057 49.3566 23.9551 49.6375C23.207 50.4768 22.5251 51.3786 21.8793 52.2961C20.6283 54.0736 19.5978 55.9881 18.6787 57.95C17.722 59.9924 16.9857 62.1237 16.5065 64.3238C16.1239 66.0814 15.6563 67.9749 15.7456 69.7983C15.3725 69.9281 15.0979 70.1898 15.0393 70.5297L14.788 71.9863C14.7722 72.0776 14.7745 72.1687 14.7898 72.2582C14.4751 72.5519 14.1432 72.8293 13.8785 73.1711C13.468 73.7006 14.2711 74.3662 14.6818 73.8359C14.9045 73.5484 15.1742 73.3068 15.4423 73.0623C15.4596 73.0715 15.4773 73.0805 15.4951 73.0892C15.3647 73.4606 15.2342 73.8315 15.1041 74.2026C14.8845 74.8278 15.8325 75.2707 16.0535 74.6413C16.2065 74.2062 16.3599 73.7702 16.5128 73.3349L16.7136 73.369C16.6249 73.8208 16.5278 74.2712 16.4139 74.7179C16.249 75.3657 17.2834 75.5347 17.4474 74.8917C17.5665 74.4229 17.6677 73.9504 17.7597 73.4768C17.7743 73.4752 17.7906 73.4741 17.8056 73.472C17.9062 73.8327 18.034 74.1865 18.1639 74.5385C18.396 75.1651 19.3777 74.8016 19.1454 74.1737C18.9907 73.7548 18.8323 73.3361 18.7397 72.9005C18.7788 72.8269 18.8067 72.7485 18.8214 72.6649L18.8936 72.2479C19.1642 72.375 19.4394 72.4931 19.7224 72.5926C19.9912 72.6872 20.2896 72.6165 20.4192 72.3432C20.5312 72.1065 20.4357 71.7502 20.1666 71.6553C19.7919 71.5232 19.4303 71.361 19.0754 71.1842C19.1369 70.7496 18.8293 70.3211 18.337 70.0921C18.6756 68.3399 18.8869 66.566 19.3313 64.8298C19.8638 62.749 20.675 60.7298 21.6213 58.8007C22.5806 56.845 23.6716 54.9671 24.9651 53.2067C25.4821 52.503 26.041 51.8264 26.6845 51.2323C27.4034 50.5677 28.1523 49.7391 27.8508 48.6892Z" fill="#FFB381"/>
<rect x="28.948" y="42.1866" width="3.148" height="5.36002" fill="#F6A46E"/>
<path d="M28.948 44.9449C29.4308 45.0926 29.9909 45.1775 30.5892 45.1775C31.1326 45.1775 31.6447 45.1073 32.0962 44.9838V43.0013H28.9482V44.9449H28.948Z" fill="#F6A46E"/>
<path d="M35.7734 32.2436C35.5576 29.9106 32.0142 28.8934 30.1854 28.9089C28.166 28.926 25.374 29.8385 25.1505 32.2466C25.0165 33.691 24.9369 35.1484 24.959 36.5992C24.9789 37.9103 24.8793 39.4085 25.2993 40.6685C25.9481 42.6143 28.4286 43.0893 30.1699 43.573C30.2741 43.6018 30.3715 43.6099 30.4621 43.6027C30.5529 43.6099 30.6503 43.6018 30.7545 43.573C32.4904 43.0907 34.8286 42.6426 35.5777 40.7858C36.0614 39.587 35.9283 38.0852 35.9609 36.8187C36.0003 35.295 35.9142 33.7609 35.7734 32.2436Z" fill="#FFB381"/>
<path d="M24.9319 36.0717C23.9916 35.2308 22.5953 35.1817 22.6688 36.7981C22.6931 37.3152 22.9195 37.8141 23.294 38.1767C23.7875 38.6544 24.4879 38.7562 25.1409 38.6256C25.505 38.5526 25.7598 38.1739 25.7598 37.8228C25.7598 37.1133 25.4032 36.4932 24.9319 36.0717Z" fill="#FFB381"/>
<path d="M35.9938 36.0717C36.9342 35.2308 38.3305 35.1817 38.2572 36.7981C38.2329 37.3152 38.0065 37.8141 37.6318 38.1767C37.1384 38.6544 36.438 38.7562 35.7851 38.6256C35.4211 38.5526 35.1663 38.1739 35.1663 37.8228C35.1661 37.1133 35.5225 36.4932 35.9938 36.0717Z" fill="#FFB381"/>
<path d="M27.5669 36.6013C27.5669 37.0982 27.7608 37.5009 28.0001 37.5009C28.2394 37.5009 28.4334 37.0982 28.4334 36.6013C28.4334 36.1044 28.2394 35.7017 28.0001 35.7017C27.761 35.7017 27.5669 36.1046 27.5669 36.6013Z" fill="#062544"/>
<path d="M33.3588 36.6013C33.3588 37.0982 33.1647 37.5009 32.9254 37.5009C32.6864 37.5009 32.4922 37.0982 32.4922 36.6013C32.4922 36.1044 32.6863 35.7017 32.9254 35.7017C33.1647 35.7017 33.3588 36.1046 33.3588 36.6013Z" fill="#062544"/>
<path d="M28.2939 39.9272L32.428 40.0346C32.428 40.0346 30.7959 42.8266 28.2939 39.9272Z" fill="#A33F27"/>
<path d="M28.4478 33.8443C28.0051 33.8669 27.5932 33.97 27.1794 34.1242C26.8206 34.2581 26.3259 34.4002 26.1389 34.7546C26.0812 34.8637 26.1258 35.024 26.2614 35.0518C26.5857 35.1183 26.8563 34.9547 27.1458 34.8233C27.558 34.6362 27.9931 34.494 28.448 34.466C28.8503 34.441 28.8546 33.8234 28.4478 33.8443Z" fill="#01387B"/>
<path d="M32.2628 33.8443C32.7055 33.8669 33.1174 33.97 33.5312 34.1242C33.89 34.2581 34.3847 34.4002 34.5718 34.7546C34.6296 34.8637 34.5849 35.024 34.4494 35.0518C34.1251 35.1183 33.8544 34.9547 33.5649 34.8233C33.1525 34.6362 32.7176 34.494 32.2626 34.466C31.8603 34.441 31.8559 33.8234 32.2628 33.8443Z" fill="#01387B"/>
<path d="M36.1218 29.2344C35.8627 27.6802 34.5406 26.6933 33.0322 26.5647C31.7249 26.4532 29.9628 26.6975 28.8583 27.5205C28.1731 27.3506 27.334 27.4919 26.7214 27.6016C25.8133 27.7643 24.8535 28.0439 24.1031 28.5945C23.3722 29.1312 22.7999 30.6162 23.9367 31.128C24.0287 31.1694 24.1188 31.1995 24.2079 31.2245C24.1926 31.243 24.1755 31.26 24.1605 31.2789C23.7622 31.7782 23.8933 32.4364 24.5294 32.6579C25.7075 33.0681 26.695 32.3985 27.7438 32.0104C27.6117 32.8975 27.6888 33.7749 28.7874 33.9901C29.7239 34.1735 30.6859 33.4082 31.483 32.7056C31.8402 33.3049 32.666 33.6039 33.5099 33.2021C35.0414 32.473 36.4142 30.9892 36.1218 29.2344Z" fill="#01387B"/>
<path d="M16.202 13.1551C16.4052 11.6773 17.6369 10.3245 17.4822 8.84749C17.4424 8.46601 14.9609 8.21258 14.6229 8.49649C13.3519 9.56393 13.509 10.7176 13.9169 12.3539C14.3144 13.9488 14.5964 15.8979 14.6229 17.5969C14.6311 18.096 15.7255 18.0727 15.8041 17.5969C16.0385 16.1858 16.0075 14.5731 16.202 13.1551Z" fill="#01387B"/>
<path d="M26.1786 13.1551C25.9754 11.6773 24.7437 10.3245 24.8984 8.84749C24.9383 8.46601 27.4197 8.21258 27.7577 8.49649C29.0287 9.56393 28.8716 10.7176 28.4637 12.3539C28.0662 13.9488 27.7843 15.8979 27.7577 17.5969C27.7495 18.096 26.6551 18.0727 26.5765 17.5969C26.3421 16.1858 26.3732 14.5731 26.1786 13.1551Z" fill="#01387B"/>
<path d="M35.766 36.9136C35.6747 36.0688 35.551 35.2303 35.4753 34.3813C35.396 33.4965 35.0524 32.5594 35.1125 31.6751C35.128 31.4467 35.3907 31.3957 35.5223 31.5656C36.0171 32.2048 36.0874 33.1178 36.1827 33.8941C36.3077 34.9122 36.2362 35.8964 36.2257 36.9136C36.2227 37.2125 35.7966 37.1985 35.766 36.9136Z" fill="#01387B"/>
<path d="M25.3744 36.9136C25.4657 36.0688 25.5893 35.2303 25.6651 34.3813C25.7443 33.4965 26.088 32.5594 26.0279 31.6751C26.0124 31.4467 25.7497 31.3957 25.6181 31.5656C25.1232 32.2048 25.053 33.1178 24.9577 33.8941C24.8327 34.9122 24.9042 35.8964 24.9147 36.9136C24.9177 37.2125 25.3438 37.1985 25.3744 36.9136Z" fill="#01387B"/>
<path d="M31.7739 40.0176L29.2539 39.9521C30.3429 40.7273 31.2106 40.4387 31.7739 40.0176Z" fill="white"/>
<path d="M29.3706 48.0693C28.9518 47.3635 28.2587 46.8354 27.4593 46.6184C26.5483 46.3711 25.8263 46.5875 24.995 46.9366C22.0277 48.1827 20.1126 50.7544 18.5222 53.4154L22.9325 58.3208C23.1111 58.1405 23.271 57.9388 23.4006 57.7109C23.7242 57.1422 24.046 56.5728 24.3847 56.0125C24.5479 55.7425 24.7186 55.4773 24.8926 55.2139C24.9787 55.0837 25.337 54.6027 25.4129 54.4903C25.797 54.036 26.2183 53.6143 26.672 53.2274C26.8046 53.1361 26.94 53.0488 27.0766 52.9637C27.4399 52.7372 27.8285 52.5548 28.2233 52.389C29.8286 51.7146 30.1668 49.411 29.3706 48.0693Z" fill="#C9F4F1"/>
<path d="M42.9073 71.1918C42.4124 69.0863 42.2191 66.9299 41.6815 64.8295C41.1488 62.7487 40.3377 60.7296 39.3913 58.8004C38.432 56.8448 37.3409 54.9668 36.0475 53.2064C35.5305 52.5027 34.9716 51.8261 34.3283 51.232C33.6089 50.5679 32.8601 49.7392 33.1615 48.6894C33.5515 47.331 35.6003 47.298 35.9734 48.6894C35.8915 48.5492 35.8096 48.4089 35.7275 48.2687C35.9847 48.6034 36.0431 48.6764 35.9026 48.4875C36.0115 48.6143 36.1348 48.7321 36.2529 48.8504C36.519 49.1168 36.8066 49.3568 37.057 49.6377C37.8051 50.477 38.4871 51.3787 39.1329 52.2963C40.3839 54.0738 41.4144 55.9882 42.3335 57.9502C43.2902 59.9926 44.0265 62.1239 44.5053 64.3239C44.9135 66.198 45.4179 68.2261 45.2413 70.1597C45.187 70.7521 45.1178 71.6839 44.4163 71.898C44.0359 72.0139 43.0057 71.6113 42.9073 71.1918Z" fill="#FFB381"/>
<path d="M31.6421 48.0693C32.0609 47.3635 32.7539 46.8354 33.5533 46.6184C34.4644 46.3711 35.1864 46.5875 36.0177 46.9366C38.985 48.1827 40.9 50.7544 42.4905 53.4154L38.0802 58.3208C37.9017 58.1405 37.7417 57.9388 37.6121 57.7109C37.2885 57.1422 36.9666 56.5728 36.628 56.0125C36.4648 55.7425 36.2941 55.4773 36.1201 55.2139C36.034 55.0837 35.6756 54.6027 35.5998 54.4903C35.2157 54.036 34.7943 53.6143 34.3407 53.2274C34.2082 53.1361 34.0727 53.0488 33.9361 52.9637C33.573 52.7372 33.184 52.5548 32.7895 52.389C31.184 51.7146 30.8459 49.411 31.6421 48.0693Z" fill="#C9F4F1"/>
<path d="M36.7833 49.1216C36.4293 48.2401 35.9151 47.4251 35.3063 47.0129C33.8507 46.0276 32.2656 45.6711 30.7433 45.1842C30.6761 45.1629 30.6134 45.1599 30.5565 45.1712C30.4984 45.1582 30.436 45.1596 30.3683 45.1791C28.8325 45.6232 27.2368 45.9356 25.7516 46.8802C24.4668 47.698 23.8061 49.9179 23.6228 51.324L23.9397 64.4153L37.1736 64.4289C37.1736 64.4289 37.3028 51.5149 37.3028 51.5146C37.3096 50.8473 37.1179 49.9548 36.7833 49.1216Z" fill="#8DE2DA"/>
<path d="M30.5877 47.2746C32.1277 47.2746 33.4179 46.8118 33.7648 46.1891C32.7667 45.7677 31.7416 45.5034 30.7434 45.1843C30.6761 45.163 30.6134 45.16 30.5565 45.1713C30.4984 45.1584 30.4361 45.1597 30.3684 45.1792C29.3756 45.4664 28.3579 45.6993 27.3611 46.0826C27.6127 46.7585 28.9612 47.2746 30.5877 47.2746Z" fill="#F6A46E"/>
<path d="M21.2303 17.8845C21.2163 18.1228 21.1681 18.3409 21.1124 18.554C21.0555 18.766 20.9872 18.9713 20.9187 19.1699C20.8841 19.2687 20.8503 19.3673 20.8227 19.4587C20.8071 19.5048 20.7986 19.5484 20.7897 19.5832C20.7856 19.6003 20.7847 19.6141 20.7815 19.6164C20.7794 19.6149 20.7776 19.6185 20.7703 19.6062C20.757 19.5928 20.7646 19.606 20.7697 19.6135C20.8442 19.7488 21.0322 19.8792 21.2306 20.0062C21.1116 20.0377 20.9899 20.0352 20.8658 20.0166C20.743 19.9939 20.615 19.9485 20.5013 19.8487C20.4821 19.8428 20.4163 19.7485 20.4091 19.7041C20.3938 19.6527 20.3901 19.6111 20.3877 19.5733C20.3836 19.4982 20.3906 19.4323 20.3994 19.371C20.4178 19.247 20.4502 19.1348 20.487 19.0252C20.5628 18.8071 20.6639 18.6047 20.7849 18.4131C20.9073 18.2224 21.0467 18.0408 21.2303 17.8845Z" fill="#FF8C52"/>
<path d="M38.2488 23.1229C38.2348 23.3612 38.1866 23.5793 38.1309 23.7924C38.074 24.0044 38.0057 24.2097 37.9373 24.4083C37.9026 24.5072 37.8688 24.6057 37.8413 24.6971C37.8256 24.7432 37.8171 24.7868 37.8083 24.8216C37.8042 24.8387 37.8033 24.8525 37.8001 24.8548C37.7979 24.8533 37.7961 24.8569 37.7888 24.8446C37.7756 24.8312 37.7832 24.8444 37.7882 24.8519C37.8628 24.9872 38.0508 25.1176 38.2491 25.2446C38.1302 25.2762 38.0085 25.2736 37.8844 25.255C37.7616 25.2323 37.6335 25.187 37.5199 25.0871C37.5007 25.0812 37.4348 24.9869 37.4277 24.9425C37.4123 24.8911 37.4087 24.8495 37.4062 24.8117C37.4021 24.7366 37.4091 24.6707 37.4179 24.6094C37.4364 24.4854 37.4688 24.3732 37.5056 24.2636C37.5813 24.0455 37.6825 23.8431 37.8034 23.6515C37.9259 23.4608 38.0652 23.2792 38.2488 23.1229Z" fill="#FF8C52"/>
<path d="M30.6284 37.1327C30.5987 37.3324 30.5473 37.5191 30.4907 37.7021C30.4343 37.8852 30.3727 38.0646 30.3118 38.2399C30.2812 38.3273 30.2522 38.4147 30.2286 38.4978C30.2006 38.5785 30.1955 38.6716 30.1976 38.6669C30.28 38.7901 30.4515 38.8922 30.6284 38.985C30.5263 39.0023 30.423 38.9943 30.319 38.973C30.2169 38.9474 30.1101 38.9072 30.0201 38.8225C30.003 38.8147 29.9559 38.7473 29.9496 38.712C29.9381 38.6722 29.9359 38.6387 29.9347 38.6079C29.9337 38.5468 29.9385 38.4915 29.9466 38.4394C29.9632 38.3345 29.9919 38.2379 30.0237 38.1433C30.0887 37.9548 30.1749 37.7783 30.2738 37.6089C30.3731 37.4398 30.4855 37.2776 30.6284 37.1327Z" fill="#FF8C52"/>
</g>
</svg>
