<svg xmlns="http://www.w3.org/2000/svg" xmlns:xlink="http://www.w3.org/1999/xlink" width="500" zoomAndPan="magnify" viewBox="0 0 375 374.999991" height="500" preserveAspectRatio="xMidYMid meet" version="1.0"><defs><g/><clipPath id="a37c5acfe7"><path d="M 51.339844 30.234375 L 323.660156 30.234375 L 323.660156 302.554688 L 51.339844 302.554688 Z M 51.339844 30.234375 " clip-rule="nonzero"/></clipPath><clipPath id="4c7552dbea"><path d="M 187.5 30.234375 C 112.300781 30.234375 51.339844 91.195312 51.339844 166.394531 C 51.339844 241.59375 112.300781 302.554688 187.5 302.554688 C 262.699219 302.554688 323.660156 241.59375 323.660156 166.394531 C 323.660156 91.195312 262.699219 30.234375 187.5 30.234375 " clip-rule="nonzero"/></clipPath><clipPath id="da3a37d68a"><path d="M 51.339844 30.234375 L 323.589844 30.234375 L 323.589844 302.484375 L 51.339844 302.484375 Z M 51.339844 30.234375 " clip-rule="nonzero"/></clipPath><clipPath id="0fe3f9a4ee"><path d="M 187.464844 30.234375 C 112.285156 30.234375 51.339844 91.179688 51.339844 166.359375 C 51.339844 241.539062 112.285156 302.484375 187.464844 302.484375 C 262.644531 302.484375 323.589844 241.539062 323.589844 166.359375 C 323.589844 91.179688 262.644531 30.234375 187.464844 30.234375 " clip-rule="nonzero"/></clipPath><clipPath id="a583d1a4e7"><path d="M 110.980469 89.875 L 263.980469 89.875 L 263.980469 242.875 L 110.980469 242.875 Z M 110.980469 89.875 " clip-rule="nonzero"/></clipPath></defs><g clip-path="url(#a37c5acfe7)"><g clip-path="url(#4c7552dbea)"><path fill="#7304d7" d="M 51.339844 30.234375 L 323.660156 30.234375 L 323.660156 302.554688 L 51.339844 302.554688 Z M 51.339844 30.234375 " fill-opacity="1" fill-rule="nonzero"/></g></g><g clip-path="url(#da3a37d68a)"><g clip-path="url(#0fe3f9a4ee)"><path stroke-linecap="butt" transform="matrix(0.749806, 0, 0, 0.749806, 51.339632, 30.234668)" fill="none" stroke-linejoin="miter" d="M 181.547165 -0.000390574 C 81.281689 -0.000390574 0.000281968 81.281016 0.000281968 181.546492 C 0.000281968 281.811968 81.281689 363.093375 181.547165 363.093375 C 281.812641 363.093375 363.094048 281.811968 363.094048 181.546492 C 363.094048 81.281016 281.812641 -0.000390574 181.547165 -0.000390574 " stroke="#000000" stroke-width="24" stroke-opacity="1" stroke-miterlimit="4"/></g></g><g clip-path="url(#a583d1a4e7)"><path fill="#ffffff" d="M 257.339844 129.683594 L 257.339844 116.433594 L 244.058594 116.433594 L 244.058594 103.15625 L 217.527344 103.15625 L 217.527344 89.875 L 157.398438 89.875 L 157.398438 103.15625 L 130.867188 103.15625 L 130.867188 116.433594 L 117.621094 116.433594 L 117.621094 129.683594 L 110.980469 129.683594 L 110.980469 203.0625 L 124.257812 203.0625 L 124.257812 216.34375 L 130.867188 216.34375 L 130.867188 229.59375 L 144.148438 229.59375 L 144.148438 242.875 L 230.808594 242.875 L 230.808594 229.59375 L 244.058594 229.59375 L 244.058594 216.34375 L 250.699219 216.34375 L 250.699219 203.0625 L 263.980469 203.0625 L 263.980469 129.683594 Z M 257.339844 129.683594 " fill-opacity="1" fill-rule="nonzero"/></g><path fill="#000000" d="M 253.820312 133.203125 L 253.820312 119.953125 L 247.179688 119.953125 L 240.539062 119.921875 L 240.539062 106.671875 L 214.007812 106.671875 L 214.007812 93.394531 L 160.917969 93.394531 L 160.917969 106.671875 L 134.386719 106.671875 L 134.386719 119.921875 L 127.746094 119.953125 L 121.136719 119.953125 L 121.136719 133.203125 L 114.496094 133.203125 L 114.496094 199.542969 L 127.777344 199.542969 L 127.777344 212.824219 L 134.386719 212.824219 L 134.386719 226.074219 L 147.667969 226.074219 L 147.667969 239.355469 L 227.289062 239.355469 L 227.289062 226.074219 L 240.539062 226.074219 L 240.539062 212.824219 L 247.179688 212.824219 L 247.179688 199.542969 L 260.460938 199.542969 L 260.460938 133.203125 Z M 253.820312 133.203125 " fill-opacity="1" fill-rule="nonzero"/><path fill="#7304d7" d="M 247.179688 133.203125 L 247.179688 186.265625 L 233.898438 186.265625 L 233.898438 212.824219 L 220.617188 212.824219 L 220.617188 186.265625 L 207.339844 186.265625 L 207.339844 199.542969 L 167.496094 199.542969 L 167.496094 186.265625 L 154.214844 186.265625 L 154.214844 212.824219 L 140.9375 212.824219 L 140.9375 186.265625 L 127.65625 186.265625 L 127.65625 133.171875 L 140.9375 133.171875 L 140.9375 119.894531 L 167.496094 119.894531 L 167.496094 106.671875 L 187.417969 106.671875 L 187.417969 106.703125 L 187.417969 106.671875 L 207.339844 106.671875 L 207.339844 119.953125 L 233.898438 119.953125 L 233.898438 133.234375 L 240.539062 133.234375 Z M 214.007812 212.824219 L 154.246094 212.824219 L 154.246094 226.105469 L 220.648438 226.105469 L 220.648438 212.824219 Z M 214.007812 212.824219 " fill-opacity="1" fill-rule="nonzero"/><path fill="#fc5658" d="M 233.898438 159.734375 L 233.898438 173.015625 L 207.339844 173.015625 L 207.339844 159.734375 Z M 160.949219 159.734375 L 141.027344 159.734375 L 141.027344 173.015625 L 167.589844 173.015625 L 167.589844 159.734375 Z M 160.949219 159.734375 " fill-opacity="1" fill-rule="nonzero"/><g fill="#fc5658" fill-opacity="1"><g transform="translate(95.677037, 331.230828)"><g><path d="M 7.371094 0 L 16.628906 0 C 17.3125 0 17.886719 -0.546875 17.886719 -1.285156 L 17.914062 -11.824219 C 17.914062 -12.535156 17.367188 -13.082031 16.65625 -13.082031 L 12.097656 -13.082031 C 11.414062 -13.082031 10.8125 -12.5625 10.8125 -11.824219 L 10.8125 -7.398438 C 10.8125 -6.71875 10.242188 -6.171875 9.558594 -6.171875 C 8.875 -6.171875 8.328125 -6.71875 8.328125 -7.398438 L 8.328125 -14.445312 C 8.328125 -15.15625 8.875 -15.703125 9.558594 -15.703125 L 16.628906 -15.703125 C 17.339844 -15.703125 17.886719 -16.246094 17.886719 -16.957031 L 17.886719 -20.589844 C 17.886719 -21.300781 17.339844 -21.847656 16.628906 -21.847656 L 7.371094 -21.847656 C 3.824219 -21.847656 1.257812 -19.277344 1.257812 -15.730469 L 1.257812 -6.144531 C 1.257812 -2.59375 3.824219 0 7.371094 0 Z M 7.371094 0 "/></g></g></g><g fill="#fc5658" fill-opacity="1"><g transform="translate(114.817634, 331.230828)"><g><path d="M 2.511719 0 L 7.074219 0 C 7.78125 0 8.328125 -0.546875 8.328125 -1.257812 L 8.328125 -4.777344 C 8.328125 -5.488281 8.875 -6.035156 9.558594 -6.035156 C 10.269531 -6.035156 10.8125 -5.460938 10.8125 -4.777344 L 10.8125 -1.257812 C 10.8125 -0.546875 11.359375 0 12.070312 0 L 16.628906 0 C 17.339844 0 17.886719 -0.546875 17.886719 -1.257812 L 17.886719 -15.730469 C 17.886719 -19.277344 15.320312 -21.847656 11.769531 -21.847656 L 7.371094 -21.847656 C 3.824219 -21.847656 1.257812 -19.277344 1.257812 -15.730469 L 1.257812 -1.257812 C 1.257812 -0.546875 1.800781 0 2.511719 0 Z M 9.558594 -11.113281 C 8.875 -11.113281 8.328125 -11.660156 8.328125 -12.34375 L 8.328125 -14.855469 C 8.328125 -15.566406 8.875 -16.113281 9.558594 -16.113281 C 10.269531 -16.113281 10.8125 -15.566406 10.8125 -14.855469 L 10.8125 -12.34375 C 10.8125 -11.660156 10.269531 -11.113281 9.558594 -11.113281 Z M 9.558594 -11.113281 "/></g></g></g><g fill="#fc5658" fill-opacity="1"><g transform="translate(133.958232, 331.230828)"><g><path d="M 2.511719 0 L 7.074219 0 C 7.78125 0 8.328125 -0.546875 8.328125 -1.257812 L 8.328125 -13.980469 C 8.328125 -14.664062 8.875 -15.210938 9.558594 -15.210938 C 10.269531 -15.210938 10.8125 -14.664062 10.8125 -13.980469 L 10.8125 -1.257812 C 10.8125 -0.546875 11.359375 0 12.070312 0 L 16.628906 0 C 17.339844 0 17.886719 -0.574219 17.886719 -1.257812 L 17.886719 -13.980469 C 17.886719 -14.664062 18.433594 -15.210938 19.117188 -15.210938 C 19.824219 -15.210938 20.371094 -14.664062 20.371094 -13.980469 L 20.371094 -1.257812 C 20.371094 -0.546875 20.917969 0 21.628906 0 L 26.1875 0 C 26.898438 0 27.445312 -0.546875 27.445312 -1.257812 L 27.445312 -20.589844 C 27.445312 -21.300781 26.898438 -21.847656 26.1875 -21.847656 L 16.847656 -21.847656 C 16.140625 -21.847656 15.59375 -21.300781 15.59375 -20.589844 L 15.59375 -18.460938 C 15.59375 -17.777344 15.046875 -17.230469 14.335938 -17.230469 C 13.652344 -17.230469 13.109375 -17.777344 13.109375 -18.460938 L 13.109375 -20.589844 C 13.109375 -21.300781 12.5625 -21.847656 11.851562 -21.847656 L 2.511719 -21.847656 C 1.800781 -21.847656 1.257812 -21.300781 1.257812 -20.589844 L 1.257812 -1.257812 C 1.257812 -0.546875 1.800781 0 2.511719 0 Z M 2.511719 0 "/></g></g></g><g fill="#fc5658" fill-opacity="1"><g transform="translate(162.65548, 331.230828)"><g><path d="M 2.511719 0 L 20.753906 0 C 21.464844 0 22.011719 -0.546875 22.011719 -1.257812 L 22.011719 -4.503906 C 22.011719 -5.214844 21.464844 -5.761719 20.753906 -5.761719 L 9.558594 -5.761719 C 8.875 -5.761719 8.328125 -6.308594 8.328125 -6.992188 C 8.328125 -7.671875 8.875 -8.246094 9.558594 -8.246094 L 19.660156 -8.246094 C 20.371094 -8.246094 20.917969 -8.792969 20.917969 -9.503906 L 20.917969 -12.371094 C 20.917969 -13.082031 20.371094 -13.625 19.660156 -13.625 L 9.558594 -13.625 C 8.875 -13.625 8.328125 -14.171875 8.328125 -14.855469 C 8.328125 -15.566406 8.875 -16.113281 9.558594 -16.113281 L 20.753906 -16.113281 C 21.464844 -16.113281 22.011719 -16.65625 22.011719 -17.367188 L 22.011719 -20.589844 C 22.011719 -21.300781 21.464844 -21.847656 20.753906 -21.847656 L 2.511719 -21.847656 C 1.800781 -21.847656 1.257812 -21.300781 1.257812 -20.589844 L 1.257812 -1.257812 C 1.257812 -0.546875 1.800781 0 2.511719 0 Z M 2.511719 0 "/></g></g></g><g fill="#fc5658" fill-opacity="1"><g transform="translate(185.919085, 331.230828)"><g/></g></g><g fill="#fc5658" fill-opacity="1"><g transform="translate(194.547369, 331.230828)"><g><path d="M 7.371094 0 L 11.769531 0 C 15.320312 0 17.886719 -2.59375 17.886719 -6.144531 L 17.886719 -15.730469 C 17.886719 -19.277344 15.320312 -21.847656 11.769531 -21.847656 L 7.371094 -21.847656 C 3.824219 -21.847656 1.257812 -19.277344 1.257812 -15.730469 L 1.257812 -6.144531 C 1.257812 -2.59375 3.824219 0 7.371094 0 Z M 9.558594 -5.625 C 8.875 -5.625 8.328125 -6.171875 8.328125 -6.855469 L 8.328125 -14.992188 C 8.328125 -15.703125 8.875 -16.246094 9.558594 -16.246094 C 10.269531 -16.246094 10.8125 -15.703125 10.8125 -14.992188 L 10.8125 -6.855469 C 10.8125 -6.171875 10.269531 -5.625 9.558594 -5.625 Z M 9.558594 -5.625 "/></g></g></g><g fill="#fc5658" fill-opacity="1"><g transform="translate(213.687967, 331.230828)"><g><path d="M 4.886719 0 L 14.253906 0 C 14.773438 0 15.238281 -0.300781 15.375 -0.820312 L 17.667969 -8.4375 C 17.832031 -8.957031 17.886719 -9.421875 17.886719 -9.96875 L 17.886719 -20.589844 C 17.886719 -21.300781 17.339844 -21.847656 16.628906 -21.847656 L 12.070312 -21.847656 C 11.359375 -21.847656 10.8125 -21.300781 10.8125 -20.589844 L 10.8125 -7.671875 C 10.8125 -6.964844 10.269531 -6.417969 9.558594 -6.417969 C 8.875 -6.417969 8.328125 -6.964844 8.328125 -7.671875 L 8.328125 -20.589844 C 8.328125 -21.300781 7.78125 -21.847656 7.074219 -21.847656 L 2.511719 -21.847656 C 1.800781 -21.847656 1.257812 -21.300781 1.257812 -20.589844 L 1.257812 -9.96875 C 1.257812 -9.367188 1.3125 -8.957031 1.472656 -8.4375 L 3.769531 -0.820312 C 3.90625 -0.300781 4.371094 0 4.886719 0 Z M 4.886719 0 "/></g></g></g><g fill="#fc5658" fill-opacity="1"><g transform="translate(232.828564, 331.230828)"><g><path d="M 2.511719 0 L 20.753906 0 C 21.464844 0 22.011719 -0.546875 22.011719 -1.257812 L 22.011719 -4.503906 C 22.011719 -5.214844 21.464844 -5.761719 20.753906 -5.761719 L 9.558594 -5.761719 C 8.875 -5.761719 8.328125 -6.308594 8.328125 -6.992188 C 8.328125 -7.671875 8.875 -8.246094 9.558594 -8.246094 L 19.660156 -8.246094 C 20.371094 -8.246094 20.917969 -8.792969 20.917969 -9.503906 L 20.917969 -12.371094 C 20.917969 -13.082031 20.371094 -13.625 19.660156 -13.625 L 9.558594 -13.625 C 8.875 -13.625 8.328125 -14.171875 8.328125 -14.855469 C 8.328125 -15.566406 8.875 -16.113281 9.558594 -16.113281 L 20.753906 -16.113281 C 21.464844 -16.113281 22.011719 -16.65625 22.011719 -17.367188 L 22.011719 -20.589844 C 22.011719 -21.300781 21.464844 -21.847656 20.753906 -21.847656 L 2.511719 -21.847656 C 1.800781 -21.847656 1.257812 -21.300781 1.257812 -20.589844 L 1.257812 -1.257812 C 1.257812 -0.546875 1.800781 0 2.511719 0 Z M 2.511719 0 "/></g></g></g><g fill="#fc5658" fill-opacity="1"><g transform="translate(256.09217, 331.230828)"><g><path d="M 2.511719 0 L 7.074219 0 C 7.78125 0 8.328125 -0.574219 8.328125 -1.285156 L 8.328125 -6.9375 C 8.328125 -7.617188 8.875 -8.164062 9.558594 -8.164062 L 13.652344 -8.164062 C 14.363281 -8.164062 14.910156 -7.617188 14.910156 -6.9375 L 14.910156 -1.257812 C 14.910156 -0.546875 15.457031 0 16.167969 0 L 20.726562 0 C 21.4375 0 21.984375 -0.574219 21.984375 -1.285156 L 21.984375 -7.453125 C 21.984375 -8.765625 21.054688 -9.695312 19.742188 -9.695312 L 19.496094 -9.695312 C 18.816406 -9.695312 18.269531 -10.242188 18.269531 -10.921875 C 18.269531 -11.632812 18.816406 -12.179688 19.496094 -12.179688 L 19.660156 -12.179688 C 21 -12.179688 21.984375 -13.164062 21.984375 -14.5 L 21.984375 -16.847656 C 21.984375 -19.742188 19.878906 -21.847656 16.984375 -21.847656 L 2.511719 -21.847656 C 1.800781 -21.847656 1.257812 -21.300781 1.257812 -20.589844 L 1.257812 -1.257812 C 1.257812 -0.546875 1.800781 0 2.511719 0 Z M 9.558594 -13.707031 C 8.875 -13.707031 8.328125 -14.253906 8.328125 -14.9375 C 8.328125 -15.621094 8.875 -16.167969 9.558594 -16.167969 L 13.652344 -16.167969 C 14.363281 -16.167969 14.910156 -15.621094 14.910156 -14.9375 C 14.910156 -14.253906 14.363281 -13.707031 13.652344 -13.707031 Z M 9.558594 -13.707031 "/></g></g></g><path stroke-linecap="butt" transform="matrix(0.75, 0, 0, 0.75, 76.294226, 302.73083)" fill="none" stroke-linejoin="miter" d="M 35.675409 37.999521 L 48.013952 37.999521 C 48.930619 37.999521 49.691035 37.270354 49.691035 36.285979 L 49.727494 22.228687 C 49.727494 21.285978 48.998327 20.56202 48.055619 20.56202 L 41.977493 20.56202 C 41.060827 20.56202 40.263951 21.254728 40.263951 22.228687 L 40.263951 28.134937 C 40.263951 29.041187 39.498326 29.770354 38.592076 29.770354 C 37.67541 29.770354 36.946243 29.041187 36.946243 28.134937 L 36.946243 18.739103 C 36.946243 17.796395 37.67541 17.067228 38.592076 17.067228 L 48.013952 17.067228 C 48.961869 17.067228 49.691035 16.338061 49.691035 15.384936 L 49.691035 10.551603 C 49.691035 9.598478 48.961869 8.869311 48.013952 8.869311 L 35.675409 8.869311 C 30.935826 8.869311 27.513951 12.291186 27.513951 17.03077 L 27.513951 29.801604 C 27.513951 34.541188 30.935826 37.999521 35.675409 37.999521 Z M 54.717077 37.999521 L 60.795203 37.999521 C 61.737911 37.999521 62.467078 37.270354 62.467078 36.327646 L 62.467078 31.624521 C 62.467078 30.681812 63.196245 29.957854 64.112911 29.957854 C 65.05562 29.957854 65.784786 30.718271 65.784786 31.624521 L 65.784786 36.327646 C 65.784786 37.270354 66.513953 37.999521 67.451453 37.999521 L 73.534787 37.999521 C 74.482704 37.999521 75.21187 37.270354 75.21187 36.327646 L 75.21187 17.03077 C 75.21187 12.291186 71.789995 8.869311 67.05562 8.869311 L 61.196244 8.869311 C 56.456661 8.869311 53.034786 12.291186 53.034786 17.03077 L 53.034786 36.327646 C 53.034786 37.270354 53.763952 37.999521 54.717077 37.999521 Z M 64.112911 23.181812 C 63.196245 23.181812 62.467078 22.452645 62.467078 21.546395 L 62.467078 18.197437 C 62.467078 17.244312 63.196245 16.515145 64.112911 16.515145 C 65.05562 16.515145 65.784786 17.244312 65.784786 18.197437 L 65.784786 21.546395 C 65.784786 22.452645 65.05562 23.181812 64.112911 23.181812 Z M 80.237912 37.999521 L 86.316038 37.999521 C 87.258746 37.999521 87.987913 37.270354 87.987913 36.327646 L 87.987913 19.358895 C 87.987913 18.442228 88.71708 17.723478 89.633746 17.723478 C 90.576455 17.723478 91.305621 18.442228 91.305621 19.358895 L 91.305621 36.327646 C 91.305621 37.270354 92.034788 37.999521 92.972288 37.999521 L 99.055622 37.999521 C 100.003539 37.999521 100.732705 37.233896 100.732705 36.327646 L 100.732705 19.358895 C 100.732705 18.442228 101.461872 17.723478 102.368122 17.723478 C 103.321247 17.723478 104.050414 18.442228 104.050414 19.358895 L 104.050414 36.327646 C 104.050414 37.270354 104.779581 37.999521 105.722289 37.999521 L 111.800414 37.999521 C 112.75354 37.999521 113.47229 37.270354 113.47229 36.327646 L 113.47229 10.551603 C 113.47229 9.598478 112.75354 8.869311 111.800414 8.869311 L 99.347289 8.869311 C 98.40458 8.869311 97.675414 9.598478 97.675414 10.551603 L 97.675414 13.384936 C 97.675414 14.301603 96.946247 15.020353 95.99833 15.020353 C 95.09208 15.020353 94.362913 14.301603 94.362913 13.384936 L 94.362913 10.551603 C 94.362913 9.598478 93.633747 8.869311 92.691038 8.869311 L 80.237912 8.869311 C 79.284787 8.869311 78.555621 9.598478 78.555621 10.551603 L 78.555621 36.327646 C 78.555621 37.270354 79.284787 37.999521 80.237912 37.999521 Z M 118.498332 37.999521 L 142.82125 37.999521 C 143.763958 37.999521 144.493125 37.270354 144.493125 36.327646 L 144.493125 31.989104 C 144.493125 31.046396 143.763958 30.317229 142.82125 30.317229 L 127.894166 30.317229 C 126.977499 30.317229 126.248332 29.593271 126.248332 28.676604 C 126.248332 27.770354 126.977499 27.004729 127.894166 27.004729 L 141.362916 27.004729 C 142.316041 27.004729 143.04 26.275562 143.04 25.332854 L 143.04 21.509937 C 143.04 20.56202 142.316041 19.832853 141.362916 19.832853 L 127.894166 19.832853 C 126.977499 19.832853 126.248332 19.103687 126.248332 18.197437 C 126.248332 17.244312 126.977499 16.515145 127.894166 16.515145 L 142.82125 16.515145 C 143.763958 16.515145 144.493125 15.785978 144.493125 14.84327 L 144.493125 10.551603 C 144.493125 9.598478 143.763958 8.869311 142.82125 8.869311 L 118.498332 8.869311 C 117.550415 8.869311 116.821248 9.598478 116.821248 10.551603 L 116.821248 36.327646 C 116.821248 37.270354 117.550415 37.999521 118.498332 37.999521 Z M 167.503543 37.999521 L 173.35771 37.999521 C 178.097294 37.999521 181.519169 34.541188 181.519169 29.801604 L 181.519169 17.03077 C 181.519169 12.291186 178.097294 8.869311 173.35771 8.869311 L 167.503543 8.869311 C 162.76396 8.869311 159.342084 12.291186 159.342084 17.03077 L 159.342084 29.801604 C 159.342084 34.541188 162.76396 37.999521 167.503543 37.999521 Z M 170.42021 30.499521 C 169.503543 30.499521 168.774377 29.770354 168.774377 28.864104 L 168.774377 18.009937 C 168.774377 17.067228 169.503543 16.338061 170.42021 16.338061 C 171.35771 16.338061 172.086877 17.067228 172.086877 18.009937 L 172.086877 28.864104 C 172.086877 29.770354 171.35771 30.499521 170.42021 30.499521 Z M 189.70667 37.999521 L 202.196254 37.999521 C 202.888962 37.999521 203.513962 37.59848 203.691046 36.905771 L 206.748337 26.744312 C 206.972296 26.06202 207.040004 25.43702 207.040004 24.713062 L 207.040004 10.551603 C 207.040004 9.598478 206.310837 8.869311 205.362921 8.869311 L 199.279587 8.869311 C 198.336879 8.869311 197.607712 9.598478 197.607712 10.551603 L 197.607712 27.770354 C 197.607712 28.718271 196.878545 29.442229 195.941045 29.442229 C 195.024378 29.442229 194.295212 28.718271 194.295212 27.770354 L 194.295212 10.551603 C 194.295212 9.598478 193.566045 8.869311 192.623336 8.869311 L 186.545211 8.869311 C 185.592086 8.869311 184.862919 9.598478 184.862919 10.551603 L 184.862919 24.713062 C 184.862919 25.509937 184.941044 26.06202 185.154586 26.744312 L 188.211878 36.905771 C 188.399378 37.59848 189.013961 37.999521 189.70667 37.999521 Z M 212.066046 37.999521 L 236.383756 37.999521 C 237.326464 37.999521 238.055631 37.270354 238.055631 36.327646 L 238.055631 31.989104 C 238.055631 31.046396 237.326464 30.317229 236.383756 30.317229 L 221.46188 30.317229 C 220.545213 30.317229 219.816047 29.593271 219.816047 28.676604 C 219.816047 27.770354 220.545213 27.004729 221.46188 27.004729 L 234.925423 27.004729 C 235.878548 27.004729 236.607714 26.275562 236.607714 25.332854 L 236.607714 21.509937 C 236.607714 20.56202 235.878548 19.832853 234.925423 19.832853 L 221.46188 19.832853 C 220.545213 19.832853 219.816047 19.103687 219.816047 18.197437 C 219.816047 17.244312 220.545213 16.515145 221.46188 16.515145 L 236.383756 16.515145 C 237.326464 16.515145 238.055631 15.785978 238.055631 14.84327 L 238.055631 10.551603 C 238.055631 9.598478 237.326464 8.869311 236.383756 8.869311 L 212.066046 8.869311 C 211.112921 8.869311 210.383754 9.598478 210.383754 10.551603 L 210.383754 36.327646 C 210.383754 37.270354 211.112921 37.999521 212.066046 37.999521 Z M 243.081673 37.999521 L 249.159799 37.999521 C 250.102507 37.999521 250.831674 37.233896 250.831674 36.285979 L 250.831674 28.754729 C 250.831674 27.838062 251.56084 27.108895 252.477507 27.108895 L 257.935841 27.108895 C 258.878549 27.108895 259.607716 27.838062 259.607716 28.754729 L 259.607716 36.327646 C 259.607716 37.270354 260.336883 37.999521 261.284799 37.999521 L 267.368133 37.999521 C 268.310841 37.999521 269.040008 37.233896 269.040008 36.285979 L 269.040008 28.062021 C 269.040008 26.31202 267.800425 25.077645 266.050425 25.077645 L 265.732716 25.077645 C 264.81605 25.077645 264.086883 24.348479 264.086883 23.43702 C 264.086883 22.489104 264.81605 21.759937 265.732716 21.759937 L 265.946258 21.759937 C 267.732716 21.759937 269.040008 20.452645 269.040008 18.666187 L 269.040008 15.535978 C 269.040008 11.676603 266.237925 8.869311 262.378549 8.869311 L 243.081673 8.869311 C 242.128548 8.869311 241.399381 9.598478 241.399381 10.551603 L 241.399381 36.327646 C 241.399381 37.270354 242.128548 37.999521 243.081673 37.999521 Z M 252.477507 19.723478 C 251.56084 19.723478 250.831674 18.994312 250.831674 18.077645 C 250.831674 17.171395 251.56084 16.442228 252.477507 16.442228 L 257.935841 16.442228 C 258.878549 16.442228 259.607716 17.171395 259.607716 18.077645 C 259.607716 18.994312 258.878549 19.723478 257.935841 19.723478 Z M 252.477507 19.723478 " stroke="#000000" stroke-width="1.365431" stroke-opacity="1" stroke-miterlimit="4"/></svg>