<svg xmlns="http://www.w3.org/2000/svg" xmlns:xlink="http://www.w3.org/1999/xlink" width="500" zoomAndPan="magnify" viewBox="0 0 375 374.999991" height="500" preserveAspectRatio="xMidYMid meet" version="1.0"><defs><filter x="0%" y="0%" width="100%" height="100%" id="e3fe974c81"><feColorMatrix values="0 0 0 0 1 0 0 0 0 1 0 0 0 0 1 0 0 0 1 0" color-interpolation-filters="sRGB"/></filter><clipPath id="840aedcd8a"><path d="M 125.613281 142 L 210 142 L 210 236 L 125.613281 236 Z M 125.613281 142 " clip-rule="nonzero"/></clipPath><mask id="37ae5e324f"><g filter="url(#e3fe974c81)"><rect x="-37.5" width="450" fill="#000000" y="-37.499999" height="449.999989" fill-opacity="0.8784"/></g></mask><clipPath id="3d36259ca5"><path d="M 1.070312 0.71875 L 85.199219 0.71875 L 85.199219 93.839844 L 1.070312 93.839844 Z M 1.070312 0.71875 " clip-rule="nonzero"/></clipPath><clipPath id="65a14229ec"><rect x="0" width="86" y="0" height="94"/></clipPath><mask id="f96ff5fb7b"><g filter="url(#e3fe974c81)"><rect x="-37.5" width="450" fill="#000000" y="-37.499999" height="449.999989" fill-opacity="0.8784"/></g></mask><clipPath id="907fcf5a51"><path d="M 1.070312 0.519531 L 85.199219 0.519531 L 85.199219 93.398438 L 1.070312 93.398438 Z M 1.070312 0.519531 " clip-rule="nonzero"/></clipPath><clipPath id="d509a83504"><rect x="0" width="86" y="0" height="94"/></clipPath></defs><rect x="-37.5" width="450" fill="#ffffff" y="-37.499999" height="449.999989" fill-opacity="1"/><rect x="-37.5" width="450" fill="#ffffff" y="-37.499999" height="449.999989" fill-opacity="1"/><rect x="-37.5" width="450" fill="#ffffff" y="-37.499999" height="449.999989" fill-opacity="1"/><g clip-path="url(#840aedcd8a)"><path fill="#fc7b71" d="M 202.601562 201.144531 L 146.46875 233.613281 C 137.207031 238.96875 125.632812 232.273438 125.632812 221.5625 L 125.632812 156.621094 C 125.632812 145.90625 137.207031 139.210938 146.46875 144.570312 L 202.601562 177.039062 C 211.863281 182.394531 211.863281 195.785156 202.601562 201.144531 Z M 202.601562 201.144531 " fill-opacity="1" fill-rule="nonzero"/></g><g mask="url(#37ae5e324f)"><g transform="matrix(1, 0, 0, 1, 162, 162)"><g clip-path="url(#65a14229ec)"><g clip-path="url(#3d36259ca5)"><path fill="#76c8ba" d="M 78.0625 59.375 L 21.925781 91.84375 C 12.664062 97.203125 1.09375 90.507812 1.09375 79.792969 L 1.09375 14.851562 C 1.09375 4.140625 12.667969 -2.554688 21.925781 2.800781 L 78.0625 35.273438 C 87.320312 40.628906 87.320312 54.019531 78.0625 59.375 Z M 78.0625 59.375 " fill-opacity="1" fill-rule="nonzero"/></g></g></g></g><g mask="url(#f96ff5fb7b)"><g transform="matrix(1, 0, 0, 1, 162, 119)"><g clip-path="url(#d509a83504)"><g clip-path="url(#907fcf5a51)"><path fill="#9597c7" d="M 78.0625 59.003906 L 21.925781 91.476562 C 12.664062 96.832031 1.09375 90.136719 1.09375 79.425781 L 1.09375 14.480469 C 1.09375 3.769531 12.667969 -2.925781 21.925781 2.429688 L 78.0625 34.902344 C 87.320312 40.257812 87.320312 53.648438 78.0625 59.003906 Z M 78.0625 59.003906 " fill-opacity="1" fill-rule="nonzero"/></g></g></g></g></svg>