<svg width="79" height="54" viewBox="0 0 79 54" fill="none" xmlns="http://www.w3.org/2000/svg">
<path d="M40.6515 20.8517H36.5224C36.5224 22.8307 37.6372 24.0469 39.4954 24.0469C40.3005 24.0469 41.1264 23.882 41.9109 23.614C43.7277 22.975 45.7716 23.5109 46.9691 25.0364L48.373 26.7886C46.1639 28.6439 42.5096 29.7571 39.6192 29.7571C33.7558 29.7571 30.1016 26.1908 30.1016 20.9754C30.1016 13.9666 35.6553 8.3595 42.778 8.3595C47.4439 8.3595 50.7885 10.6477 50.7885 13.946C50.7885 18.5223 47.031 21.0785 40.6515 20.8517ZM37.8231 16.8526H41.4773C43.418 16.8526 44.6155 16.1723 44.6568 15.0797C44.6568 14.4819 43.7897 14.049 42.5922 14.049C40.6515 14.049 38.9379 15.224 37.8231 16.8526Z" fill="#01387B"/>
<path d="M78.8687 5.86603L73.9963 29.2838H66.3574L66.791 27.2223C64.9742 28.8096 62.7031 29.7579 60.1637 29.7579C55.3326 29.7579 52.3184 26.3566 52.3184 21.3679C52.3184 14.6889 57.0669 8.36034 63.6528 8.36034C66.502 8.36034 68.7317 9.57659 70.0324 11.638L72.0969 1.61951H75.4209C77.6506 1.61951 79.3229 3.68092 78.8687 5.86603ZM62.9509 23.4293C66.1303 23.4293 68.6904 20.3372 68.6904 17.4924C68.6904 15.7609 67.5755 14.6889 65.7587 14.6889C62.4347 14.6889 59.6269 17.4925 59.6269 20.5434C59.6269 22.3162 60.845 23.4293 62.9509 23.4293Z" fill="#01387B"/>
<path d="M0 51.0108L3.11752 48.0629C4.54207 49.4235 6.40019 50.0213 7.96926 50.0213C9.88931 50.0213 10.8183 49.1143 10.8183 48.3722C10.8183 47.8362 10.3435 47.7743 8.40281 47.2796C5.16144 46.455 2.62202 45.7954 2.62202 42.6414C2.62202 39.1576 5.73952 36.4365 10.4467 36.4365C13.0275 36.4365 15.4017 37.2611 17.0946 38.8484L14.2249 42.0024C12.821 40.7861 11.0867 40.3944 9.99252 40.3944C8.34087 40.3944 7.51504 41.3427 7.51504 42.0436C7.51504 42.662 8.11377 42.7857 9.97188 43.198C13.9359 44.105 15.7114 45.0532 15.7114 47.7331C15.7114 51.5055 12.1603 53.9586 7.65957 53.9586C4.54207 53.9998 1.75488 52.866 0 51.0108Z" fill="#B80C23"/>
<path d="M33.3434 40.9297L30.6802 53.6899H25.911L26.1794 52.4118C25.0439 53.4013 23.64 53.9991 22.0502 53.9991C19.036 53.9991 17.1572 51.8758 17.1572 48.7631C17.1572 44.599 20.1302 40.6411 24.2387 40.6411C26.0142 40.6411 27.3975 41.4038 28.2233 42.7231L28.5949 40.9503H33.3434V40.9297ZM23.7845 50.0412C25.7665 50.0412 27.3768 48.1241 27.3768 46.3306C27.3768 45.2381 26.6749 44.5784 25.5394 44.5784C23.4542 44.5784 21.6993 46.3306 21.6993 48.2271C21.6993 49.3403 22.4632 50.0412 23.7845 50.0412Z" fill="#B80C23"/>
<path d="M36.9146 36.4365H41.6838L38.0914 53.6906H33.3223L36.9146 36.4365Z" fill="#B80C23"/>
<path d="M56.3409 40.9294L53.6776 53.6896H48.9085L49.1356 52.6795C48.2271 53.5247 46.9884 53.9782 45.6051 53.9782C43.107 53.9782 41.5586 52.3291 41.5586 50.0203C41.5586 49.0721 41.765 48.433 43.3341 40.9088H47.8762C46.369 48.0413 46.2865 48.3712 46.2865 48.7422C46.2865 49.5874 46.7819 50.0203 47.5665 50.0203C48.8052 50.0203 49.9201 49.0102 50.1059 47.8764L51.5718 40.9088H56.3409V40.9294Z" fill="#B80C23"/>
<path d="M73.9932 36.4365L70.4009 53.6906H65.6317L65.9001 52.4125C64.7646 53.402 63.3607 53.9998 61.771 53.9998C58.7567 53.9998 56.8779 51.8765 56.8779 48.7638C56.8779 44.5997 59.8509 40.6418 63.9594 40.6418C65.7349 40.6418 67.1182 41.4045 67.944 42.6826L69.2241 36.4365H73.9932ZM63.5052 50.0419C65.4872 50.0419 67.0975 48.1248 67.0975 46.3313C67.0975 45.2388 66.3956 44.5791 65.2601 44.5791C63.1749 44.5791 61.42 46.3313 61.42 48.2278C61.42 49.341 62.1839 50.0419 63.5052 50.0419Z" fill="#B80C23"/>
<path d="M28.1191 10.0091C28.1191 9.90602 28.1191 9.78234 28.1191 9.67927L27.2519 10.0916C26.9629 10.2152 26.2403 10.4626 25.848 10.5451C25.6003 10.5863 25.3319 10.6275 25.0222 10.6482C23.4944 10.7925 21.8634 10.6069 20.6453 10.1946C20.4595 10.1328 20.2737 10.0503 20.1085 9.96787C20.2118 10.1534 20.2737 10.3801 20.2737 10.6275C20.2737 12.2973 18.2091 14.1113 16.1858 14.1113H11.7057L12.7793 9.04023H17.7343C18.1678 9.04023 18.5601 9.08146 18.8904 9.16391C18.684 8.97839 18.4775 8.77224 18.3124 8.54549C17.7962 7.88583 17.5278 7.14374 17.2388 6.42224C16.8052 5.28846 16.3923 4.21651 15.1123 3.28887C14.72 3.00027 14.2658 2.77351 13.7497 2.58798C11.5199 1.80464 8.75341 2.21693 7.67983 2.44369L6.39978 2.69105L1.65127 25.511C1.23836 27.4487 2.72486 29.2628 4.70685 29.2628H8.54694L10.2812 21.0789H12.8619L16.0413 26.3149C17.1562 28.1496 19.1382 29.2628 21.2647 29.2628H25.5177C25.8893 29.2628 26.1371 28.8505 25.9306 28.5207L20.8724 20.1513C25.1461 18.564 28.1191 14.7504 28.1191 10.0091Z" fill="#01387B"/>
<path d="M27.0456 6.52532C25.7656 4.79373 24.052 3.35072 22.0287 2.25816C21.9668 2.21694 21.9048 2.19632 21.8429 2.15509C21.781 2.11386 21.6984 2.07264 21.6158 2.05202C20.8106 1.63974 19.9641 1.28931 19.1177 0.980093C18.8493 0.877022 18.5809 0.794555 18.3125 0.712099C18.2918 0.712099 18.2505 0.691489 18.2299 0.691489C18.0441 0.629647 17.8583 0.588408 17.6518 0.526566C17.5073 0.485337 17.3421 0.444109 17.1976 0.423495C17.177 0.423495 17.1563 0.402885 17.115 0.402885C13.3369 -0.442297 9.97162 0.0730532 7.49414 1.66035C8.40255 1.47482 11.4375 0.959469 13.9769 1.84588C14.5343 2.03141 15.0711 2.2994 15.546 2.64984C17.8789 4.36082 17.7137 6.52532 18.8906 8.07139C19.1796 8.46306 19.5719 8.8135 20.088 9.1021C20.1293 9.12271 20.1706 9.14331 20.2119 9.16392C20.4183 9.267 20.6248 9.34946 20.8519 9.43192C22.0493 9.8442 23.6184 9.96789 24.8985 9.8442C25.1669 9.82359 25.4146 9.78236 25.6417 9.74113C25.9514 9.67929 26.5914 9.47314 26.8598 9.34946L28.0779 8.79288C28.0159 8.60736 27.954 8.42181 27.8921 8.25689C27.7269 7.65908 27.4172 7.0819 27.0456 6.52532Z" fill="#2271BF"/>
<path d="M27.913 8.27797C27.6859 7.68016 27.3762 7.08235 27.0046 6.52577C25.7039 4.79417 23.9903 3.35116 21.967 2.25861C21.9051 2.21738 21.8432 2.19677 21.7812 2.15554C21.6986 2.11431 21.6367 2.07308 21.5541 2.05247C20.749 1.64018 19.9025 1.28975 19.0354 1.00115C18.767 0.918692 18.4986 0.815631 18.2302 0.753789C18.2095 0.753789 18.1682 0.733154 18.1476 0.733154C18.1476 0.733154 18.1476 0.733154 18.127 0.733154C18.6844 1.00114 20.2741 2.15553 21.1412 3.00072C23.7013 5.53626 23.4948 7.41217 24.8988 8.31919C26.0756 9.08192 28.0782 8.81394 28.0782 8.81394C28.0575 8.62841 27.9956 8.44289 27.913 8.27797Z" fill="#3694E0"/>
</svg>
