<svg xmlns="http://www.w3.org/2000/svg" xmlns:xlink="http://www.w3.org/1999/xlink" width="500" zoomAndPan="magnify" viewBox="0 0 375 374.999991" height="500" preserveAspectRatio="xMidYMid meet" version="1.0"><defs><filter x="0%" y="0%" width="100%" height="100%" id="32cbeb770d"><feColorMatrix values="0 0 0 0 1 0 0 0 0 1 0 0 0 0 1 0 0 0 1 0" color-interpolation-filters="sRGB"/></filter><mask id="7a2a9b0267"><g filter="url(#32cbeb770d)"><rect x="-37.5" width="450" fill="#000000" y="-37.499999" height="449.999989" fill-opacity="0.4471"/></g></mask><clipPath id="4dfca3842b"><path d="M 0.613281 23 L 85 23 L 85 117 L 0.613281 117 Z M 0.613281 23 " clip-rule="nonzero"/></clipPath><clipPath id="5a88216242"><path d="M 37 43 L 122.199219 43 L 122.199219 136.839844 L 37 136.839844 Z M 37 43 " clip-rule="nonzero"/></clipPath><mask id="a0aa8c5dde"><g filter="url(#32cbeb770d)"><rect x="-207.5" width="540" fill="#000000" y="-201.499998" height="539.999987" fill-opacity="0.8784"/></g></mask><clipPath id="c26e9cd9ae"><path d="M 1.070312 0.71875 L 85.199219 0.71875 L 85.199219 93.839844 L 1.070312 93.839844 Z M 1.070312 0.71875 " clip-rule="nonzero"/></clipPath><clipPath id="9ced3f0b21"><rect x="0" width="86" y="0" height="94"/></clipPath><clipPath id="96664b312e"><path d="M 37 0.519531 L 122.199219 0.519531 L 122.199219 94 L 37 94 Z M 37 0.519531 " clip-rule="nonzero"/></clipPath><mask id="e6f085f220"><g filter="url(#32cbeb770d)"><rect x="-207.5" width="540" fill="#000000" y="-201.499998" height="539.999987" fill-opacity="0.8784"/></g></mask><clipPath id="5ca8296638"><path d="M 1.070312 0.519531 L 85.199219 0.519531 L 85.199219 93.398438 L 1.070312 93.398438 Z M 1.070312 0.519531 " clip-rule="nonzero"/></clipPath><clipPath id="9209cd509c"><rect x="0" width="86" y="0" height="94"/></clipPath><clipPath id="94b8e55c3a"><rect x="0" width="123" y="0" height="137"/></clipPath></defs><rect x="-37.5" width="450" fill="#ffffff" y="-37.499999" height="449.999989" fill-opacity="1"/><rect x="-37.5" width="450" fill="#ffffff" y="-37.499999" height="449.999989" fill-opacity="1"/><rect x="-37.5" width="450" fill="#ffffff" y="-37.499999" height="449.999989" fill-opacity="1"/><g mask="url(#7a2a9b0267)"><g transform="matrix(1, 0, 0, 1, 125, 119)"><g clip-path="url(#94b8e55c3a)"><g clip-path="url(#4dfca3842b)"><path fill="#fc7b71" d="M 77.601562 82.144531 L 21.46875 114.613281 C 12.207031 119.96875 0.632812 113.273438 0.632812 102.5625 L 0.632812 37.621094 C 0.632812 26.90625 12.207031 20.210938 21.46875 25.570312 L 77.601562 58.039062 C 86.863281 63.394531 86.863281 76.785156 77.601562 82.144531 Z M 77.601562 82.144531 " fill-opacity="1" fill-rule="nonzero"/></g><g clip-path="url(#5a88216242)"><g mask="url(#a0aa8c5dde)"><g transform="matrix(1, 0, 0, 1, 37, 43)"><g clip-path="url(#9ced3f0b21)"><g clip-path="url(#c26e9cd9ae)"><path fill="#76c8ba" d="M 78.0625 59.375 L 21.925781 91.84375 C 12.664062 97.203125 1.09375 90.507812 1.09375 79.792969 L 1.09375 14.851562 C 1.09375 4.140625 12.667969 -2.554688 21.925781 2.800781 L 78.0625 35.273438 C 87.320312 40.628906 87.320312 54.019531 78.0625 59.375 Z M 78.0625 59.375 " fill-opacity="1" fill-rule="nonzero"/></g></g></g></g></g><g clip-path="url(#96664b312e)"><g mask="url(#e6f085f220)"><g transform="matrix(1, 0, 0, 1, 37, 0)"><g clip-path="url(#9209cd509c)"><g clip-path="url(#5ca8296638)"><path fill="#9597c7" d="M 78.0625 59.003906 L 21.925781 91.476562 C 12.664062 96.832031 1.09375 90.136719 1.09375 79.425781 L 1.09375 14.480469 C 1.09375 3.769531 12.667969 -2.925781 21.925781 2.429688 L 78.0625 34.902344 C 87.320312 40.257812 87.320312 53.648438 78.0625 59.003906 Z M 78.0625 59.003906 " fill-opacity="1" fill-rule="nonzero"/></g></g></g></g></g></g></g></g></svg>