<svg xmlns="http://www.w3.org/2000/svg" xmlns:xlink="http://www.w3.org/1999/xlink" width="500" zoomAndPan="magnify" viewBox="0 0 375 374.999991" height="500" preserveAspectRatio="xMidYMid meet" version="1.0"><defs><filter x="0%" y="0%" width="100%" height="100%" id="e4bc70216d"><feColorMatrix values="0 0 0 0 1 0 0 0 0 1 0 0 0 0 1 0 0 0 1 0" color-interpolation-filters="sRGB"/></filter><clipPath id="9d3662d39c"><path d="M 74.082031 105 L 228 105 L 228 276 L 74.082031 276 Z M 74.082031 105 " clip-rule="nonzero"/></clipPath><mask id="dfa5ffc7e4"><g filter="url(#e4bc70216d)"><rect x="-37.5" width="450" fill="#000000" y="-37.499999" height="449.999989" fill-opacity="0.88"/></g></mask><clipPath id="edf2246a6c"><path d="M 0.726562 0.320312 L 154.640625 0.320312 L 154.640625 170.71875 L 0.726562 170.71875 Z M 0.726562 0.320312 " clip-rule="nonzero"/></clipPath><clipPath id="e98c6d1883"><rect x="0" width="155" y="0" height="171"/></clipPath><mask id="c0656ed758"><g filter="url(#e4bc70216d)"><rect x="-37.5" width="450" fill="#000000" y="-37.499999" height="449.999989" fill-opacity="0.88"/></g></mask><clipPath id="81dea5acba"><path d="M 0.726562 0.878906 L 154.640625 0.878906 L 154.640625 171.28125 L 0.726562 171.28125 Z M 0.726562 0.878906 " clip-rule="nonzero"/></clipPath><clipPath id="b9bd793aa6"><rect x="0" width="155" y="0" height="172"/></clipPath></defs><g clip-path="url(#9d3662d39c)"><path fill="#fc7b71" d="M 215.179688 212.503906 L 112.300781 272.011719 C 95.328125 281.828125 74.121094 269.558594 74.121094 249.925781 L 74.121094 130.90625 C 74.121094 111.277344 95.332031 99.003906 112.300781 108.820312 L 215.179688 168.332031 C 232.148438 178.148438 232.148438 202.6875 215.179688 212.503906 Z M 215.179688 212.503906 " fill-opacity="1" fill-rule="nonzero"/></g><g mask="url(#dfa5ffc7e4)"><g transform="matrix(1, 0, 0, 1, 142, 142)"><g clip-path="url(#e98c6d1883)"><g clip-path="url(#edf2246a6c)"><path fill="#76c8ba" d="M 141.828125 107.582031 L 38.949219 167.089844 C 21.976562 176.90625 0.769531 164.636719 0.769531 145.003906 L 0.769531 25.984375 C 0.769531 6.351562 21.980469 -5.917969 38.949219 3.898438 L 141.828125 63.40625 C 158.792969 73.222656 158.792969 97.765625 141.828125 107.582031 Z M 141.828125 107.582031 " fill-opacity="1" fill-rule="nonzero"/></g></g></g></g><g mask="url(#c0656ed758)"><g transform="matrix(1, 0, 0, 1, 142, 62)"><g clip-path="url(#b9bd793aa6)"><g clip-path="url(#81dea5acba)"><path fill="#9597c7" d="M 141.828125 108.097656 L 38.949219 167.605469 C 21.976562 177.421875 0.769531 165.152344 0.769531 145.519531 L 0.769531 26.503906 C 0.769531 6.871094 21.980469 -5.398438 38.949219 4.414062 L 141.828125 63.925781 C 158.792969 73.742188 158.792969 98.28125 141.828125 108.097656 Z M 141.828125 108.097656 " fill-opacity="1" fill-rule="nonzero"/></g></g></g></g></svg>