<svg width="35" height="37" viewBox="0 0 35 37" fill="none" xmlns="http://www.w3.org/2000/svg">
<path fill-rule="evenodd" clip-rule="evenodd" d="M17.0374 0H18.1443C18.1648 0 18.1853 0.00970619 18.2058 0.0194124C18.2263 0.0291186 18.2468 0.0388248 18.2673 0.0388248C20.4401 0.310598 22.2849 2.09654 22.4079 4.34837C22.4079 4.46485 22.5309 4.62015 22.6539 4.65897C24.6627 5.55194 26.3435 6.79433 27.6554 8.50262C29.1313 10.4439 29.9512 12.618 30.0332 15.0252C30.0537 15.6657 30.0537 16.3063 30.0537 16.9517V16.9519C30.0537 17.5973 30.0537 18.2476 30.0742 18.9077C30.0824 19.1639 30.089 19.4201 30.0955 19.6763C30.1218 20.7013 30.148 21.7263 30.2792 22.7513C30.4842 24.4984 30.9351 26.2455 31.837 27.7985C32.329 28.6527 32.9849 29.4292 33.8869 29.9727C33.9414 30.0037 33.9989 30.0347 34.0578 30.0665C34.2199 30.154 34.3924 30.247 34.5428 30.361C34.9528 30.6327 35.1167 31.1375 34.9118 31.5645C34.7068 32.0304 34.3378 32.2246 33.7229 32.2246H23.8018H23.4328C23.3559 32.4141 23.2905 32.6035 23.2258 32.791C23.1181 33.1028 23.0125 33.4089 22.8589 33.6999C22.0799 35.2141 20.8501 36.2623 19.1282 36.767L18.1443 37H16.9144C16.8734 36.9806 16.8324 36.9709 16.7914 36.9612C16.7504 36.9515 16.7094 36.9418 16.6684 36.9223C14.5366 36.5729 13.0608 35.447 12.1179 33.6222C11.9129 33.1952 11.7489 32.7293 11.5849 32.2246H11.2159H1.37685C1.21287 32.2246 1.00789 32.2246 0.843903 32.1857C0.392944 32.0693 0.105971 31.7975 0.0239783 31.4092C-0.0580142 30.9822 0.0649745 30.5939 0.474937 30.361C0.5892 30.2744 0.716203 30.212 0.848843 30.1467C0.954151 30.095 1.06301 30.0414 1.17187 29.9727C2.27877 29.2739 3.0167 28.2644 3.54965 27.1385C4.41057 25.3137 4.82054 23.3725 4.90253 21.3924C4.96402 19.9948 4.95634 18.5971 4.94865 17.1994C4.94609 16.7335 4.94352 16.2676 4.94352 15.8017C4.94352 14.8699 5.02552 13.8993 5.27149 12.9675C6.2554 9.20147 8.59219 6.44491 12.3228 4.77545C12.5688 4.65897 12.6508 4.5425 12.6918 4.30955C12.8558 2.60126 13.7577 1.32004 15.3566 0.543547C15.7911 0.337803 16.2256 0.221063 16.6423 0.109102C16.776 0.0731702 16.9079 0.037731 17.0374 0ZM28.3934 24.421L28.3827 24.3708L28.3725 24.3243C28.3396 24.1736 28.3114 24.0449 28.3114 23.9162C28.2829 23.7001 28.2522 23.4819 28.2213 23.2626L28.2212 23.262C28.1189 22.5359 28.0149 21.7975 27.9834 21.082C27.9425 19.2961 27.9425 17.4713 27.9425 15.6854C27.9425 14.2877 27.7375 12.9288 27.1225 11.6476C25.5647 8.42516 22.9819 6.48393 19.2923 5.8239C17.6524 5.55213 16.0126 5.66861 14.4137 6.17333C11.8719 6.98865 9.94512 8.50281 8.63324 10.7158C7.85431 11.997 7.40335 13.3559 7.36235 14.8312C7.34186 15.7242 7.34186 16.6172 7.34186 17.5102C7.34186 18.4031 7.34186 19.2961 7.32136 20.1891C7.29627 20.8781 7.22512 21.5671 7.15489 22.2472L7.15489 22.2473C7.11036 22.6785 7.0662 23.1062 7.03439 23.528L7.03437 23.5281L7.03437 23.5281L7.03436 23.5282L7.03436 23.5282C6.99337 23.7999 6.95238 24.0716 6.9114 24.3821C14.0447 24.421 21.1781 24.421 28.3934 24.421ZM30.894 30.0893L30.894 30.0893H4.41045C4.42842 30.0553 4.43852 30.0213 4.44764 29.9905C4.45932 29.9511 4.46942 29.917 4.49244 29.8952C5.18938 28.9634 5.76332 27.9152 6.13229 26.8281C6.21428 26.6339 6.33727 26.5563 6.58325 26.5563H28.6802C28.9262 26.5563 29.0492 26.5951 29.1312 26.8281C29.5001 27.9152 30.0331 28.9634 30.771 29.8952C30.812 29.934 30.853 30.0117 30.894 30.0893ZM14.0446 32.1857C14.3316 33.6611 16.0534 34.8647 17.6933 34.8258C19.4561 34.787 20.9319 33.3893 21.1779 32.1857H14.0446ZM17.4885 2.0965C18.7184 2.05768 19.8253 2.79535 20.1122 3.88244C18.4314 3.61067 16.7915 3.57185 15.1107 3.88244C15.2747 2.95065 16.3816 2.13533 17.4885 2.0965Z" fill="white"/>
</svg>
