<svg xmlns:mydata="http://www.w3.org/2000/svg" mydata:contrastcolor="47141e" mydata:template="Contrast" mydata:presentation="2.5" mydata:layouttype="undefined" mydata:specialfontid="undefined" mydata:id1="001" mydata:id2="174" mydata:companyname="Twenty Play" mydata:companytagline="Tecnology" version="1.1" xmlns="http://www.w3.org/2000/svg" xmlns:xlink="http://www.w3.org/1999/xlink" style="height: 193px;" viewBox="0 50 550 370"><defs><linearGradient x1="79.71603" y1="235" x2="470.28397" y2="235" gradientUnits="userSpaceOnUse" id="color-16059670386"><stop offset="0" stop-color="#ed4264"></stop><stop offset="1" stop-color="#ffedbc"></stop></linearGradient></defs><g fill="url(#color-16059670386)" fill-rule="none" stroke="none" stroke-width="1" stroke-linecap="butt" stroke-linejoin="miter" stroke-miterlimit="10" stroke-dasharray="" stroke-dashoffset="0" font-family="none" font-weight="none" font-size="none" text-anchor="none" style="mix-blend-mode: normal"><g data-paper-data="{&quot;isGlobalGroup&quot;:true,&quot;bounds&quot;:{&quot;x&quot;:79.71603177401899,&quot;y&quot;:156.58936966292498,&quot;width&quot;:390.5679364519621,&quot;height&quot;:156.82126067415004}}"><g data-paper-data="{&quot;isSecondaryText&quot;:true}" fill-rule="nonzero" id="element-id-466"><path d="M282.11225,284.26765l-0.46476,2.67789h-3.45249v12.30502h-3.65167v-12.30502h-3.56315v-2.67789z" data-paper-data="{&quot;glyphName&quot;:&quot;T&quot;,&quot;glyphIndex&quot;:0,&quot;firstGlyphOfWord&quot;:true,&quot;word&quot;:1}" id="element-id-98402"></path><path d="M288.21389,284.26765h9.53861v2.67789h-5.88694v3.20904h4.89103l-0.4205,2.63363h-4.47053v3.78446h6.19677v2.67789h-9.84844z" data-paper-data="{&quot;glyphName&quot;:&quot;E&quot;,&quot;glyphIndex&quot;:1,&quot;word&quot;:1}" id="element-id-23321"></path><path d="M312.83761,287.91932c-0.41312,-0.50164 -0.81148,-0.8373 -1.19509,-1.00698c-0.38361,-0.16967 -0.76722,-0.25451 -1.15083,-0.25451c-0.95902,0 -1.65616,0.44632 -2.09141,1.33895c-0.43525,0.89263 -0.65287,2.1283 -0.65287,3.707c0,0.75247 0.04795,1.44223 0.14385,2.06928c0.0959,0.62705 0.26189,1.1619 0.49796,1.60452c0.23607,0.44263 0.54959,0.78935 0.94058,1.04017c0.39099,0.25082 0.88156,0.37623 1.47173,0.37623c0.5164,0 1.02173,-0.06271 1.516,-0.18812c0.49427,-0.12541 0.94796,-0.26926 1.36108,-0.43156l0.79673,2.47871c-0.45738,0.1918 -1.0328,0.36148 -1.72624,0.50902c-0.69345,0.14754 -1.49018,0.22131 -2.39018,0.22131c-2.27215,0 -3.932,-0.6455 -4.97955,-1.93649c-1.04755,-1.29099 -1.57132,-3.12421 -1.57132,-5.49964c0,-1.15083 0.13648,-2.20576 0.40943,-3.16478c0.27295,-0.95902 0.68607,-1.78895 1.23935,-2.48978c0.55328,-0.70083 1.24673,-1.24673 2.08035,-1.63772c0.83361,-0.39099 1.81846,-0.58648 2.95453,-0.58648c0.59017,0 1.11026,0.05164 1.56026,0.15492c0.45,0.10328 0.84468,0.23976 1.18403,0.40943c0.33935,0.16967 0.63812,0.36517 0.89632,0.58648c0.2582,0.22131 0.49058,0.45 0.69714,0.68607z" data-paper-data="{&quot;glyphName&quot;:&quot;C&quot;,&quot;glyphIndex&quot;:2,&quot;word&quot;:1}" id="element-id-2491"></path><path d="M330.01166,284.26765h3.65167v14.98291h-3.12052l-4.27135,-6.46235c-0.08853,-0.13279 -0.21025,-0.32459 -0.36517,-0.57541c-0.15492,-0.25082 -0.31722,-0.51271 -0.48689,-0.78566c-0.16967,-0.27295 -0.33197,-0.53853 -0.48689,-0.79673c-0.15492,-0.2582 -0.28402,-0.46845 -0.3873,-0.63074c0.01475,0.22131 0.0332,0.49058 0.05533,0.80779c0.02213,0.31722 0.04426,0.63812 0.06639,0.96271c0.02213,0.32459 0.04057,0.64181 0.05533,0.95165c0.01475,0.30984 0.02213,0.56804 0.02213,0.7746l0.06639,5.75415h-3.65167v-14.98291h2.98773l4.31561,6.41809c0.13279,0.20656 0.28033,0.43894 0.44263,0.69714c0.1623,0.2582 0.32828,0.52009 0.49796,0.78566c0.16967,0.26558 0.32828,0.52009 0.47582,0.76353c0.14754,0.24344 0.27295,0.45369 0.37623,0.63074c-0.01475,-0.23607 -0.02951,-0.50902 -0.04426,-0.81886c-0.01475,-0.30984 -0.0332,-0.63074 -0.05533,-0.96271c-0.02213,-0.33197 -0.04057,-0.65287 -0.05533,-0.96271c-0.01475,-0.30984 -0.02213,-0.58279 -0.02213,-0.81886z" data-paper-data="{&quot;glyphName&quot;:&quot;N&quot;,&quot;glyphIndex&quot;:3,&quot;word&quot;:1}" id="element-id-6376"></path><path d="M347.5483,284.06847c1.16558,0 2.16887,0.17705 3.00986,0.53115c0.84099,0.3541 1.53444,0.85574 2.08035,1.50493c0.54591,0.64919 0.94796,1.44223 1.20616,2.37912c0.2582,0.93689 0.3873,1.98813 0.3873,3.15372c0,1.15083 -0.14385,2.20207 -0.43156,3.15372c-0.28771,0.95165 -0.71927,1.76682 -1.29468,2.44551c-0.57541,0.67869 -1.29837,1.20616 -2.16887,1.58239c-0.8705,0.37623 -1.89592,0.56435 -3.07626,0.56435c-1.16558,0 -2.17256,-0.16599 -3.02093,-0.49796c-0.84837,-0.33197 -1.5455,-0.81886 -2.09141,-1.46067c-0.54591,-0.64181 -0.94796,-1.42009 -1.20616,-2.33486c-0.2582,-0.91476 -0.3873,-1.96231 -0.3873,-3.14265c0,-1.15083 0.14385,-2.20944 0.43156,-3.17585c0.28771,-0.9664 0.71927,-1.80002 1.29468,-2.50084c0.57541,-0.70083 1.30206,-1.24304 2.17994,-1.62665c0.87788,-0.38361 1.90698,-0.57541 3.08732,-0.57541zM347.23846,286.65783c-0.95902,0 -1.65616,0.44632 -2.09141,1.33895c-0.43525,0.89263 -0.65287,2.1283 -0.65287,3.707c0,0.75247 0.04795,1.43854 0.14385,2.05821c0.0959,0.61968 0.2582,1.15452 0.48689,1.60452c0.22869,0.45 0.54222,0.80042 0.94058,1.05124c0.39836,0.25082 0.90001,0.37623 1.50493,0.37623c0.95902,0 1.65247,-0.42787 2.08035,-1.28362c0.42787,-0.85574 0.64181,-2.07297 0.64181,-3.65167c0,-0.75247 -0.04795,-1.44591 -0.14385,-2.08035c-0.0959,-0.63443 -0.2582,-1.18403 -0.48689,-1.64878c-0.22869,-0.46476 -0.54222,-0.82624 -0.94058,-1.08444c-0.39836,-0.2582 -0.89263,-0.3873 -1.4828,-0.3873z" data-paper-data="{&quot;glyphName&quot;:&quot;O&quot;,&quot;glyphIndex&quot;:4,&quot;word&quot;:1}" id="element-id-43890"></path><path d="M361.13757,284.26765h3.65167v12.30502h5.26726v2.67789h-8.91893z" data-paper-data="{&quot;glyphName&quot;:&quot;L&quot;,&quot;glyphIndex&quot;:5,&quot;word&quot;:1}" id="element-id-44382"></path><path d="M381.28787,284.06847c1.16558,0 2.16887,0.17705 3.00986,0.53115c0.84099,0.3541 1.53444,0.85574 2.08035,1.50493c0.54591,0.64919 0.94796,1.44223 1.20616,2.37912c0.2582,0.93689 0.3873,1.98813 0.3873,3.15372c0,1.15083 -0.14385,2.20207 -0.43156,3.15372c-0.28771,0.95165 -0.71927,1.76682 -1.29468,2.44551c-0.57541,0.67869 -1.29837,1.20616 -2.16887,1.58239c-0.8705,0.37623 -1.89592,0.56435 -3.07626,0.56435c-1.16558,0 -2.17256,-0.16599 -3.02093,-0.49796c-0.84837,-0.33197 -1.5455,-0.81886 -2.09141,-1.46067c-0.54591,-0.64181 -0.94796,-1.42009 -1.20616,-2.33486c-0.2582,-0.91476 -0.3873,-1.96231 -0.3873,-3.14265c0,-1.15083 0.14385,-2.20944 0.43156,-3.17585c0.28771,-0.9664 0.71927,-1.80002 1.29468,-2.50084c0.57541,-0.70083 1.30206,-1.24304 2.17994,-1.62665c0.87788,-0.38361 1.90698,-0.57541 3.08732,-0.57541zM380.97803,286.65783c-0.95902,0 -1.65616,0.44632 -2.09141,1.33895c-0.43525,0.89263 -0.65287,2.1283 -0.65287,3.707c0,0.75247 0.04795,1.43854 0.14385,2.05821c0.0959,0.61968 0.2582,1.15452 0.48689,1.60452c0.22869,0.45 0.54222,0.80042 0.94058,1.05124c0.39836,0.25082 0.90001,0.37623 1.50493,0.37623c0.95902,0 1.65247,-0.42787 2.08035,-1.28362c0.42787,-0.85574 0.64181,-2.07297 0.64181,-3.65167c0,-0.75247 -0.04795,-1.44591 -0.14385,-2.08035c-0.0959,-0.63443 -0.2582,-1.18403 -0.48689,-1.64878c-0.22869,-0.46476 -0.54222,-0.82624 -0.94058,-1.08444c-0.39836,-0.2582 -0.89263,-0.3873 -1.4828,-0.3873z" data-paper-data="{&quot;glyphName&quot;:&quot;O&quot;,&quot;glyphIndex&quot;:6,&quot;word&quot;:1}" id="element-id-39347"></path><path d="M400.41377,301.88419c0.47214,-0.26558 0.86681,-0.53115 1.18403,-0.79673c0.31722,-0.26558 0.57541,-0.56066 0.7746,-0.88525c0.19918,-0.32459 0.34304,-0.68238 0.43156,-1.07337c0.08853,-0.39099 0.13279,-0.82993 0.13279,-1.31681v-0.15492c-0.29508,0.56066 -0.72296,0.99222 -1.28362,1.29468c-0.56066,0.30246 -1.2246,0.45369 -1.99182,0.45369c-0.8705,0 -1.64141,-0.16967 -2.31272,-0.50902c-0.67132,-0.33935 -1.23198,-0.82993 -1.68198,-1.47173c-0.45,-0.64181 -0.79304,-1.42378 -1.02911,-2.34592c-0.23607,-0.92214 -0.3541,-1.966 -0.3541,-3.13158c0,-1.13608 0.13648,-2.18731 0.40943,-3.15372c0.27295,-0.9664 0.68976,-1.80002 1.25042,-2.50084c0.56066,-0.70083 1.27255,-1.24673 2.13567,-1.63772c0.86312,-0.39099 1.88485,-0.58648 3.06519,-0.58648c0.8705,0 1.7078,0.16599 2.51191,0.49796c0.80411,0.33197 1.47173,0.82255 2.00289,1.47173l-1.70411,2.08035c-0.42787,-0.41312 -0.88525,-0.75984 -1.37214,-1.04017c-0.48689,-0.28033 -0.9664,-0.4205 -1.43854,-0.4205c-1.04755,0 -1.79633,0.45 -2.24633,1.35001c-0.45,0.90001 -0.67501,2.13936 -0.67501,3.71806c0,0.76722 0.04426,1.46436 0.13279,2.09141c0.08853,0.62705 0.225,1.1619 0.40943,1.60452c0.18443,0.44263 0.41312,0.78197 0.68607,1.01804c0.27295,0.23607 0.60123,0.3541 0.98484,0.3541c0.29508,0 0.57173,-0.11066 0.82993,-0.33197c0.2582,-0.22131 0.48689,-0.50533 0.68607,-0.85206c0.19918,-0.34672 0.3541,-0.73402 0.46476,-1.1619c0.11066,-0.42787 0.16599,-0.85574 0.16599,-1.28362v-1.65985h3.49675v7.0599c0,0.90001 -0.12541,1.65616 -0.37623,2.26846c-0.25082,0.6123 -0.5791,1.1287 -0.98484,1.54919c-0.40574,0.4205 -0.8705,0.77091 -1.39427,1.05124c-0.52377,0.28033 -1.05124,0.53115 -1.58239,0.75247z" data-paper-data="{&quot;glyphName&quot;:&quot;G&quot;,&quot;glyphIndex&quot;:7,&quot;word&quot;:1}" id="element-id-47806"></path><path d="M416.34831,293.49642l-4.62545,-9.22877h3.85085l2.65576,5.73202l2.72215,-5.73202h3.80659l-4.78037,9.42795v5.55497h-3.62954z" data-paper-data="{&quot;glyphName&quot;:&quot;Y&quot;,&quot;glyphIndex&quot;:8,&quot;lastGlyphOfWord&quot;:true,&quot;word&quot;:1}" id="element-id-165"></path></g><g data-paper-data="{&quot;stacked&quot;:true,&quot;isPrimaryText&quot;:true}" fill-rule="nonzero" id="element-id-75712"><path d="M286.47652,200.50946v-27.65568h8.95953v-6.39966h-24.45585v6.39966h8.41099v27.65568z" data-paper-data="{&quot;glyphName&quot;:&quot;T&quot;,&quot;glyphIndex&quot;:0,&quot;firstGlyphOfWord&quot;:true,&quot;word&quot;:1,&quot;line&quot;:1,&quot;firstGlyphOfFirstLine&quot;:true}" fill="#ffffff" id="element-id-38414"></path><path d="M328.53144,186.43021l-10.33088,-19.97609h-8.13671l7.22248,13.80499l-3.19983,6.1711l-10.33088,-19.97609h-8.13671l18.19333,34.6496l6.99392,-14.03355l7.45104,14.03355l17.3248,-34.6496h-7.35961z" data-paper-data="{&quot;glyphName&quot;:&quot;W&quot;,&quot;glyphIndex&quot;:1,&quot;word&quot;:1,&quot;line&quot;:1}" fill="#ffffff" id="element-id-2011"></path><path d="M369.26072,200.50946v-6.39966h-14.03355v-8.50241h12.79933v-6.39966h-12.79933v-6.35395h11.01656v-6.39966h-18.1019v34.05535z" data-paper-data="{&quot;glyphName&quot;:&quot;E&quot;,&quot;glyphIndex&quot;:2,&quot;word&quot;:1,&quot;line&quot;:1}" fill="#ffffff" id="element-id-38559"></path><path d="M398.56204,186.15593l-24.22729,-20.34178v34.69531h7.08534v-19.56468l24.22729,20.15894v-34.6496h-7.08534z" data-paper-data="{&quot;glyphName&quot;:&quot;N&quot;,&quot;glyphIndex&quot;:3,&quot;word&quot;:1,&quot;line&quot;:1}" fill="#ffffff" id="element-id-91411"></path><path d="M425.25777,200.50946v-27.65568h8.95953v-6.39966h-24.45585v6.39966h8.41099v27.65568z" data-paper-data="{&quot;glyphName&quot;:&quot;T&quot;,&quot;glyphIndex&quot;:4,&quot;word&quot;:1,&quot;line&quot;:1}" fill="#ffffff" id="element-id-56569"></path><path d="M452.91346,183.18466l-9.96519,-16.73055h-8.13671l14.44495,23.72446v10.33088h7.08534v-10.97085l13.94212,-23.0845h-7.45104z" data-paper-data="{&quot;glyphName&quot;:&quot;Y&quot;,&quot;glyphIndex&quot;:5,&quot;lastGlyphOfWord&quot;:true,&quot;word&quot;:1,&quot;line&quot;:1,&quot;lastGlyphOfFirstLine&quot;:true}" fill="#ffffff" id="element-id-7422"></path><path d="M283.26333,273.15738v-10.22274h7.0529c15.61147,0 25.67572,-10.46048 25.67572,-25.59647c0,-12.83786 -10.61897,-23.21909 -24.48702,-23.21909h-20.52472v59.0383zM283.26333,251.8402v-26.62667h7.44913c8.55857,0 12.9171,5.86421 12.9171,13.0756c0,8.24159 -4.91325,13.55107 -13.63032,13.55107z" data-paper-data="{&quot;glyphName&quot;:&quot;P&quot;,&quot;glyphIndex&quot;:6,&quot;firstGlyphOfWord&quot;:true,&quot;word&quot;:2,&quot;line&quot;:2,&quot;firstGlyphOfSecondLine&quot;:true}" fill="#ffffff" id="element-id-31958"></path><path d="M324.47126,214.11909v59.0383h36.05695v-11.09444h-23.77381v-47.94385z" data-paper-data="{&quot;glyphName&quot;:&quot;L&quot;,&quot;glyphIndex&quot;:7,&quot;word&quot;:2,&quot;line&quot;:2}" fill="#ffffff" id="element-id-56238"></path><path d="M410.21547,273.15738h13.39258l-31.22294,-60.06849l-31.14369,60.06849h12.67937l3.80381,-7.9246h28.60782zM391.90964,235.75326l9.03405,18.38508h-17.9096z" data-paper-data="{&quot;glyphName&quot;:&quot;A&quot;,&quot;glyphIndex&quot;:8,&quot;word&quot;:2,&quot;line&quot;:2}" fill="#ffffff" id="element-id-41902"></path><path d="M440.17048,243.12314l-17.27564,-29.00405h-14.10579l25.04175,41.12869v17.9096h12.28314v-19.01905l24.17004,-40.01925h-12.9171z" data-paper-data="{&quot;glyphName&quot;:&quot;Y&quot;,&quot;glyphIndex&quot;:9,&quot;lastGlyphOfWord&quot;:true,&quot;word&quot;:2,&quot;line&quot;:2,&quot;lastGlyphOfSecondLine&quot;:true}" fill="#ffffff" id="element-id-96469"></path></g><g data-paper-data="{&quot;fillRule&quot;:&quot;evenodd&quot;,&quot;fillRuleOriginal&quot;:&quot;evenodd&quot;,&quot;isIcon&quot;:true,&quot;iconStyle&quot;:&quot;standalone&quot;,&quot;selectedEffects&quot;:{&quot;container&quot;:&quot;&quot;,&quot;transformation&quot;:&quot;&quot;,&quot;pattern&quot;:&quot;&quot;},&quot;bounds&quot;:{&quot;x&quot;:79.71603177401899,&quot;y&quot;:156.58936966292498,&quot;width&quot;:156.82126067414998,&quot;height&quot;:156.82126067415004},&quot;iconType&quot;:&quot;icon&quot;,&quot;rawIconId&quot;:&quot;1166831&quot;,&quot;isDetailed&quot;:false,&quot;suitableAsStandaloneIcon&quot;:true}" fill-rule="evenodd" id="element-id-39318"><path d="M159.51054,225.58408l32.12455,-34.49738l-0.0627,-0.06744l-32.06186,-34.42989zM150.77483,180.26487l1.67282,47.11166l-48.78449,-48.80144l47.01966,1.68655zM212.86174,227.64816l-47.11166,1.67282l48.80144,-48.78449l-1.68655,47.01966zM148.71075,233.61607l-34.49738,-32.12455l-0.06744,0.0627l-34.42989,32.06186zM164.04607,234.70344c0,1.49659 -0.52908,2.77403 -1.58725,3.83231c-1.05828,1.05817 -2.33571,1.58725 -3.83231,1.58725c-1.49659,0 -2.77403,-0.52908 -3.83231,-1.58725c-1.05817,-1.05828 -1.58725,-2.33571 -1.58725,-3.83231c0,-1.49659 0.52908,-2.77403 1.58725,-3.83231c1.05828,-1.05817 2.33571,-1.58725 3.83231,-1.58725c1.49659,0 2.77403,0.52908 3.83231,1.58725c1.05817,1.05828 1.58725,2.33571 1.58725,3.83231zM167.54252,236.38388l34.49738,32.12455l0.06744,-0.0627l34.42994,-32.06186zM103.39153,242.35177l47.11166,-1.67282l-48.80144,48.78449l1.68655,-47.01966zM165.47843,289.73507l-1.67282,-47.11166l48.78449,48.80144l-47.01966,-1.68655zM156.74273,244.41586l-32.12455,34.49738l0.0627,0.06744l32.06186,34.42994z" data-paper-data="{&quot;isPathIcon&quot;:true}" id="element-id-8572"></path></g></g></g><rect data-element-id="element-id-39318" stroke-width="2" fill="transparent" class="invisible-element-box grouping-element" x="80" y="157" width="157" height="157" data-element-name="isIcon"></rect><rect data-element-id="element-id-8572" stroke-width="2" fill="transparent" class="invisible-element-box individual-element" x="80" y="157" width="157" height="157"></rect><rect data-element-id="element-id-75712" stroke-width="2" fill="transparent" class="invisible-element-box grouping-element" x="271" y="166" width="199" height="107" data-element-name="isPrimaryText"></rect><rect data-element-id="element-id-41902" stroke-width="2" fill="transparent" class="invisible-element-box individual-element" x="361" y="213" width="62" height="60"></rect><rect data-element-id="element-id-96469" stroke-width="2" fill="transparent" class="invisible-element-box individual-element" x="409" y="214" width="61" height="59"></rect><rect data-element-id="element-id-466" stroke-width="2" fill="transparent" class="invisible-element-box grouping-element" x="271" y="284" width="154" height="20" data-element-name="isSecondaryText"></rect><rect data-element-id="element-id-31958" stroke-width="2" fill="transparent" class="invisible-element-box individual-element" x="271" y="214" width="45" height="59"></rect><rect data-element-id="element-id-56238" stroke-width="2" fill="transparent" class="invisible-element-box individual-element" x="324" y="214" width="36" height="59"></rect><rect data-element-id="element-id-2011" stroke-width="2" fill="transparent" class="invisible-element-box individual-element" x="296" y="166" width="50" height="35"></rect><rect data-element-id="element-id-7422" stroke-width="2" fill="transparent" class="invisible-element-box individual-element" x="435" y="166" width="35" height="34"></rect><rect data-element-id="element-id-91411" stroke-width="2" fill="transparent" class="invisible-element-box individual-element" x="374" y="166" width="31" height="35"></rect><rect data-element-id="element-id-38414" stroke-width="2" fill="transparent" class="invisible-element-box individual-element" x="271" y="166" width="24" height="34"></rect><rect data-element-id="element-id-56569" stroke-width="2" fill="transparent" class="invisible-element-box individual-element" x="410" y="166" width="24" height="34"></rect><rect data-element-id="element-id-38559" stroke-width="2" fill="transparent" class="invisible-element-box individual-element" x="348" y="166" width="21" height="34"></rect><rect data-element-id="element-id-47806" stroke-width="2" fill="transparent" class="invisible-element-box individual-element" x="394" y="284" width="12" height="20"></rect><rect data-element-id="element-id-43890" stroke-width="2" fill="transparent" class="invisible-element-box individual-element" x="341" y="284" width="14" height="15"></rect><rect data-element-id="element-id-39347" stroke-width="2" fill="transparent" class="invisible-element-box individual-element" x="374" y="284" width="14" height="15"></rect><rect data-element-id="element-id-6376" stroke-width="2" fill="transparent" class="invisible-element-box individual-element" x="321" y="284" width="13" height="15"></rect><rect data-element-id="element-id-165" stroke-width="2" fill="transparent" class="invisible-element-box individual-element" x="412" y="284" width="13" height="15"></rect><rect data-element-id="element-id-98402" stroke-width="2" fill="transparent" class="invisible-element-box individual-element" x="271" y="284" width="11" height="15"></rect><rect data-element-id="element-id-2491" stroke-width="2" fill="transparent" class="invisible-element-box individual-element" x="304" y="284" width="11" height="15"></rect><rect data-element-id="element-id-23321" stroke-width="2" fill="transparent" class="invisible-element-box individual-element" x="288" y="284" width="10" height="15"></rect><rect data-element-id="element-id-44382" stroke-width="2" fill="transparent" class="invisible-element-box individual-element" x="361" y="284" width="9" height="15"></rect></svg>
