<svg width="24" height="24" viewBox="0 0 24 24" fill="none" xmlns="http://www.w3.org/2000/svg">
<path fill-rule="evenodd" clip-rule="evenodd" d="M11.287 0H12.7737C12.8496 0.0151899 12.9254 0.0227848 13.0013 0.0303797C13.0771 0.0379747 13.153 0.0455696 13.2288 0.0607595C15.3831 0.303797 17.3249 1.03291 19.0544 2.33924C21.6334 4.28354 23.2415 6.80506 23.818 9.99494C23.8775 10.2734 23.9111 10.5649 23.9442 10.8523L23.9443 10.8524C23.9617 11.004 23.9791 11.1544 24 11.3013V12.7899C23.9393 13.3063 23.8786 13.8228 23.7573 14.3392C22.847 19.1392 18.9027 22.9975 14.0784 23.8177C13.8512 23.8481 13.6316 23.8784 13.412 23.9087L13.4109 23.9089L13.4097 23.909C13.1901 23.9394 12.9705 23.9697 12.7434 24H11.8028C11.4083 23.8177 11.2566 23.4835 11.287 23.0582C11.3073 22.6926 11.3004 22.3133 11.2937 21.9386V21.9386C11.2903 21.753 11.287 21.5685 11.287 21.3873V21.1443C10.1643 21.0532 9.1024 20.7797 8.0708 20.2937C8.10114 20.3848 8.10114 20.4152 8.10114 20.4456C8.31353 21.0835 7.94943 21.5392 7.28192 21.4481C6.73578 21.3873 6.18963 21.2962 5.67383 21.1443C3.6713 20.6582 1.85082 19.8076 0.333755 18.3797C-0.091024 17.9848 -0.0303414 17.438 0.485461 17.1646C0.576486 17.119 0.675095 17.0658 0.773704 17.0127C0.872314 16.9595 0.970923 16.9063 1.06195 16.8608C1.04678 16.8304 1.03919 16.8076 1.03161 16.7848C1.02402 16.762 1.01643 16.7392 1.00126 16.7089C0.606827 15.7975 0.303413 14.8557 0.151707 13.8835C0.091024 13.4886 0.0303413 13.0937 0 12.6684V11.2101C0.0321597 11.0008 0.0557976 10.7915 0.0799462 10.5777C0.101364 10.3881 0.123184 10.1949 0.151707 9.99494C0.606827 7.32152 1.85082 5.01266 3.82301 3.15949C5.55247 1.51899 7.61568 0.486076 9.95196 0.0911392C10.4374 0.121519 10.8622 0.0607595 11.287 0ZM4.88496 14.9468C4.93254 14.923 4.97806 14.9013 5.0215 14.8805C5.14424 14.8219 5.25043 14.7711 5.34008 14.7038C5.91656 14.4 6.34134 14.6127 6.49305 15.1899C6.76612 16.1316 7.03919 17.0734 7.3426 18.0152C7.37295 18.1367 7.46397 18.2582 7.58534 18.3494C9.34513 19.5949 11.3173 20.0203 13.4412 19.6557C16.9608 19.0481 19.6612 15.9797 19.7826 12.3949C19.8736 10.1468 19.115 8.17215 17.507 6.59241C15.5348 4.61772 13.1681 3.82785 10.4374 4.40506C6.6751 5.19494 3.85335 8.84051 4.27813 12.8203C4.39949 13.5494 4.58154 14.2481 4.88496 14.9468ZM5.0876 16.4463C5.16499 16.4001 5.2468 16.3513 5.34008 16.3139C5.70417 17.4987 6.09861 18.6835 6.52339 19.9291C4.94564 19.5949 3.48925 18.9873 2.15424 18.0456C2.21492 17.9848 2.24526 17.9544 2.30594 17.9241C2.85209 17.6506 2.94311 17.3165 2.67004 16.7696C2.15424 15.7975 1.82048 14.7646 1.63843 13.6709C1.30468 11.4532 1.60809 9.32658 2.60936 7.3519C4.0354 4.4962 6.28066 2.58228 9.34513 1.79241C13.2895 0.789873 16.7484 1.76203 19.6308 4.61772C21.2693 6.25823 22.2402 8.26329 22.5436 10.5418C23.0291 14.3089 21.8458 17.4987 18.9937 20.0203C17.3552 21.4785 15.4134 22.2987 13.2288 22.5418C13.1075 22.5722 12.9861 22.5722 12.8647 22.5722H12.7737V21.2051L13.866 21.0228C17.5373 20.2937 20.3894 17.438 21.0872 13.762C22.0278 8.96202 18.842 4.13165 14.0784 3.06835C9.16308 1.97468 4.24779 5.07342 3.12516 10.0253C2.6397 12.1823 2.91277 14.2481 3.91403 16.1924C4.12642 16.6177 4.52086 16.7392 4.94564 16.5266C4.99238 16.5032 5.03913 16.4753 5.0876 16.4463Z" fill="white"/>
</svg>
